%TF.GenerationSoftware,KiCad,Pcbnew,5.1.10*%
%TF.CreationDate,2021-05-10T15:11:08+02:00*%
%TF.ProjectId,ripples,72697070-6c65-4732-9e6b-696361645f70,rev?*%
%TF.SameCoordinates,Original*%
%TF.FileFunction,Copper,L2,Bot*%
%TF.FilePolarity,Positive*%
%FSLAX46Y46*%
G04 Gerber Fmt 4.6, Leading zero omitted, Abs format (unit mm)*
G04 Created by KiCad (PCBNEW 5.1.10) date 2021-05-10 15:11:08*
%MOMM*%
%LPD*%
G01*
G04 APERTURE LIST*
%TA.AperFunction,EtchedComponent*%
%ADD10C,0.010000*%
%TD*%
%TA.AperFunction,ComponentPad*%
%ADD11C,3.200000*%
%TD*%
%TA.AperFunction,ComponentPad*%
%ADD12C,6.250000*%
%TD*%
%TA.AperFunction,ComponentPad*%
%ADD13C,6.511829*%
%TD*%
G04 APERTURE END LIST*
D10*
%TO.C,G\u002A\u002A\u002A*%
G36*
X20150667Y-64262000D02*
G01*
X-20150666Y-64262000D01*
X-20150666Y17148611D01*
X6567877Y17148611D01*
X6600804Y16775862D01*
X6671017Y16407995D01*
X6778210Y16047909D01*
X6922078Y15698506D01*
X7102315Y15362685D01*
X7318617Y15043348D01*
X7570677Y14743396D01*
X7662906Y14647906D01*
X7956175Y14384248D01*
X8274465Y14153689D01*
X8614592Y13957760D01*
X8973374Y13797990D01*
X9347628Y13675908D01*
X9734170Y13593044D01*
X9907144Y13569422D01*
X10058832Y13558548D01*
X10238811Y13555690D01*
X10433905Y13560342D01*
X10630938Y13571995D01*
X10816735Y13590143D01*
X10952283Y13609656D01*
X11328320Y13695409D01*
X11690624Y13819760D01*
X12036590Y13980462D01*
X12363611Y14175268D01*
X12669084Y14401931D01*
X12950401Y14658204D01*
X13204959Y14941841D01*
X13430152Y15250594D01*
X13623374Y15582216D01*
X13782020Y15934461D01*
X13842469Y16102197D01*
X13897355Y16272667D01*
X13939995Y16421139D01*
X13971866Y16557432D01*
X13994445Y16691364D01*
X14009208Y16832752D01*
X14017632Y16991414D01*
X14021195Y17177168D01*
X14021617Y17293167D01*
X14020016Y17499200D01*
X14014272Y17672627D01*
X14002976Y17823090D01*
X13984718Y17960228D01*
X13958087Y18093681D01*
X13921674Y18233089D01*
X13874069Y18388092D01*
X13851340Y18457333D01*
X13706834Y18826417D01*
X13526948Y19174288D01*
X13313899Y19498875D01*
X13069909Y19798107D01*
X12797198Y20069909D01*
X12497984Y20312212D01*
X12174489Y20522941D01*
X11828931Y20700026D01*
X11463531Y20841394D01*
X11222014Y20911727D01*
X10930812Y20971133D01*
X10617849Y21008198D01*
X10297780Y21022174D01*
X9985256Y21012309D01*
X9752010Y20986971D01*
X9371001Y20909286D01*
X9001509Y20792126D01*
X8646675Y20637514D01*
X8309640Y20447472D01*
X7993546Y20224022D01*
X7701534Y19969185D01*
X7436746Y19684985D01*
X7202322Y19373443D01*
X7170418Y19325167D01*
X6973217Y18984046D01*
X6815134Y18630402D01*
X6695864Y18267136D01*
X6615101Y17897148D01*
X6572541Y17523339D01*
X6567877Y17148611D01*
X-20150666Y17148611D01*
X-20150666Y38805472D01*
X-10580840Y38805472D01*
X-10574855Y38613935D01*
X-10564322Y38491617D01*
X-10496981Y38088660D01*
X-10392302Y37705624D01*
X-10250176Y37342279D01*
X-10070496Y36998400D01*
X-9853156Y36673758D01*
X-9598047Y36368126D01*
X-9527010Y36293278D01*
X-9230183Y36016731D01*
X-8915302Y35778454D01*
X-8582195Y35578345D01*
X-8230690Y35416305D01*
X-7860617Y35292232D01*
X-7796879Y35275174D01*
X-7634358Y35235361D01*
X-7490207Y35205722D01*
X-7353427Y35185097D01*
X-7213015Y35172325D01*
X-7057971Y35166245D01*
X-6877294Y35165695D01*
X-6773333Y35167142D01*
X-6611506Y35170790D01*
X-6482303Y35175832D01*
X-6376015Y35183142D01*
X-6282936Y35193592D01*
X-6193358Y35208056D01*
X-6097576Y35227405D01*
X-6093614Y35228263D01*
X-5706016Y35333250D01*
X-5337545Y35474735D01*
X-4990143Y35650769D01*
X-4665751Y35859401D01*
X-4366310Y36098679D01*
X-4093763Y36366654D01*
X-3850050Y36661374D01*
X-3637113Y36980889D01*
X-3456894Y37323248D01*
X-3311333Y37686501D01*
X-3202374Y38068695D01*
X-3184269Y38151446D01*
X-3146329Y38385428D01*
X-3122904Y38642722D01*
X-3114576Y38907155D01*
X-3121926Y39162555D01*
X-3140795Y39359417D01*
X-3214258Y39753356D01*
X-3325481Y40130550D01*
X-3472562Y40489052D01*
X-3653598Y40826913D01*
X-3866687Y41142185D01*
X-4109925Y41432922D01*
X-4381412Y41697175D01*
X-4679243Y41932997D01*
X-5001517Y42138440D01*
X-5346331Y42311556D01*
X-5711782Y42450398D01*
X-6095968Y42553018D01*
X-6297083Y42590553D01*
X-6398605Y42602069D01*
X-6531735Y42610282D01*
X-6685878Y42615192D01*
X-6850439Y42616796D01*
X-7014820Y42615094D01*
X-7168427Y42610086D01*
X-7300664Y42601769D01*
X-7397750Y42590659D01*
X-7787973Y42507719D01*
X-8161592Y42387209D01*
X-8516527Y42231126D01*
X-8850700Y42041467D01*
X-9162031Y41820226D01*
X-9448443Y41569402D01*
X-9707856Y41290989D01*
X-9938191Y40986985D01*
X-10137370Y40659386D01*
X-10303313Y40310188D01*
X-10433943Y39941387D01*
X-10520014Y39592250D01*
X-10546787Y39421007D01*
X-10566231Y39223281D01*
X-10577774Y39013345D01*
X-10580840Y38805472D01*
X-20150666Y38805472D01*
X-20150666Y43476333D01*
X10011834Y43476333D01*
X10011834Y34290000D01*
X14795500Y34290000D01*
X14795500Y43476333D01*
X10011834Y43476333D01*
X-20150666Y43476333D01*
X-20150666Y64240833D01*
X20150667Y64240833D01*
X20150667Y-64262000D01*
G37*
X20150667Y-64262000D02*
X-20150666Y-64262000D01*
X-20150666Y17148611D01*
X6567877Y17148611D01*
X6600804Y16775862D01*
X6671017Y16407995D01*
X6778210Y16047909D01*
X6922078Y15698506D01*
X7102315Y15362685D01*
X7318617Y15043348D01*
X7570677Y14743396D01*
X7662906Y14647906D01*
X7956175Y14384248D01*
X8274465Y14153689D01*
X8614592Y13957760D01*
X8973374Y13797990D01*
X9347628Y13675908D01*
X9734170Y13593044D01*
X9907144Y13569422D01*
X10058832Y13558548D01*
X10238811Y13555690D01*
X10433905Y13560342D01*
X10630938Y13571995D01*
X10816735Y13590143D01*
X10952283Y13609656D01*
X11328320Y13695409D01*
X11690624Y13819760D01*
X12036590Y13980462D01*
X12363611Y14175268D01*
X12669084Y14401931D01*
X12950401Y14658204D01*
X13204959Y14941841D01*
X13430152Y15250594D01*
X13623374Y15582216D01*
X13782020Y15934461D01*
X13842469Y16102197D01*
X13897355Y16272667D01*
X13939995Y16421139D01*
X13971866Y16557432D01*
X13994445Y16691364D01*
X14009208Y16832752D01*
X14017632Y16991414D01*
X14021195Y17177168D01*
X14021617Y17293167D01*
X14020016Y17499200D01*
X14014272Y17672627D01*
X14002976Y17823090D01*
X13984718Y17960228D01*
X13958087Y18093681D01*
X13921674Y18233089D01*
X13874069Y18388092D01*
X13851340Y18457333D01*
X13706834Y18826417D01*
X13526948Y19174288D01*
X13313899Y19498875D01*
X13069909Y19798107D01*
X12797198Y20069909D01*
X12497984Y20312212D01*
X12174489Y20522941D01*
X11828931Y20700026D01*
X11463531Y20841394D01*
X11222014Y20911727D01*
X10930812Y20971133D01*
X10617849Y21008198D01*
X10297780Y21022174D01*
X9985256Y21012309D01*
X9752010Y20986971D01*
X9371001Y20909286D01*
X9001509Y20792126D01*
X8646675Y20637514D01*
X8309640Y20447472D01*
X7993546Y20224022D01*
X7701534Y19969185D01*
X7436746Y19684985D01*
X7202322Y19373443D01*
X7170418Y19325167D01*
X6973217Y18984046D01*
X6815134Y18630402D01*
X6695864Y18267136D01*
X6615101Y17897148D01*
X6572541Y17523339D01*
X6567877Y17148611D01*
X-20150666Y17148611D01*
X-20150666Y38805472D01*
X-10580840Y38805472D01*
X-10574855Y38613935D01*
X-10564322Y38491617D01*
X-10496981Y38088660D01*
X-10392302Y37705624D01*
X-10250176Y37342279D01*
X-10070496Y36998400D01*
X-9853156Y36673758D01*
X-9598047Y36368126D01*
X-9527010Y36293278D01*
X-9230183Y36016731D01*
X-8915302Y35778454D01*
X-8582195Y35578345D01*
X-8230690Y35416305D01*
X-7860617Y35292232D01*
X-7796879Y35275174D01*
X-7634358Y35235361D01*
X-7490207Y35205722D01*
X-7353427Y35185097D01*
X-7213015Y35172325D01*
X-7057971Y35166245D01*
X-6877294Y35165695D01*
X-6773333Y35167142D01*
X-6611506Y35170790D01*
X-6482303Y35175832D01*
X-6376015Y35183142D01*
X-6282936Y35193592D01*
X-6193358Y35208056D01*
X-6097576Y35227405D01*
X-6093614Y35228263D01*
X-5706016Y35333250D01*
X-5337545Y35474735D01*
X-4990143Y35650769D01*
X-4665751Y35859401D01*
X-4366310Y36098679D01*
X-4093763Y36366654D01*
X-3850050Y36661374D01*
X-3637113Y36980889D01*
X-3456894Y37323248D01*
X-3311333Y37686501D01*
X-3202374Y38068695D01*
X-3184269Y38151446D01*
X-3146329Y38385428D01*
X-3122904Y38642722D01*
X-3114576Y38907155D01*
X-3121926Y39162555D01*
X-3140795Y39359417D01*
X-3214258Y39753356D01*
X-3325481Y40130550D01*
X-3472562Y40489052D01*
X-3653598Y40826913D01*
X-3866687Y41142185D01*
X-4109925Y41432922D01*
X-4381412Y41697175D01*
X-4679243Y41932997D01*
X-5001517Y42138440D01*
X-5346331Y42311556D01*
X-5711782Y42450398D01*
X-6095968Y42553018D01*
X-6297083Y42590553D01*
X-6398605Y42602069D01*
X-6531735Y42610282D01*
X-6685878Y42615192D01*
X-6850439Y42616796D01*
X-7014820Y42615094D01*
X-7168427Y42610086D01*
X-7300664Y42601769D01*
X-7397750Y42590659D01*
X-7787973Y42507719D01*
X-8161592Y42387209D01*
X-8516527Y42231126D01*
X-8850700Y42041467D01*
X-9162031Y41820226D01*
X-9448443Y41569402D01*
X-9707856Y41290989D01*
X-9938191Y40986985D01*
X-10137370Y40659386D01*
X-10303313Y40310188D01*
X-10433943Y39941387D01*
X-10520014Y39592250D01*
X-10546787Y39421007D01*
X-10566231Y39223281D01*
X-10577774Y39013345D01*
X-10580840Y38805472D01*
X-20150666Y38805472D01*
X-20150666Y43476333D01*
X10011834Y43476333D01*
X10011834Y34290000D01*
X14795500Y34290000D01*
X14795500Y43476333D01*
X10011834Y43476333D01*
X-20150666Y43476333D01*
X-20150666Y64240833D01*
X20150667Y64240833D01*
X20150667Y-64262000D01*
%TD*%
D11*
%TO.P,,1*%
%TO.N,N/C*%
X-12650000Y61250000D03*
%TD*%
%TO.P,,2*%
%TO.N,N/C*%
X-12650000Y-61250000D03*
%TD*%
D12*
%TO.P,,3*%
%TO.N,N/C*%
X-12078449Y-17650444D03*
%TD*%
%TO.P,,4*%
%TO.N,N/C*%
X1452Y-17650444D03*
%TD*%
%TO.P,,5*%
%TO.N,N/C*%
X12062060Y-17650444D03*
%TD*%
%TO.P,,6*%
%TO.N,N/C*%
X-12078449Y-32250786D03*
%TD*%
%TO.P,,7*%
%TO.N,N/C*%
X1452Y-32250786D03*
%TD*%
%TO.P,,8*%
%TO.N,N/C*%
X12062060Y-32250786D03*
%TD*%
%TO.P,,9*%
%TO.N,N/C*%
X-12068874Y-46851630D03*
%TD*%
%TO.P,,10*%
%TO.N,N/C*%
X11026Y-46851630D03*
%TD*%
%TO.P,,11*%
%TO.N,N/C*%
X12071635Y-46851630D03*
%TD*%
D11*
%TO.P,,12*%
%TO.N,N/C*%
X-15448345Y-25900574D03*
%TD*%
%TO.P,,13*%
%TO.N,N/C*%
X-15448345Y-11300476D03*
%TD*%
D13*
%TO.P,,14*%
%TO.N,N/C*%
X-12098649Y-1750465D03*
%TD*%
%TO.P,,15*%
%TO.N,N/C*%
X1382Y-1750465D03*
%TD*%
M02*
