%TF.GenerationSoftware,KiCad,Pcbnew,5.1.10*%
%TF.CreationDate,2021-05-10T15:11:08+02:00*%
%TF.ProjectId,ripples,72697070-6c65-4732-9e6b-696361645f70,rev?*%
%TF.SameCoordinates,Original*%
%TF.FileFunction,Legend,Bot*%
%TF.FilePolarity,Positive*%
%FSLAX46Y46*%
G04 Gerber Fmt 4.6, Leading zero omitted, Abs format (unit mm)*
G04 Created by KiCad (PCBNEW 5.1.10) date 2021-05-10 15:11:08*
%MOMM*%
%LPD*%
G01*
G04 APERTURE LIST*
%ADD10C,0.010000*%
G04 APERTURE END LIST*
D10*
%TO.C,G\u002A\u002A\u002A*%
G36*
X-13995349Y-55308018D02*
G01*
X-13950354Y-55361419D01*
X-13931068Y-55428063D01*
X-13942970Y-55498930D01*
X-13975291Y-55549026D01*
X-14040364Y-55601311D01*
X-14108800Y-55613667D01*
X-14173207Y-55595601D01*
X-14233377Y-55550221D01*
X-14264244Y-55486612D01*
X-14266955Y-55415955D01*
X-14242657Y-55349432D01*
X-14192495Y-55298226D01*
X-14140548Y-55277017D01*
X-14060573Y-55276878D01*
X-13995349Y-55308018D01*
G37*
X-13995349Y-55308018D02*
X-13950354Y-55361419D01*
X-13931068Y-55428063D01*
X-13942970Y-55498930D01*
X-13975291Y-55549026D01*
X-14040364Y-55601311D01*
X-14108800Y-55613667D01*
X-14173207Y-55595601D01*
X-14233377Y-55550221D01*
X-14264244Y-55486612D01*
X-14266955Y-55415955D01*
X-14242657Y-55349432D01*
X-14192495Y-55298226D01*
X-14140548Y-55277017D01*
X-14060573Y-55276878D01*
X-13995349Y-55308018D01*
G36*
X-14092010Y-55673042D02*
G01*
X-13790083Y-55678917D01*
X-13778271Y-56239833D01*
X-13906500Y-56239833D01*
X-13906500Y-56790167D01*
X-14287500Y-56790167D01*
X-14287500Y-56242515D01*
X-14356291Y-56235883D01*
X-14425083Y-56229250D01*
X-14431059Y-56004885D01*
X-14431566Y-55905515D01*
X-14428163Y-55816652D01*
X-14421509Y-55750160D01*
X-14415486Y-55723844D01*
X-14393938Y-55667167D01*
X-14092010Y-55673042D01*
G37*
X-14092010Y-55673042D02*
X-13790083Y-55678917D01*
X-13778271Y-56239833D01*
X-13906500Y-56239833D01*
X-13906500Y-56790167D01*
X-14287500Y-56790167D01*
X-14287500Y-56242515D01*
X-14356291Y-56235883D01*
X-14425083Y-56229250D01*
X-14431059Y-56004885D01*
X-14431566Y-55905515D01*
X-14428163Y-55816652D01*
X-14421509Y-55750160D01*
X-14415486Y-55723844D01*
X-14393938Y-55667167D01*
X-14092010Y-55673042D01*
G36*
X-16785449Y-55434551D02*
G01*
X-16754880Y-55444399D01*
X-16659002Y-55498938D01*
X-16569975Y-55581035D01*
X-16499760Y-55677617D01*
X-16463340Y-55763041D01*
X-16443906Y-55822687D01*
X-16421946Y-55851067D01*
X-16388735Y-55858789D01*
X-16384564Y-55858833D01*
X-16361253Y-55861267D01*
X-16356465Y-55872375D01*
X-16373463Y-55897868D01*
X-16415508Y-55943457D01*
X-16457107Y-55985858D01*
X-16582806Y-56112882D01*
X-16706107Y-55991149D01*
X-16765625Y-55930783D01*
X-16797341Y-55893201D01*
X-16804788Y-55872724D01*
X-16791501Y-55863677D01*
X-16786120Y-55862653D01*
X-16751814Y-55850933D01*
X-16747545Y-55826815D01*
X-16773920Y-55783838D01*
X-16796118Y-55756422D01*
X-16868404Y-55700264D01*
X-16955544Y-55676224D01*
X-17046253Y-55683116D01*
X-17129248Y-55719756D01*
X-17193244Y-55784962D01*
X-17201507Y-55798957D01*
X-17225933Y-55872245D01*
X-17238994Y-55970614D01*
X-17240658Y-56078590D01*
X-17230893Y-56180696D01*
X-17209669Y-56261456D01*
X-17202472Y-56276675D01*
X-17136439Y-56359594D01*
X-17049551Y-56407657D01*
X-16974345Y-56418788D01*
X-16874355Y-56402752D01*
X-16800774Y-56355948D01*
X-16759843Y-56289224D01*
X-16734329Y-56218667D01*
X-16420744Y-56218667D01*
X-16434864Y-56276875D01*
X-16488592Y-56419943D01*
X-16572478Y-56535475D01*
X-16683993Y-56620525D01*
X-16758665Y-56654134D01*
X-16860491Y-56675933D01*
X-16981912Y-56680215D01*
X-17104035Y-56667086D01*
X-17166815Y-56651822D01*
X-17294067Y-56592433D01*
X-17397154Y-56504241D01*
X-17475672Y-56393480D01*
X-17529220Y-56266382D01*
X-17557394Y-56129180D01*
X-17559790Y-55988107D01*
X-17536008Y-55849396D01*
X-17485643Y-55719280D01*
X-17408292Y-55603991D01*
X-17303554Y-55509762D01*
X-17242964Y-55473602D01*
X-17142406Y-55438230D01*
X-17020975Y-55419233D01*
X-16896160Y-55417658D01*
X-16785449Y-55434551D01*
G37*
X-16785449Y-55434551D02*
X-16754880Y-55444399D01*
X-16659002Y-55498938D01*
X-16569975Y-55581035D01*
X-16499760Y-55677617D01*
X-16463340Y-55763041D01*
X-16443906Y-55822687D01*
X-16421946Y-55851067D01*
X-16388735Y-55858789D01*
X-16384564Y-55858833D01*
X-16361253Y-55861267D01*
X-16356465Y-55872375D01*
X-16373463Y-55897868D01*
X-16415508Y-55943457D01*
X-16457107Y-55985858D01*
X-16582806Y-56112882D01*
X-16706107Y-55991149D01*
X-16765625Y-55930783D01*
X-16797341Y-55893201D01*
X-16804788Y-55872724D01*
X-16791501Y-55863677D01*
X-16786120Y-55862653D01*
X-16751814Y-55850933D01*
X-16747545Y-55826815D01*
X-16773920Y-55783838D01*
X-16796118Y-55756422D01*
X-16868404Y-55700264D01*
X-16955544Y-55676224D01*
X-17046253Y-55683116D01*
X-17129248Y-55719756D01*
X-17193244Y-55784962D01*
X-17201507Y-55798957D01*
X-17225933Y-55872245D01*
X-17238994Y-55970614D01*
X-17240658Y-56078590D01*
X-17230893Y-56180696D01*
X-17209669Y-56261456D01*
X-17202472Y-56276675D01*
X-17136439Y-56359594D01*
X-17049551Y-56407657D01*
X-16974345Y-56418788D01*
X-16874355Y-56402752D01*
X-16800774Y-56355948D01*
X-16759843Y-56289224D01*
X-16734329Y-56218667D01*
X-16420744Y-56218667D01*
X-16434864Y-56276875D01*
X-16488592Y-56419943D01*
X-16572478Y-56535475D01*
X-16683993Y-56620525D01*
X-16758665Y-56654134D01*
X-16860491Y-56675933D01*
X-16981912Y-56680215D01*
X-17104035Y-56667086D01*
X-17166815Y-56651822D01*
X-17294067Y-56592433D01*
X-17397154Y-56504241D01*
X-17475672Y-56393480D01*
X-17529220Y-56266382D01*
X-17557394Y-56129180D01*
X-17559790Y-55988107D01*
X-17536008Y-55849396D01*
X-17485643Y-55719280D01*
X-17408292Y-55603991D01*
X-17303554Y-55509762D01*
X-17242964Y-55473602D01*
X-17142406Y-55438230D01*
X-17020975Y-55419233D01*
X-16896160Y-55417658D01*
X-16785449Y-55434551D01*
G36*
X-9252016Y-56023092D02*
G01*
X-9127442Y-56070825D01*
X-9031660Y-56149379D01*
X-8965476Y-56257937D01*
X-8929697Y-56395681D01*
X-8923140Y-56494939D01*
X-8938351Y-56650226D01*
X-8984956Y-56778302D01*
X-9061779Y-56877787D01*
X-9167646Y-56947301D01*
X-9301379Y-56985464D01*
X-9345083Y-56990460D01*
X-9423499Y-56993211D01*
X-9492200Y-56989533D01*
X-9525137Y-56983313D01*
X-9659133Y-56921690D01*
X-9758634Y-56835891D01*
X-9770274Y-56821363D01*
X-9802795Y-56775303D01*
X-9818928Y-56745508D01*
X-9818993Y-56740498D01*
X-9783343Y-56717801D01*
X-9731829Y-56689053D01*
X-9679348Y-56662070D01*
X-9640800Y-56644668D01*
X-9631251Y-56642000D01*
X-9606140Y-56655753D01*
X-9565255Y-56690208D01*
X-9549423Y-56705500D01*
X-9474703Y-56757091D01*
X-9397303Y-56766779D01*
X-9319863Y-56734432D01*
X-9298638Y-56717916D01*
X-9268980Y-56689516D01*
X-9251285Y-56659753D01*
X-9242485Y-56617177D01*
X-9239513Y-56550337D01*
X-9239250Y-56496254D01*
X-9240852Y-56406991D01*
X-9247206Y-56348861D01*
X-9260634Y-56310732D01*
X-9283455Y-56281474D01*
X-9284190Y-56280736D01*
X-9352198Y-56239718D01*
X-9430126Y-56233117D01*
X-9504112Y-56260326D01*
X-9540247Y-56291929D01*
X-9592407Y-56352569D01*
X-9708967Y-56295403D01*
X-9825527Y-56238236D01*
X-9773447Y-56170703D01*
X-9680011Y-56083267D01*
X-9561058Y-56028257D01*
X-9419989Y-56007183D01*
X-9404574Y-56007000D01*
X-9252016Y-56023092D01*
G37*
X-9252016Y-56023092D02*
X-9127442Y-56070825D01*
X-9031660Y-56149379D01*
X-8965476Y-56257937D01*
X-8929697Y-56395681D01*
X-8923140Y-56494939D01*
X-8938351Y-56650226D01*
X-8984956Y-56778302D01*
X-9061779Y-56877787D01*
X-9167646Y-56947301D01*
X-9301379Y-56985464D01*
X-9345083Y-56990460D01*
X-9423499Y-56993211D01*
X-9492200Y-56989533D01*
X-9525137Y-56983313D01*
X-9659133Y-56921690D01*
X-9758634Y-56835891D01*
X-9770274Y-56821363D01*
X-9802795Y-56775303D01*
X-9818928Y-56745508D01*
X-9818993Y-56740498D01*
X-9783343Y-56717801D01*
X-9731829Y-56689053D01*
X-9679348Y-56662070D01*
X-9640800Y-56644668D01*
X-9631251Y-56642000D01*
X-9606140Y-56655753D01*
X-9565255Y-56690208D01*
X-9549423Y-56705500D01*
X-9474703Y-56757091D01*
X-9397303Y-56766779D01*
X-9319863Y-56734432D01*
X-9298638Y-56717916D01*
X-9268980Y-56689516D01*
X-9251285Y-56659753D01*
X-9242485Y-56617177D01*
X-9239513Y-56550337D01*
X-9239250Y-56496254D01*
X-9240852Y-56406991D01*
X-9247206Y-56348861D01*
X-9260634Y-56310732D01*
X-9283455Y-56281474D01*
X-9284190Y-56280736D01*
X-9352198Y-56239718D01*
X-9430126Y-56233117D01*
X-9504112Y-56260326D01*
X-9540247Y-56291929D01*
X-9592407Y-56352569D01*
X-9708967Y-56295403D01*
X-9825527Y-56238236D01*
X-9773447Y-56170703D01*
X-9680011Y-56083267D01*
X-9561058Y-56028257D01*
X-9419989Y-56007183D01*
X-9404574Y-56007000D01*
X-9252016Y-56023092D01*
G36*
X-10159345Y-56024083D02*
G01*
X-10036447Y-56072431D01*
X-9942011Y-56151889D01*
X-9876615Y-56261841D01*
X-9840835Y-56401670D01*
X-9833721Y-56517817D01*
X-9851456Y-56666503D01*
X-9902102Y-56790193D01*
X-9983583Y-56886559D01*
X-10093822Y-56953272D01*
X-10230744Y-56988005D01*
X-10255250Y-56990460D01*
X-10333666Y-56993211D01*
X-10402367Y-56989533D01*
X-10435304Y-56983313D01*
X-10566564Y-56923501D01*
X-10663898Y-56841954D01*
X-10677489Y-56825232D01*
X-10710914Y-56779195D01*
X-10729877Y-56748782D01*
X-10731500Y-56744162D01*
X-10714045Y-56730271D01*
X-10669180Y-56705533D01*
X-10629239Y-56686007D01*
X-10526979Y-56638110D01*
X-10461534Y-56703555D01*
X-10389338Y-56753794D01*
X-10317077Y-56766656D01*
X-10249812Y-56746787D01*
X-10192609Y-56698833D01*
X-10150530Y-56627438D01*
X-10128639Y-56537247D01*
X-10132000Y-56432907D01*
X-10137188Y-56406002D01*
X-10171713Y-56313714D01*
X-10227061Y-56257234D01*
X-10305689Y-56234227D01*
X-10318775Y-56233542D01*
X-10384143Y-56240745D01*
X-10433750Y-56273824D01*
X-10450413Y-56291929D01*
X-10502573Y-56352569D01*
X-10619134Y-56295403D01*
X-10735694Y-56238236D01*
X-10683613Y-56170703D01*
X-10589950Y-56082832D01*
X-10470838Y-56028250D01*
X-10327818Y-56007629D01*
X-10310129Y-56007465D01*
X-10159345Y-56024083D01*
G37*
X-10159345Y-56024083D02*
X-10036447Y-56072431D01*
X-9942011Y-56151889D01*
X-9876615Y-56261841D01*
X-9840835Y-56401670D01*
X-9833721Y-56517817D01*
X-9851456Y-56666503D01*
X-9902102Y-56790193D01*
X-9983583Y-56886559D01*
X-10093822Y-56953272D01*
X-10230744Y-56988005D01*
X-10255250Y-56990460D01*
X-10333666Y-56993211D01*
X-10402367Y-56989533D01*
X-10435304Y-56983313D01*
X-10566564Y-56923501D01*
X-10663898Y-56841954D01*
X-10677489Y-56825232D01*
X-10710914Y-56779195D01*
X-10729877Y-56748782D01*
X-10731500Y-56744162D01*
X-10714045Y-56730271D01*
X-10669180Y-56705533D01*
X-10629239Y-56686007D01*
X-10526979Y-56638110D01*
X-10461534Y-56703555D01*
X-10389338Y-56753794D01*
X-10317077Y-56766656D01*
X-10249812Y-56746787D01*
X-10192609Y-56698833D01*
X-10150530Y-56627438D01*
X-10128639Y-56537247D01*
X-10132000Y-56432907D01*
X-10137188Y-56406002D01*
X-10171713Y-56313714D01*
X-10227061Y-56257234D01*
X-10305689Y-56234227D01*
X-10318775Y-56233542D01*
X-10384143Y-56240745D01*
X-10433750Y-56273824D01*
X-10450413Y-56291929D01*
X-10502573Y-56352569D01*
X-10619134Y-56295403D01*
X-10735694Y-56238236D01*
X-10683613Y-56170703D01*
X-10589950Y-56082832D01*
X-10470838Y-56028250D01*
X-10327818Y-56007629D01*
X-10310129Y-56007465D01*
X-10159345Y-56024083D01*
G36*
X-13979724Y-54867733D02*
G01*
X-13858631Y-54880050D01*
X-13840228Y-54883545D01*
X-13644074Y-54945278D01*
X-13461594Y-55043772D01*
X-13297667Y-55174379D01*
X-13157173Y-55332450D01*
X-13044991Y-55513337D01*
X-12966000Y-55712390D01*
X-12964376Y-55717964D01*
X-12938908Y-55850074D01*
X-12928904Y-56004575D01*
X-12934130Y-56164543D01*
X-12954356Y-56313054D01*
X-12973566Y-56389527D01*
X-13052809Y-56575724D01*
X-13167429Y-56748386D01*
X-13311181Y-56901718D01*
X-13477820Y-57029924D01*
X-13661103Y-57127207D01*
X-13826908Y-57181632D01*
X-13955660Y-57202077D01*
X-14102380Y-57209954D01*
X-14246058Y-57204841D01*
X-14340416Y-57191982D01*
X-14533702Y-57133372D01*
X-14717835Y-57039275D01*
X-14885232Y-56915462D01*
X-15028306Y-56767702D01*
X-15139476Y-56601767D01*
X-15154415Y-56572656D01*
X-15232851Y-56368576D01*
X-15272585Y-56160181D01*
X-15275145Y-55973467D01*
X-15044273Y-55973467D01*
X-15038026Y-56165696D01*
X-15017851Y-56267782D01*
X-14973706Y-56403891D01*
X-14914448Y-56518553D01*
X-14831201Y-56626756D01*
X-14763411Y-56697403D01*
X-14604911Y-56826364D01*
X-14432997Y-56916718D01*
X-14250980Y-56967523D01*
X-14062172Y-56977837D01*
X-13878551Y-56949017D01*
X-13742924Y-56904977D01*
X-13626645Y-56845372D01*
X-13514602Y-56761503D01*
X-13449408Y-56701975D01*
X-13318107Y-56548782D01*
X-13225037Y-56380335D01*
X-13170941Y-56200733D01*
X-13156559Y-56014075D01*
X-13182633Y-55824460D01*
X-13249906Y-55635985D01*
X-13254687Y-55626000D01*
X-13349047Y-55474638D01*
X-13474625Y-55337319D01*
X-13620424Y-55224934D01*
X-13709616Y-55175607D01*
X-13773430Y-55146490D01*
X-13826276Y-55127104D01*
X-13879661Y-55115478D01*
X-13945094Y-55109640D01*
X-14034083Y-55107619D01*
X-14107583Y-55107417D01*
X-14216558Y-55107956D01*
X-14294491Y-55110927D01*
X-14352670Y-55118360D01*
X-14402385Y-55132285D01*
X-14454924Y-55154731D01*
X-14503387Y-55178586D01*
X-14614766Y-55247638D01*
X-14727970Y-55340294D01*
X-14831212Y-55445222D01*
X-14912708Y-55551085D01*
X-14940856Y-55599323D01*
X-15011558Y-55781859D01*
X-15044273Y-55973467D01*
X-15275145Y-55973467D01*
X-15275438Y-55952119D01*
X-15243229Y-55749039D01*
X-15177779Y-55555588D01*
X-15080909Y-55376413D01*
X-14954438Y-55216164D01*
X-14800188Y-55079487D01*
X-14619978Y-54971031D01*
X-14508921Y-54924542D01*
X-14400628Y-54896313D01*
X-14266087Y-54876807D01*
X-14120664Y-54866966D01*
X-13979724Y-54867733D01*
G37*
X-13979724Y-54867733D02*
X-13858631Y-54880050D01*
X-13840228Y-54883545D01*
X-13644074Y-54945278D01*
X-13461594Y-55043772D01*
X-13297667Y-55174379D01*
X-13157173Y-55332450D01*
X-13044991Y-55513337D01*
X-12966000Y-55712390D01*
X-12964376Y-55717964D01*
X-12938908Y-55850074D01*
X-12928904Y-56004575D01*
X-12934130Y-56164543D01*
X-12954356Y-56313054D01*
X-12973566Y-56389527D01*
X-13052809Y-56575724D01*
X-13167429Y-56748386D01*
X-13311181Y-56901718D01*
X-13477820Y-57029924D01*
X-13661103Y-57127207D01*
X-13826908Y-57181632D01*
X-13955660Y-57202077D01*
X-14102380Y-57209954D01*
X-14246058Y-57204841D01*
X-14340416Y-57191982D01*
X-14533702Y-57133372D01*
X-14717835Y-57039275D01*
X-14885232Y-56915462D01*
X-15028306Y-56767702D01*
X-15139476Y-56601767D01*
X-15154415Y-56572656D01*
X-15232851Y-56368576D01*
X-15272585Y-56160181D01*
X-15275145Y-55973467D01*
X-15044273Y-55973467D01*
X-15038026Y-56165696D01*
X-15017851Y-56267782D01*
X-14973706Y-56403891D01*
X-14914448Y-56518553D01*
X-14831201Y-56626756D01*
X-14763411Y-56697403D01*
X-14604911Y-56826364D01*
X-14432997Y-56916718D01*
X-14250980Y-56967523D01*
X-14062172Y-56977837D01*
X-13878551Y-56949017D01*
X-13742924Y-56904977D01*
X-13626645Y-56845372D01*
X-13514602Y-56761503D01*
X-13449408Y-56701975D01*
X-13318107Y-56548782D01*
X-13225037Y-56380335D01*
X-13170941Y-56200733D01*
X-13156559Y-56014075D01*
X-13182633Y-55824460D01*
X-13249906Y-55635985D01*
X-13254687Y-55626000D01*
X-13349047Y-55474638D01*
X-13474625Y-55337319D01*
X-13620424Y-55224934D01*
X-13709616Y-55175607D01*
X-13773430Y-55146490D01*
X-13826276Y-55127104D01*
X-13879661Y-55115478D01*
X-13945094Y-55109640D01*
X-14034083Y-55107619D01*
X-14107583Y-55107417D01*
X-14216558Y-55107956D01*
X-14294491Y-55110927D01*
X-14352670Y-55118360D01*
X-14402385Y-55132285D01*
X-14454924Y-55154731D01*
X-14503387Y-55178586D01*
X-14614766Y-55247638D01*
X-14727970Y-55340294D01*
X-14831212Y-55445222D01*
X-14912708Y-55551085D01*
X-14940856Y-55599323D01*
X-15011558Y-55781859D01*
X-15044273Y-55973467D01*
X-15275145Y-55973467D01*
X-15275438Y-55952119D01*
X-15243229Y-55749039D01*
X-15177779Y-55555588D01*
X-15080909Y-55376413D01*
X-14954438Y-55216164D01*
X-14800188Y-55079487D01*
X-14619978Y-54971031D01*
X-14508921Y-54924542D01*
X-14400628Y-54896313D01*
X-14266087Y-54876807D01*
X-14120664Y-54866966D01*
X-13979724Y-54867733D01*
G36*
X-16857594Y-54867975D02*
G01*
X-16719077Y-54882018D01*
X-16648463Y-54896410D01*
X-16458364Y-54967011D01*
X-16280844Y-55073802D01*
X-16121970Y-55211145D01*
X-15987812Y-55373400D01*
X-15884439Y-55554929D01*
X-15850998Y-55637412D01*
X-15821637Y-55750181D01*
X-15801975Y-55888219D01*
X-15793039Y-56035357D01*
X-15795857Y-56175427D01*
X-15809848Y-56284795D01*
X-15869970Y-56475816D01*
X-15965843Y-56656015D01*
X-16091896Y-56819739D01*
X-16242557Y-56961336D01*
X-16412253Y-57075156D01*
X-16595414Y-57155545D01*
X-16694789Y-57182400D01*
X-16877808Y-57206585D01*
X-17070303Y-57206796D01*
X-17219083Y-57188729D01*
X-17353779Y-57149217D01*
X-17498612Y-57083075D01*
X-17638990Y-56998030D01*
X-17759630Y-56902448D01*
X-17877340Y-56783087D01*
X-17966321Y-56666152D01*
X-18036666Y-56537185D01*
X-18070629Y-56457011D01*
X-18094922Y-56390379D01*
X-18111145Y-56330089D01*
X-18120943Y-56264437D01*
X-18125963Y-56181718D01*
X-18127852Y-56070227D01*
X-18127971Y-56049333D01*
X-18127842Y-56025104D01*
X-17906482Y-56025104D01*
X-17891952Y-56213079D01*
X-17847572Y-56376886D01*
X-17769920Y-56525430D01*
X-17662198Y-56660539D01*
X-17508261Y-56798222D01*
X-17339293Y-56897839D01*
X-17158554Y-56958382D01*
X-16969299Y-56978846D01*
X-16774786Y-56958224D01*
X-16731405Y-56948020D01*
X-16560639Y-56882928D01*
X-16401438Y-56781887D01*
X-16261026Y-56651059D01*
X-16146627Y-56496605D01*
X-16100069Y-56409533D01*
X-16044272Y-56243162D01*
X-16022940Y-56063038D01*
X-16035527Y-55879212D01*
X-16081490Y-55701733D01*
X-16145842Y-55564313D01*
X-16236340Y-55440304D01*
X-16354714Y-55322262D01*
X-16487061Y-55222975D01*
X-16564833Y-55178977D01*
X-16639732Y-55144501D01*
X-16704388Y-55122587D01*
X-16774139Y-55109770D01*
X-16864325Y-55102588D01*
X-16912888Y-55100382D01*
X-17075324Y-55101406D01*
X-17211411Y-55121233D01*
X-17334253Y-55163312D01*
X-17456949Y-55231089D01*
X-17488101Y-55251746D01*
X-17639269Y-55378615D01*
X-17759558Y-55529815D01*
X-17845948Y-55699766D01*
X-17895420Y-55882885D01*
X-17906482Y-56025104D01*
X-18127842Y-56025104D01*
X-18127322Y-55928312D01*
X-18123072Y-55837540D01*
X-18113801Y-55764990D01*
X-18098086Y-55698634D01*
X-18079785Y-55641531D01*
X-17990524Y-55445368D01*
X-17867712Y-55270391D01*
X-17716102Y-55121022D01*
X-17540449Y-55001678D01*
X-17345506Y-54916780D01*
X-17279528Y-54897532D01*
X-17155200Y-54875763D01*
X-17008762Y-54865901D01*
X-16857594Y-54867975D01*
G37*
X-16857594Y-54867975D02*
X-16719077Y-54882018D01*
X-16648463Y-54896410D01*
X-16458364Y-54967011D01*
X-16280844Y-55073802D01*
X-16121970Y-55211145D01*
X-15987812Y-55373400D01*
X-15884439Y-55554929D01*
X-15850998Y-55637412D01*
X-15821637Y-55750181D01*
X-15801975Y-55888219D01*
X-15793039Y-56035357D01*
X-15795857Y-56175427D01*
X-15809848Y-56284795D01*
X-15869970Y-56475816D01*
X-15965843Y-56656015D01*
X-16091896Y-56819739D01*
X-16242557Y-56961336D01*
X-16412253Y-57075156D01*
X-16595414Y-57155545D01*
X-16694789Y-57182400D01*
X-16877808Y-57206585D01*
X-17070303Y-57206796D01*
X-17219083Y-57188729D01*
X-17353779Y-57149217D01*
X-17498612Y-57083075D01*
X-17638990Y-56998030D01*
X-17759630Y-56902448D01*
X-17877340Y-56783087D01*
X-17966321Y-56666152D01*
X-18036666Y-56537185D01*
X-18070629Y-56457011D01*
X-18094922Y-56390379D01*
X-18111145Y-56330089D01*
X-18120943Y-56264437D01*
X-18125963Y-56181718D01*
X-18127852Y-56070227D01*
X-18127971Y-56049333D01*
X-18127842Y-56025104D01*
X-17906482Y-56025104D01*
X-17891952Y-56213079D01*
X-17847572Y-56376886D01*
X-17769920Y-56525430D01*
X-17662198Y-56660539D01*
X-17508261Y-56798222D01*
X-17339293Y-56897839D01*
X-17158554Y-56958382D01*
X-16969299Y-56978846D01*
X-16774786Y-56958224D01*
X-16731405Y-56948020D01*
X-16560639Y-56882928D01*
X-16401438Y-56781887D01*
X-16261026Y-56651059D01*
X-16146627Y-56496605D01*
X-16100069Y-56409533D01*
X-16044272Y-56243162D01*
X-16022940Y-56063038D01*
X-16035527Y-55879212D01*
X-16081490Y-55701733D01*
X-16145842Y-55564313D01*
X-16236340Y-55440304D01*
X-16354714Y-55322262D01*
X-16487061Y-55222975D01*
X-16564833Y-55178977D01*
X-16639732Y-55144501D01*
X-16704388Y-55122587D01*
X-16774139Y-55109770D01*
X-16864325Y-55102588D01*
X-16912888Y-55100382D01*
X-17075324Y-55101406D01*
X-17211411Y-55121233D01*
X-17334253Y-55163312D01*
X-17456949Y-55231089D01*
X-17488101Y-55251746D01*
X-17639269Y-55378615D01*
X-17759558Y-55529815D01*
X-17845948Y-55699766D01*
X-17895420Y-55882885D01*
X-17906482Y-56025104D01*
X-18127842Y-56025104D01*
X-18127322Y-55928312D01*
X-18123072Y-55837540D01*
X-18113801Y-55764990D01*
X-18098086Y-55698634D01*
X-18079785Y-55641531D01*
X-17990524Y-55445368D01*
X-17867712Y-55270391D01*
X-17716102Y-55121022D01*
X-17540449Y-55001678D01*
X-17345506Y-54916780D01*
X-17279528Y-54897532D01*
X-17155200Y-54875763D01*
X-17008762Y-54865901D01*
X-16857594Y-54867975D01*
G36*
X-9613000Y-54928592D02*
G01*
X-9430364Y-54956570D01*
X-9260037Y-55006951D01*
X-9088631Y-55082802D01*
X-9070870Y-55091930D01*
X-8974994Y-55152472D01*
X-8864707Y-55239153D01*
X-8749273Y-55343016D01*
X-8637954Y-55455103D01*
X-8540012Y-55566458D01*
X-8464710Y-55668122D01*
X-8449293Y-55693034D01*
X-8345635Y-55909841D01*
X-8276879Y-56142686D01*
X-8243098Y-56384753D01*
X-8244369Y-56629229D01*
X-8280766Y-56869296D01*
X-8352363Y-57098142D01*
X-8432067Y-57263367D01*
X-8563882Y-57457592D01*
X-8725528Y-57633821D01*
X-8910191Y-57786980D01*
X-9111054Y-57911994D01*
X-9321303Y-58003788D01*
X-9487066Y-58048988D01*
X-9654481Y-58071315D01*
X-9839764Y-58078099D01*
X-10022801Y-58069319D01*
X-10160778Y-58049762D01*
X-10343408Y-57998831D01*
X-10530798Y-57920600D01*
X-10688074Y-57833148D01*
X-10781337Y-57764192D01*
X-10886296Y-57671288D01*
X-10992509Y-57565148D01*
X-11089532Y-57456481D01*
X-11166922Y-57355998D01*
X-11193373Y-57314932D01*
X-11292464Y-57108294D01*
X-11361209Y-56880024D01*
X-11398412Y-56639188D01*
X-11401067Y-56493833D01*
X-11093830Y-56493833D01*
X-11079523Y-56717659D01*
X-11035647Y-56915626D01*
X-10959718Y-57094414D01*
X-10849248Y-57260703D01*
X-10777109Y-57344686D01*
X-10603573Y-57503188D01*
X-10410996Y-57626620D01*
X-10203876Y-57713648D01*
X-9986709Y-57762935D01*
X-9763992Y-57773147D01*
X-9540222Y-57742949D01*
X-9483773Y-57728689D01*
X-9285107Y-57652699D01*
X-9099092Y-57541175D01*
X-8931383Y-57399839D01*
X-8787635Y-57234415D01*
X-8673503Y-57050628D01*
X-8594642Y-56854201D01*
X-8584865Y-56818861D01*
X-8562974Y-56693371D01*
X-8553172Y-56545310D01*
X-8555499Y-56392399D01*
X-8569993Y-56252357D01*
X-8583462Y-56186072D01*
X-8637307Y-56021578D01*
X-8713607Y-55871993D01*
X-8818508Y-55727031D01*
X-8932222Y-55602326D01*
X-9095429Y-55455769D01*
X-9260567Y-55347919D01*
X-9435302Y-55275539D01*
X-9627296Y-55235392D01*
X-9827667Y-55224146D01*
X-10062587Y-55244281D01*
X-10281261Y-55303323D01*
X-10482299Y-55400537D01*
X-10664313Y-55535192D01*
X-10825914Y-55706552D01*
X-10881458Y-55780822D01*
X-10982798Y-55951523D01*
X-11050045Y-56129962D01*
X-11085905Y-56325222D01*
X-11093830Y-56493833D01*
X-11401067Y-56493833D01*
X-11402875Y-56394854D01*
X-11373400Y-56156088D01*
X-11356284Y-56081083D01*
X-11276970Y-55854313D01*
X-11160490Y-55639808D01*
X-11011522Y-55443429D01*
X-10834747Y-55271036D01*
X-10634844Y-55128488D01*
X-10563665Y-55088505D01*
X-10393136Y-55010738D01*
X-10221598Y-54958616D01*
X-10036552Y-54929299D01*
X-9825497Y-54919950D01*
X-9821333Y-54919947D01*
X-9613000Y-54928592D01*
G37*
X-9613000Y-54928592D02*
X-9430364Y-54956570D01*
X-9260037Y-55006951D01*
X-9088631Y-55082802D01*
X-9070870Y-55091930D01*
X-8974994Y-55152472D01*
X-8864707Y-55239153D01*
X-8749273Y-55343016D01*
X-8637954Y-55455103D01*
X-8540012Y-55566458D01*
X-8464710Y-55668122D01*
X-8449293Y-55693034D01*
X-8345635Y-55909841D01*
X-8276879Y-56142686D01*
X-8243098Y-56384753D01*
X-8244369Y-56629229D01*
X-8280766Y-56869296D01*
X-8352363Y-57098142D01*
X-8432067Y-57263367D01*
X-8563882Y-57457592D01*
X-8725528Y-57633821D01*
X-8910191Y-57786980D01*
X-9111054Y-57911994D01*
X-9321303Y-58003788D01*
X-9487066Y-58048988D01*
X-9654481Y-58071315D01*
X-9839764Y-58078099D01*
X-10022801Y-58069319D01*
X-10160778Y-58049762D01*
X-10343408Y-57998831D01*
X-10530798Y-57920600D01*
X-10688074Y-57833148D01*
X-10781337Y-57764192D01*
X-10886296Y-57671288D01*
X-10992509Y-57565148D01*
X-11089532Y-57456481D01*
X-11166922Y-57355998D01*
X-11193373Y-57314932D01*
X-11292464Y-57108294D01*
X-11361209Y-56880024D01*
X-11398412Y-56639188D01*
X-11401067Y-56493833D01*
X-11093830Y-56493833D01*
X-11079523Y-56717659D01*
X-11035647Y-56915626D01*
X-10959718Y-57094414D01*
X-10849248Y-57260703D01*
X-10777109Y-57344686D01*
X-10603573Y-57503188D01*
X-10410996Y-57626620D01*
X-10203876Y-57713648D01*
X-9986709Y-57762935D01*
X-9763992Y-57773147D01*
X-9540222Y-57742949D01*
X-9483773Y-57728689D01*
X-9285107Y-57652699D01*
X-9099092Y-57541175D01*
X-8931383Y-57399839D01*
X-8787635Y-57234415D01*
X-8673503Y-57050628D01*
X-8594642Y-56854201D01*
X-8584865Y-56818861D01*
X-8562974Y-56693371D01*
X-8553172Y-56545310D01*
X-8555499Y-56392399D01*
X-8569993Y-56252357D01*
X-8583462Y-56186072D01*
X-8637307Y-56021578D01*
X-8713607Y-55871993D01*
X-8818508Y-55727031D01*
X-8932222Y-55602326D01*
X-9095429Y-55455769D01*
X-9260567Y-55347919D01*
X-9435302Y-55275539D01*
X-9627296Y-55235392D01*
X-9827667Y-55224146D01*
X-10062587Y-55244281D01*
X-10281261Y-55303323D01*
X-10482299Y-55400537D01*
X-10664313Y-55535192D01*
X-10825914Y-55706552D01*
X-10881458Y-55780822D01*
X-10982798Y-55951523D01*
X-11050045Y-56129962D01*
X-11085905Y-56325222D01*
X-11093830Y-56493833D01*
X-11401067Y-56493833D01*
X-11402875Y-56394854D01*
X-11373400Y-56156088D01*
X-11356284Y-56081083D01*
X-11276970Y-55854313D01*
X-11160490Y-55639808D01*
X-11011522Y-55443429D01*
X-10834747Y-55271036D01*
X-10634844Y-55128488D01*
X-10563665Y-55088505D01*
X-10393136Y-55010738D01*
X-10221598Y-54958616D01*
X-10036552Y-54929299D01*
X-9825497Y-54919950D01*
X-9821333Y-54919947D01*
X-9613000Y-54928592D01*
G36*
X-13589000Y-58102500D02*
G01*
X-13690600Y-58102500D01*
X-13755999Y-58097492D01*
X-13805071Y-58084812D01*
X-13817600Y-58077100D01*
X-13840342Y-58035529D01*
X-13843000Y-58017833D01*
X-13826873Y-57969941D01*
X-13776919Y-57942156D01*
X-13690776Y-57933167D01*
X-13589000Y-57933167D01*
X-13589000Y-58102500D01*
G37*
X-13589000Y-58102500D02*
X-13690600Y-58102500D01*
X-13755999Y-58097492D01*
X-13805071Y-58084812D01*
X-13817600Y-58077100D01*
X-13840342Y-58035529D01*
X-13843000Y-58017833D01*
X-13826873Y-57969941D01*
X-13776919Y-57942156D01*
X-13690776Y-57933167D01*
X-13589000Y-57933167D01*
X-13589000Y-58102500D01*
G36*
X-13589000Y-58398833D02*
G01*
X-13668375Y-58396723D01*
X-13737310Y-58391276D01*
X-13797315Y-58380900D01*
X-13800666Y-58380011D01*
X-13845257Y-58351847D01*
X-13860404Y-58306758D01*
X-13857135Y-58245972D01*
X-13826886Y-58208408D01*
X-13764689Y-58190296D01*
X-13702825Y-58187167D01*
X-13589000Y-58187167D01*
X-13589000Y-58398833D01*
G37*
X-13589000Y-58398833D02*
X-13668375Y-58396723D01*
X-13737310Y-58391276D01*
X-13797315Y-58380900D01*
X-13800666Y-58380011D01*
X-13845257Y-58351847D01*
X-13860404Y-58306758D01*
X-13857135Y-58245972D01*
X-13826886Y-58208408D01*
X-13764689Y-58190296D01*
X-13702825Y-58187167D01*
X-13589000Y-58187167D01*
X-13589000Y-58398833D01*
G36*
X-17151214Y-57997749D02*
G01*
X-17130218Y-58037463D01*
X-17112499Y-58084724D01*
X-17090197Y-58151998D01*
X-17072443Y-58204579D01*
X-17065569Y-58224208D01*
X-17073528Y-58241604D01*
X-17116812Y-58249704D01*
X-17153319Y-58250667D01*
X-17210913Y-58247286D01*
X-17245920Y-58238711D01*
X-17250833Y-58233270D01*
X-17243878Y-58199339D01*
X-17226607Y-58142698D01*
X-17204409Y-58078781D01*
X-17182675Y-58023023D01*
X-17166797Y-57990858D01*
X-17165686Y-57989474D01*
X-17151214Y-57997749D01*
G37*
X-17151214Y-57997749D02*
X-17130218Y-58037463D01*
X-17112499Y-58084724D01*
X-17090197Y-58151998D01*
X-17072443Y-58204579D01*
X-17065569Y-58224208D01*
X-17073528Y-58241604D01*
X-17116812Y-58249704D01*
X-17153319Y-58250667D01*
X-17210913Y-58247286D01*
X-17245920Y-58238711D01*
X-17250833Y-58233270D01*
X-17243878Y-58199339D01*
X-17226607Y-58142698D01*
X-17204409Y-58078781D01*
X-17182675Y-58023023D01*
X-17166797Y-57990858D01*
X-17165686Y-57989474D01*
X-17151214Y-57997749D01*
G36*
X-206286Y25444348D02*
G01*
X-188431Y25394048D01*
X-171965Y25323332D01*
X-171461Y25320625D01*
X-158460Y25243986D01*
X-155121Y25198204D01*
X-162049Y25172784D01*
X-179852Y25157231D01*
X-180938Y25156583D01*
X-294182Y25079774D01*
X-366160Y25006449D01*
X-397585Y24934604D01*
X-389167Y24862234D01*
X-341616Y24787334D01*
X-320040Y24764283D01*
X-258542Y24717183D01*
X-179788Y24685341D01*
X-76319Y24666880D01*
X59325Y24659922D01*
X95250Y24659750D01*
X254032Y24670098D01*
X376137Y24700763D01*
X462240Y24752144D01*
X513020Y24824640D01*
X529167Y24915684D01*
X521616Y24973843D01*
X492759Y25021713D01*
X454347Y25059141D01*
X403342Y25098469D01*
X360912Y25121934D01*
X348514Y25124833D01*
X320910Y25141273D01*
X317500Y25154969D01*
X322341Y25198745D01*
X334534Y25262507D01*
X350586Y25331453D01*
X367003Y25390782D01*
X380291Y25425693D01*
X381974Y25428119D01*
X410268Y25431402D01*
X461116Y25412846D01*
X524893Y25378117D01*
X591973Y25332882D01*
X652732Y25282808D01*
X684642Y25249922D01*
X759001Y25131946D01*
X795849Y24995248D01*
X795342Y24839141D01*
X788642Y24792530D01*
X747062Y24645808D01*
X676492Y24528606D01*
X574822Y24438705D01*
X439943Y24373883D01*
X371261Y24353180D01*
X271979Y24335631D01*
X149052Y24325653D01*
X18853Y24323528D01*
X-102243Y24329535D01*
X-195878Y24343480D01*
X-351843Y24398623D01*
X-477614Y24482224D01*
X-571385Y24592068D01*
X-631348Y24725938D01*
X-655696Y24881617D01*
X-656166Y24908081D01*
X-643518Y25052160D01*
X-603401Y25171384D01*
X-536301Y25271292D01*
X-484624Y25320058D01*
X-414951Y25371246D01*
X-339694Y25417272D01*
X-271264Y25450551D01*
X-222073Y25463499D01*
X-221753Y25463500D01*
X-206286Y25444348D01*
G37*
X-206286Y25444348D02*
X-188431Y25394048D01*
X-171965Y25323332D01*
X-171461Y25320625D01*
X-158460Y25243986D01*
X-155121Y25198204D01*
X-162049Y25172784D01*
X-179852Y25157231D01*
X-180938Y25156583D01*
X-294182Y25079774D01*
X-366160Y25006449D01*
X-397585Y24934604D01*
X-389167Y24862234D01*
X-341616Y24787334D01*
X-320040Y24764283D01*
X-258542Y24717183D01*
X-179788Y24685341D01*
X-76319Y24666880D01*
X59325Y24659922D01*
X95250Y24659750D01*
X254032Y24670098D01*
X376137Y24700763D01*
X462240Y24752144D01*
X513020Y24824640D01*
X529167Y24915684D01*
X521616Y24973843D01*
X492759Y25021713D01*
X454347Y25059141D01*
X403342Y25098469D01*
X360912Y25121934D01*
X348514Y25124833D01*
X320910Y25141273D01*
X317500Y25154969D01*
X322341Y25198745D01*
X334534Y25262507D01*
X350586Y25331453D01*
X367003Y25390782D01*
X380291Y25425693D01*
X381974Y25428119D01*
X410268Y25431402D01*
X461116Y25412846D01*
X524893Y25378117D01*
X591973Y25332882D01*
X652732Y25282808D01*
X684642Y25249922D01*
X759001Y25131946D01*
X795849Y24995248D01*
X795342Y24839141D01*
X788642Y24792530D01*
X747062Y24645808D01*
X676492Y24528606D01*
X574822Y24438705D01*
X439943Y24373883D01*
X371261Y24353180D01*
X271979Y24335631D01*
X149052Y24325653D01*
X18853Y24323528D01*
X-102243Y24329535D01*
X-195878Y24343480D01*
X-351843Y24398623D01*
X-477614Y24482224D01*
X-571385Y24592068D01*
X-631348Y24725938D01*
X-655696Y24881617D01*
X-656166Y24908081D01*
X-643518Y25052160D01*
X-603401Y25171384D01*
X-536301Y25271292D01*
X-484624Y25320058D01*
X-414951Y25371246D01*
X-339694Y25417272D01*
X-271264Y25450551D01*
X-222073Y25463499D01*
X-221753Y25463500D01*
X-206286Y25444348D01*
G36*
X-381000Y23516167D02*
G01*
X783167Y23516167D01*
X783167Y23177500D01*
X-635000Y23177500D01*
X-635000Y24151167D01*
X-381000Y24151167D01*
X-381000Y23516167D01*
G37*
X-381000Y23516167D02*
X783167Y23516167D01*
X783167Y23177500D01*
X-635000Y23177500D01*
X-635000Y24151167D01*
X-381000Y24151167D01*
X-381000Y23516167D01*
G36*
X783167Y22140333D02*
G01*
X508000Y22140333D01*
X508000Y22436667D01*
X128378Y22436667D01*
X2059Y22435536D01*
X-112793Y22432400D01*
X-208144Y22427643D01*
X-275961Y22421648D01*
X-305799Y22415925D01*
X-356207Y22380877D01*
X-384936Y22341230D01*
X-397839Y22296735D01*
X-385124Y22256520D01*
X-366915Y22229680D01*
X-318258Y22185154D01*
X-253145Y22149488D01*
X-240807Y22145047D01*
X-157302Y22118010D01*
X-177357Y21959838D01*
X-189634Y21875183D01*
X-204410Y21826034D01*
X-228391Y21805776D01*
X-268284Y21807792D01*
X-317637Y21821444D01*
X-451394Y21880222D01*
X-551726Y21964971D01*
X-618573Y22075610D01*
X-651875Y22212058D01*
X-655930Y22288500D01*
X-639672Y22436351D01*
X-590276Y22558390D01*
X-506811Y22656278D01*
X-415379Y22718053D01*
X-386801Y22732239D01*
X-356761Y22743329D01*
X-319688Y22751787D01*
X-270011Y22758076D01*
X-202162Y22762661D01*
X-110570Y22766005D01*
X10334Y22768573D01*
X166122Y22770828D01*
X227542Y22771600D01*
X783167Y22778450D01*
X783167Y22140333D01*
G37*
X783167Y22140333D02*
X508000Y22140333D01*
X508000Y22436667D01*
X128378Y22436667D01*
X2059Y22435536D01*
X-112793Y22432400D01*
X-208144Y22427643D01*
X-275961Y22421648D01*
X-305799Y22415925D01*
X-356207Y22380877D01*
X-384936Y22341230D01*
X-397839Y22296735D01*
X-385124Y22256520D01*
X-366915Y22229680D01*
X-318258Y22185154D01*
X-253145Y22149488D01*
X-240807Y22145047D01*
X-157302Y22118010D01*
X-177357Y21959838D01*
X-189634Y21875183D01*
X-204410Y21826034D01*
X-228391Y21805776D01*
X-268284Y21807792D01*
X-317637Y21821444D01*
X-451394Y21880222D01*
X-551726Y21964971D01*
X-618573Y22075610D01*
X-651875Y22212058D01*
X-655930Y22288500D01*
X-639672Y22436351D01*
X-590276Y22558390D01*
X-506811Y22656278D01*
X-415379Y22718053D01*
X-386801Y22732239D01*
X-356761Y22743329D01*
X-319688Y22751787D01*
X-270011Y22758076D01*
X-202162Y22762661D01*
X-110570Y22766005D01*
X10334Y22768573D01*
X166122Y22770828D01*
X227542Y22771600D01*
X783167Y22778450D01*
X783167Y22140333D01*
G36*
X-206286Y21634348D02*
G01*
X-188431Y21584048D01*
X-171965Y21513332D01*
X-171461Y21510625D01*
X-158460Y21433986D01*
X-155121Y21388204D01*
X-162049Y21362784D01*
X-179852Y21347231D01*
X-180938Y21346583D01*
X-294163Y21269801D01*
X-366133Y21196519D01*
X-397564Y21124713D01*
X-389172Y21052358D01*
X-341672Y20977430D01*
X-319761Y20954004D01*
X-249091Y20902698D01*
X-154287Y20868824D01*
X-29611Y20850903D01*
X95097Y20847057D01*
X253618Y20858496D01*
X376668Y20891345D01*
X463840Y20945363D01*
X514726Y21020309D01*
X529167Y21103829D01*
X522026Y21162560D01*
X494346Y21209960D01*
X454347Y21249141D01*
X403342Y21288469D01*
X360912Y21311934D01*
X348514Y21314833D01*
X322416Y21332143D01*
X317751Y21351875D01*
X322805Y21389107D01*
X335297Y21448299D01*
X351660Y21515244D01*
X368325Y21575735D01*
X381726Y21615563D01*
X385846Y21623068D01*
X412429Y21622580D01*
X461926Y21601630D01*
X524293Y21566328D01*
X589487Y21522781D01*
X647465Y21477099D01*
X682139Y21442847D01*
X754179Y21328833D01*
X793700Y21199654D01*
X802167Y21063417D01*
X781043Y20928229D01*
X731794Y20802198D01*
X655882Y20693432D01*
X554773Y20610037D01*
X529167Y20595836D01*
X417117Y20554332D01*
X277565Y20526290D01*
X123430Y20512590D01*
X-32371Y20514109D01*
X-176917Y20531726D01*
X-231111Y20544123D01*
X-382104Y20603102D01*
X-501069Y20689574D01*
X-587044Y20802280D01*
X-639062Y20939964D01*
X-656166Y21098081D01*
X-643518Y21242160D01*
X-603401Y21361384D01*
X-536301Y21461292D01*
X-484624Y21510058D01*
X-414951Y21561246D01*
X-339694Y21607272D01*
X-271264Y21640551D01*
X-222073Y21653499D01*
X-221753Y21653500D01*
X-206286Y21634348D01*
G37*
X-206286Y21634348D02*
X-188431Y21584048D01*
X-171965Y21513332D01*
X-171461Y21510625D01*
X-158460Y21433986D01*
X-155121Y21388204D01*
X-162049Y21362784D01*
X-179852Y21347231D01*
X-180938Y21346583D01*
X-294163Y21269801D01*
X-366133Y21196519D01*
X-397564Y21124713D01*
X-389172Y21052358D01*
X-341672Y20977430D01*
X-319761Y20954004D01*
X-249091Y20902698D01*
X-154287Y20868824D01*
X-29611Y20850903D01*
X95097Y20847057D01*
X253618Y20858496D01*
X376668Y20891345D01*
X463840Y20945363D01*
X514726Y21020309D01*
X529167Y21103829D01*
X522026Y21162560D01*
X494346Y21209960D01*
X454347Y21249141D01*
X403342Y21288469D01*
X360912Y21311934D01*
X348514Y21314833D01*
X322416Y21332143D01*
X317751Y21351875D01*
X322805Y21389107D01*
X335297Y21448299D01*
X351660Y21515244D01*
X368325Y21575735D01*
X381726Y21615563D01*
X385846Y21623068D01*
X412429Y21622580D01*
X461926Y21601630D01*
X524293Y21566328D01*
X589487Y21522781D01*
X647465Y21477099D01*
X682139Y21442847D01*
X754179Y21328833D01*
X793700Y21199654D01*
X802167Y21063417D01*
X781043Y20928229D01*
X731794Y20802198D01*
X655882Y20693432D01*
X554773Y20610037D01*
X529167Y20595836D01*
X417117Y20554332D01*
X277565Y20526290D01*
X123430Y20512590D01*
X-32371Y20514109D01*
X-176917Y20531726D01*
X-231111Y20544123D01*
X-382104Y20603102D01*
X-501069Y20689574D01*
X-587044Y20802280D01*
X-639062Y20939964D01*
X-656166Y21098081D01*
X-643518Y21242160D01*
X-603401Y21361384D01*
X-536301Y21461292D01*
X-484624Y21510058D01*
X-414951Y21561246D01*
X-339694Y21607272D01*
X-271264Y21640551D01*
X-222073Y21653499D01*
X-221753Y21653500D01*
X-206286Y21634348D01*
G36*
X-381000Y19706167D02*
G01*
X783167Y19706167D01*
X783167Y19367500D01*
X-635000Y19367500D01*
X-635000Y20341167D01*
X-381000Y20341167D01*
X-381000Y19706167D01*
G37*
X-381000Y19706167D02*
X783167Y19706167D01*
X783167Y19367500D01*
X-635000Y19367500D01*
X-635000Y20341167D01*
X-381000Y20341167D01*
X-381000Y19706167D01*
G36*
X783167Y18330333D02*
G01*
X508000Y18330333D01*
X508000Y18626667D01*
X128378Y18626667D01*
X2059Y18625536D01*
X-112793Y18622400D01*
X-208144Y18617643D01*
X-275961Y18611648D01*
X-305799Y18605925D01*
X-356207Y18570877D01*
X-384936Y18531230D01*
X-391822Y18470521D01*
X-361626Y18411694D01*
X-299337Y18361337D01*
X-234905Y18333199D01*
X-175101Y18307296D01*
X-155145Y18281636D01*
X-156203Y18276420D01*
X-164205Y18241408D01*
X-173977Y18179242D01*
X-181438Y18120096D01*
X-192435Y18044805D01*
X-209508Y18005023D01*
X-241129Y17993993D01*
X-295765Y18004958D01*
X-317637Y18011444D01*
X-451394Y18070222D01*
X-551726Y18154971D01*
X-618573Y18265610D01*
X-651875Y18402058D01*
X-655930Y18478500D01*
X-639656Y18626397D01*
X-590246Y18748448D01*
X-506818Y18846228D01*
X-415379Y18907826D01*
X-386714Y18921952D01*
X-356439Y18933004D01*
X-318983Y18941448D01*
X-268773Y18947751D01*
X-200240Y18952379D01*
X-107812Y18955797D01*
X14083Y18958473D01*
X171014Y18960872D01*
X227542Y18961631D01*
X783167Y18968967D01*
X783167Y18330333D01*
G37*
X783167Y18330333D02*
X508000Y18330333D01*
X508000Y18626667D01*
X128378Y18626667D01*
X2059Y18625536D01*
X-112793Y18622400D01*
X-208144Y18617643D01*
X-275961Y18611648D01*
X-305799Y18605925D01*
X-356207Y18570877D01*
X-384936Y18531230D01*
X-391822Y18470521D01*
X-361626Y18411694D01*
X-299337Y18361337D01*
X-234905Y18333199D01*
X-175101Y18307296D01*
X-155145Y18281636D01*
X-156203Y18276420D01*
X-164205Y18241408D01*
X-173977Y18179242D01*
X-181438Y18120096D01*
X-192435Y18044805D01*
X-209508Y18005023D01*
X-241129Y17993993D01*
X-295765Y18004958D01*
X-317637Y18011444D01*
X-451394Y18070222D01*
X-551726Y18154971D01*
X-618573Y18265610D01*
X-651875Y18402058D01*
X-655930Y18478500D01*
X-639656Y18626397D01*
X-590246Y18748448D01*
X-506818Y18846228D01*
X-415379Y18907826D01*
X-386714Y18921952D01*
X-356439Y18933004D01*
X-318983Y18941448D01*
X-268773Y18947751D01*
X-200240Y18952379D01*
X-107812Y18955797D01*
X14083Y18958473D01*
X171014Y18960872D01*
X227542Y18961631D01*
X783167Y18968967D01*
X783167Y18330333D01*
G36*
X-201823Y17824844D02*
G01*
X-185917Y17778571D01*
X-183185Y17764125D01*
X-170512Y17689854D01*
X-157418Y17619718D01*
X-156990Y17617574D01*
X-152100Y17573477D01*
X-166017Y17544945D01*
X-207584Y17517862D01*
X-225219Y17508701D01*
X-315002Y17452224D01*
X-367937Y17390282D01*
X-389470Y17315650D01*
X-390621Y17289310D01*
X-371446Y17201806D01*
X-314854Y17131922D01*
X-222250Y17080392D01*
X-95034Y17047946D01*
X65390Y17035316D01*
X96427Y17035196D01*
X252494Y17047146D01*
X374840Y17080511D01*
X462406Y17134661D01*
X514132Y17208968D01*
X529167Y17292061D01*
X509698Y17370045D01*
X457861Y17438993D01*
X383510Y17486817D01*
X365125Y17493299D01*
X328119Y17517855D01*
X317751Y17543302D01*
X322823Y17580022D01*
X335349Y17638830D01*
X351739Y17705504D01*
X368404Y17765821D01*
X381753Y17805559D01*
X385846Y17813068D01*
X407466Y17809088D01*
X455315Y17790917D01*
X499486Y17771426D01*
X623088Y17692411D01*
X716078Y17586460D01*
X775929Y17458313D01*
X800113Y17312710D01*
X796032Y17215275D01*
X762333Y17060116D01*
X700120Y16935080D01*
X607356Y16837261D01*
X482005Y16763750D01*
X478753Y16762336D01*
X388497Y16735276D01*
X269636Y16716339D01*
X135213Y16706069D01*
X-1726Y16705010D01*
X-128137Y16713706D01*
X-230977Y16732701D01*
X-231111Y16732739D01*
X-383133Y16793573D01*
X-502347Y16880966D01*
X-588053Y16994005D01*
X-639554Y17131777D01*
X-656166Y17288081D01*
X-643518Y17432160D01*
X-603401Y17551384D01*
X-536301Y17651292D01*
X-484191Y17700461D01*
X-414107Y17751850D01*
X-338495Y17797875D01*
X-269806Y17830953D01*
X-220799Y17843500D01*
X-201823Y17824844D01*
G37*
X-201823Y17824844D02*
X-185917Y17778571D01*
X-183185Y17764125D01*
X-170512Y17689854D01*
X-157418Y17619718D01*
X-156990Y17617574D01*
X-152100Y17573477D01*
X-166017Y17544945D01*
X-207584Y17517862D01*
X-225219Y17508701D01*
X-315002Y17452224D01*
X-367937Y17390282D01*
X-389470Y17315650D01*
X-390621Y17289310D01*
X-371446Y17201806D01*
X-314854Y17131922D01*
X-222250Y17080392D01*
X-95034Y17047946D01*
X65390Y17035316D01*
X96427Y17035196D01*
X252494Y17047146D01*
X374840Y17080511D01*
X462406Y17134661D01*
X514132Y17208968D01*
X529167Y17292061D01*
X509698Y17370045D01*
X457861Y17438993D01*
X383510Y17486817D01*
X365125Y17493299D01*
X328119Y17517855D01*
X317751Y17543302D01*
X322823Y17580022D01*
X335349Y17638830D01*
X351739Y17705504D01*
X368404Y17765821D01*
X381753Y17805559D01*
X385846Y17813068D01*
X407466Y17809088D01*
X455315Y17790917D01*
X499486Y17771426D01*
X623088Y17692411D01*
X716078Y17586460D01*
X775929Y17458313D01*
X800113Y17312710D01*
X796032Y17215275D01*
X762333Y17060116D01*
X700120Y16935080D01*
X607356Y16837261D01*
X482005Y16763750D01*
X478753Y16762336D01*
X388497Y16735276D01*
X269636Y16716339D01*
X135213Y16706069D01*
X-1726Y16705010D01*
X-128137Y16713706D01*
X-230977Y16732701D01*
X-231111Y16732739D01*
X-383133Y16793573D01*
X-502347Y16880966D01*
X-588053Y16994005D01*
X-639554Y17131777D01*
X-656166Y17288081D01*
X-643518Y17432160D01*
X-603401Y17551384D01*
X-536301Y17651292D01*
X-484191Y17700461D01*
X-414107Y17751850D01*
X-338495Y17797875D01*
X-269806Y17830953D01*
X-220799Y17843500D01*
X-201823Y17824844D01*
G36*
X-381000Y15896167D02*
G01*
X783167Y15896167D01*
X783167Y15557500D01*
X-635000Y15557500D01*
X-635000Y16531167D01*
X-381000Y16531167D01*
X-381000Y15896167D01*
G37*
X-381000Y15896167D02*
X783167Y15896167D01*
X783167Y15557500D01*
X-635000Y15557500D01*
X-635000Y16531167D01*
X-381000Y16531167D01*
X-381000Y15896167D01*
G36*
X783167Y14520333D02*
G01*
X508000Y14520333D01*
X508000Y14816667D01*
X125949Y14816667D01*
X-33313Y14815427D01*
X-155530Y14810978D01*
X-245937Y14802229D01*
X-309768Y14788087D01*
X-352260Y14767459D01*
X-378646Y14739254D01*
X-392317Y14708522D01*
X-389767Y14651953D01*
X-352907Y14594639D01*
X-288754Y14544995D01*
X-235779Y14520839D01*
X-181497Y14495722D01*
X-157029Y14471339D01*
X-157109Y14464060D01*
X-164606Y14430421D01*
X-174027Y14369310D01*
X-181438Y14310096D01*
X-193380Y14236109D01*
X-213422Y14193986D01*
X-248706Y14181076D01*
X-306374Y14194727D01*
X-392448Y14231766D01*
X-509479Y14305054D01*
X-591548Y14400666D01*
X-639938Y14520726D01*
X-655930Y14667359D01*
X-655930Y14668500D01*
X-639656Y14816397D01*
X-590246Y14938448D01*
X-506818Y15036228D01*
X-415379Y15097826D01*
X-386714Y15111952D01*
X-356439Y15123004D01*
X-318983Y15131448D01*
X-268773Y15137751D01*
X-200240Y15142379D01*
X-107812Y15145797D01*
X14083Y15148473D01*
X171014Y15150872D01*
X227542Y15151631D01*
X783167Y15158967D01*
X783167Y14520333D01*
G37*
X783167Y14520333D02*
X508000Y14520333D01*
X508000Y14816667D01*
X125949Y14816667D01*
X-33313Y14815427D01*
X-155530Y14810978D01*
X-245937Y14802229D01*
X-309768Y14788087D01*
X-352260Y14767459D01*
X-378646Y14739254D01*
X-392317Y14708522D01*
X-389767Y14651953D01*
X-352907Y14594639D01*
X-288754Y14544995D01*
X-235779Y14520839D01*
X-181497Y14495722D01*
X-157029Y14471339D01*
X-157109Y14464060D01*
X-164606Y14430421D01*
X-174027Y14369310D01*
X-181438Y14310096D01*
X-193380Y14236109D01*
X-213422Y14193986D01*
X-248706Y14181076D01*
X-306374Y14194727D01*
X-392448Y14231766D01*
X-509479Y14305054D01*
X-591548Y14400666D01*
X-639938Y14520726D01*
X-655930Y14667359D01*
X-655930Y14668500D01*
X-639656Y14816397D01*
X-590246Y14938448D01*
X-506818Y15036228D01*
X-415379Y15097826D01*
X-386714Y15111952D01*
X-356439Y15123004D01*
X-318983Y15131448D01*
X-268773Y15137751D01*
X-200240Y15142379D01*
X-107812Y15145797D01*
X14083Y15148473D01*
X171014Y15150872D01*
X227542Y15151631D01*
X783167Y15158967D01*
X783167Y14520333D01*
G36*
X-196705Y14008970D02*
G01*
X-184439Y13961744D01*
X-183185Y13954125D01*
X-170512Y13879854D01*
X-157418Y13809718D01*
X-156990Y13807574D01*
X-152100Y13763477D01*
X-166017Y13734945D01*
X-207584Y13707862D01*
X-225219Y13698701D01*
X-315872Y13641317D01*
X-369127Y13578179D01*
X-389914Y13502863D01*
X-390621Y13483167D01*
X-371356Y13394217D01*
X-315069Y13322374D01*
X-224025Y13268973D01*
X-100487Y13235350D01*
X50883Y13222862D01*
X218978Y13231266D01*
X351186Y13260411D01*
X447156Y13310107D01*
X506534Y13380164D01*
X528969Y13470392D01*
X529167Y13480831D01*
X509637Y13560012D01*
X457485Y13629469D01*
X382362Y13677287D01*
X365125Y13683299D01*
X328119Y13707855D01*
X317751Y13733302D01*
X322792Y13769672D01*
X335242Y13828235D01*
X351531Y13894781D01*
X368086Y13955100D01*
X381335Y13994983D01*
X385465Y14002688D01*
X409935Y14000746D01*
X458094Y13981414D01*
X518382Y13950743D01*
X579239Y13914789D01*
X629107Y13879605D01*
X642230Y13868211D01*
X721077Y13774481D01*
X769186Y13667608D01*
X790381Y13537768D01*
X792161Y13483167D01*
X784533Y13342500D01*
X757518Y13230170D01*
X707649Y13135287D01*
X664019Y13080764D01*
X585596Y13009023D01*
X494534Y12957350D01*
X383137Y12923120D01*
X243710Y12903706D01*
X127000Y12897574D01*
X-21380Y12896928D01*
X-136399Y12904727D01*
X-226292Y12921554D01*
X-231111Y12922876D01*
X-382944Y12983058D01*
X-501403Y13069281D01*
X-586429Y13181466D01*
X-637962Y13319530D01*
X-655940Y13483394D01*
X-655960Y13491120D01*
X-636467Y13644059D01*
X-579692Y13777952D01*
X-487413Y13890070D01*
X-361411Y13977684D01*
X-328083Y13993975D01*
X-259343Y14022560D01*
X-218612Y14028400D01*
X-196705Y14008970D01*
G37*
X-196705Y14008970D02*
X-184439Y13961744D01*
X-183185Y13954125D01*
X-170512Y13879854D01*
X-157418Y13809718D01*
X-156990Y13807574D01*
X-152100Y13763477D01*
X-166017Y13734945D01*
X-207584Y13707862D01*
X-225219Y13698701D01*
X-315872Y13641317D01*
X-369127Y13578179D01*
X-389914Y13502863D01*
X-390621Y13483167D01*
X-371356Y13394217D01*
X-315069Y13322374D01*
X-224025Y13268973D01*
X-100487Y13235350D01*
X50883Y13222862D01*
X218978Y13231266D01*
X351186Y13260411D01*
X447156Y13310107D01*
X506534Y13380164D01*
X528969Y13470392D01*
X529167Y13480831D01*
X509637Y13560012D01*
X457485Y13629469D01*
X382362Y13677287D01*
X365125Y13683299D01*
X328119Y13707855D01*
X317751Y13733302D01*
X322792Y13769672D01*
X335242Y13828235D01*
X351531Y13894781D01*
X368086Y13955100D01*
X381335Y13994983D01*
X385465Y14002688D01*
X409935Y14000746D01*
X458094Y13981414D01*
X518382Y13950743D01*
X579239Y13914789D01*
X629107Y13879605D01*
X642230Y13868211D01*
X721077Y13774481D01*
X769186Y13667608D01*
X790381Y13537768D01*
X792161Y13483167D01*
X784533Y13342500D01*
X757518Y13230170D01*
X707649Y13135287D01*
X664019Y13080764D01*
X585596Y13009023D01*
X494534Y12957350D01*
X383137Y12923120D01*
X243710Y12903706D01*
X127000Y12897574D01*
X-21380Y12896928D01*
X-136399Y12904727D01*
X-226292Y12921554D01*
X-231111Y12922876D01*
X-382944Y12983058D01*
X-501403Y13069281D01*
X-586429Y13181466D01*
X-637962Y13319530D01*
X-655940Y13483394D01*
X-655960Y13491120D01*
X-636467Y13644059D01*
X-579692Y13777952D01*
X-487413Y13890070D01*
X-361411Y13977684D01*
X-328083Y13993975D01*
X-259343Y14022560D01*
X-218612Y14028400D01*
X-196705Y14008970D01*
G36*
X-381000Y12086167D02*
G01*
X783167Y12086167D01*
X783167Y11747500D01*
X-635000Y11747500D01*
X-635000Y12721167D01*
X-381000Y12721167D01*
X-381000Y12086167D01*
G37*
X-381000Y12086167D02*
X783167Y12086167D01*
X783167Y11747500D01*
X-635000Y11747500D01*
X-635000Y12721167D01*
X-381000Y12721167D01*
X-381000Y12086167D01*
G36*
X783167Y10710333D02*
G01*
X508000Y10710333D01*
X508000Y11006667D01*
X125949Y11006667D01*
X-33313Y11005427D01*
X-155530Y11000978D01*
X-245937Y10992229D01*
X-309768Y10978087D01*
X-352260Y10957459D01*
X-378646Y10929254D01*
X-392317Y10898522D01*
X-389767Y10841953D01*
X-352907Y10784639D01*
X-288754Y10734995D01*
X-235779Y10710839D01*
X-181497Y10685722D01*
X-157029Y10661339D01*
X-157109Y10654060D01*
X-164606Y10620421D01*
X-174027Y10559310D01*
X-181438Y10500096D01*
X-193380Y10426109D01*
X-213422Y10383986D01*
X-248706Y10371076D01*
X-306374Y10384727D01*
X-392448Y10421766D01*
X-509479Y10495054D01*
X-591548Y10590666D01*
X-639938Y10710726D01*
X-655930Y10857359D01*
X-655930Y10858500D01*
X-638900Y11005843D01*
X-588759Y11129371D01*
X-506934Y11226684D01*
X-396605Y11294637D01*
X-363329Y11306729D01*
X-322920Y11316278D01*
X-269795Y11323691D01*
X-198372Y11329376D01*
X-103068Y11333740D01*
X21700Y11337193D01*
X181514Y11340141D01*
X238125Y11341003D01*
X783167Y11349018D01*
X783167Y10710333D01*
G37*
X783167Y10710333D02*
X508000Y10710333D01*
X508000Y11006667D01*
X125949Y11006667D01*
X-33313Y11005427D01*
X-155530Y11000978D01*
X-245937Y10992229D01*
X-309768Y10978087D01*
X-352260Y10957459D01*
X-378646Y10929254D01*
X-392317Y10898522D01*
X-389767Y10841953D01*
X-352907Y10784639D01*
X-288754Y10734995D01*
X-235779Y10710839D01*
X-181497Y10685722D01*
X-157029Y10661339D01*
X-157109Y10654060D01*
X-164606Y10620421D01*
X-174027Y10559310D01*
X-181438Y10500096D01*
X-193380Y10426109D01*
X-213422Y10383986D01*
X-248706Y10371076D01*
X-306374Y10384727D01*
X-392448Y10421766D01*
X-509479Y10495054D01*
X-591548Y10590666D01*
X-639938Y10710726D01*
X-655930Y10857359D01*
X-655930Y10858500D01*
X-638900Y11005843D01*
X-588759Y11129371D01*
X-506934Y11226684D01*
X-396605Y11294637D01*
X-363329Y11306729D01*
X-322920Y11316278D01*
X-269795Y11323691D01*
X-198372Y11329376D01*
X-103068Y11333740D01*
X21700Y11337193D01*
X181514Y11340141D01*
X238125Y11341003D01*
X783167Y11349018D01*
X783167Y10710333D01*
G36*
X17272000Y-51964167D02*
G01*
X17018000Y-51964167D01*
X17018000Y-51752500D01*
X17272000Y-51752500D01*
X17272000Y-51964167D01*
G37*
X17272000Y-51964167D02*
X17018000Y-51964167D01*
X17018000Y-51752500D01*
X17272000Y-51752500D01*
X17272000Y-51964167D01*
G36*
X15134167Y-51964167D02*
G01*
X14859000Y-51964167D01*
X14859000Y-51752500D01*
X15134167Y-51752500D01*
X15134167Y-51964167D01*
G37*
X15134167Y-51964167D02*
X14859000Y-51964167D01*
X14859000Y-51752500D01*
X15134167Y-51752500D01*
X15134167Y-51964167D01*
G36*
X6519334Y-51964167D02*
G01*
X6265334Y-51964167D01*
X6265334Y-51752500D01*
X6519334Y-51752500D01*
X6519334Y-51964167D01*
G37*
X6519334Y-51964167D02*
X6265334Y-51964167D01*
X6265334Y-51752500D01*
X6519334Y-51752500D01*
X6519334Y-51964167D01*
G36*
X-3153833Y-51964167D02*
G01*
X-3407833Y-51964167D01*
X-3407833Y-51752500D01*
X-3153833Y-51752500D01*
X-3153833Y-51964167D01*
G37*
X-3153833Y-51964167D02*
X-3407833Y-51964167D01*
X-3407833Y-51752500D01*
X-3153833Y-51752500D01*
X-3153833Y-51964167D01*
G36*
X-5291666Y-51964167D02*
G01*
X-5566833Y-51964167D01*
X-5566833Y-51752500D01*
X-5291666Y-51752500D01*
X-5291666Y-51964167D01*
G37*
X-5291666Y-51964167D02*
X-5566833Y-51964167D01*
X-5566833Y-51752500D01*
X-5291666Y-51752500D01*
X-5291666Y-51964167D01*
G36*
X-9609666Y-51964167D02*
G01*
X-9863666Y-51964167D01*
X-9863666Y-51752500D01*
X-9609666Y-51752500D01*
X-9609666Y-51964167D01*
G37*
X-9609666Y-51964167D02*
X-9863666Y-51964167D01*
X-9863666Y-51752500D01*
X-9609666Y-51752500D01*
X-9609666Y-51964167D01*
G36*
X18109284Y-52101269D02*
G01*
X18209677Y-52130369D01*
X18277561Y-52176658D01*
X18291936Y-52195437D01*
X18321230Y-52232591D01*
X18341353Y-52230131D01*
X18356603Y-52186799D01*
X18358909Y-52175833D01*
X18367954Y-52140956D01*
X18384550Y-52121969D01*
X18419548Y-52114042D01*
X18483798Y-52112349D01*
X18501605Y-52112333D01*
X18631602Y-52112333D01*
X18616660Y-52170542D01*
X18611483Y-52209329D01*
X18605927Y-52282829D01*
X18600405Y-52383429D01*
X18595331Y-52503515D01*
X18591117Y-52635474D01*
X18590817Y-52646792D01*
X18579916Y-53064833D01*
X18309167Y-53064833D01*
X18309167Y-52808740D01*
X18304375Y-52649940D01*
X18288093Y-52528258D01*
X18257463Y-52439367D01*
X18209624Y-52378942D01*
X18141719Y-52342656D01*
X18050887Y-52326183D01*
X17988812Y-52324000D01*
X17843500Y-52324000D01*
X17843500Y-52091167D01*
X17981763Y-52091167D01*
X18109284Y-52101269D01*
G37*
X18109284Y-52101269D02*
X18209677Y-52130369D01*
X18277561Y-52176658D01*
X18291936Y-52195437D01*
X18321230Y-52232591D01*
X18341353Y-52230131D01*
X18356603Y-52186799D01*
X18358909Y-52175833D01*
X18367954Y-52140956D01*
X18384550Y-52121969D01*
X18419548Y-52114042D01*
X18483798Y-52112349D01*
X18501605Y-52112333D01*
X18631602Y-52112333D01*
X18616660Y-52170542D01*
X18611483Y-52209329D01*
X18605927Y-52282829D01*
X18600405Y-52383429D01*
X18595331Y-52503515D01*
X18591117Y-52635474D01*
X18590817Y-52646792D01*
X18579916Y-53064833D01*
X18309167Y-53064833D01*
X18309167Y-52808740D01*
X18304375Y-52649940D01*
X18288093Y-52528258D01*
X18257463Y-52439367D01*
X18209624Y-52378942D01*
X18141719Y-52342656D01*
X18050887Y-52326183D01*
X17988812Y-52324000D01*
X17843500Y-52324000D01*
X17843500Y-52091167D01*
X17981763Y-52091167D01*
X18109284Y-52101269D01*
G36*
X17526000Y-52302833D02*
G01*
X17272000Y-52302833D01*
X17272000Y-52895500D01*
X17631834Y-52895500D01*
X17631834Y-53064833D01*
X16700500Y-53064833D01*
X16700500Y-52895500D01*
X17018000Y-52895500D01*
X17018000Y-52112333D01*
X17526000Y-52112333D01*
X17526000Y-52302833D01*
G37*
X17526000Y-52302833D02*
X17272000Y-52302833D01*
X17272000Y-52895500D01*
X17631834Y-52895500D01*
X17631834Y-53064833D01*
X16700500Y-53064833D01*
X16700500Y-52895500D01*
X17018000Y-52895500D01*
X17018000Y-52112333D01*
X17526000Y-52112333D01*
X17526000Y-52302833D01*
G36*
X15388167Y-52302833D02*
G01*
X15134167Y-52302833D01*
X15134167Y-52895500D01*
X15472834Y-52895500D01*
X15472834Y-53064833D01*
X14562667Y-53064833D01*
X14562667Y-52895500D01*
X14859000Y-52895500D01*
X14859000Y-52112333D01*
X15388167Y-52112333D01*
X15388167Y-52302833D01*
G37*
X15388167Y-52302833D02*
X15134167Y-52302833D01*
X15134167Y-52895500D01*
X15472834Y-52895500D01*
X15472834Y-53064833D01*
X14562667Y-53064833D01*
X14562667Y-52895500D01*
X14859000Y-52895500D01*
X14859000Y-52112333D01*
X15388167Y-52112333D01*
X15388167Y-52302833D01*
G36*
X13926987Y-52103632D02*
G01*
X14014685Y-52143821D01*
X14066061Y-52189292D01*
X14118167Y-52245515D01*
X14118167Y-52112333D01*
X14258015Y-52112333D01*
X14332938Y-52113745D01*
X14373440Y-52119362D01*
X14387375Y-52131255D01*
X14385015Y-52145814D01*
X14381161Y-52176325D01*
X14377770Y-52242333D01*
X14375025Y-52337001D01*
X14373110Y-52453494D01*
X14372212Y-52584977D01*
X14372167Y-52622064D01*
X14372167Y-53064833D01*
X14118167Y-53064833D01*
X14118049Y-52805542D01*
X14114074Y-52639658D01*
X14101306Y-52511691D01*
X14078222Y-52417855D01*
X14043300Y-52354364D01*
X13995019Y-52317431D01*
X13931856Y-52303269D01*
X13916003Y-52302833D01*
X13870146Y-52308749D01*
X13835515Y-52329730D01*
X13810652Y-52370628D01*
X13794100Y-52436297D01*
X13784401Y-52531587D01*
X13780098Y-52661351D01*
X13779500Y-52757237D01*
X13779500Y-53064833D01*
X13525500Y-53064833D01*
X13525500Y-52676380D01*
X13525765Y-52538343D01*
X13527037Y-52435807D01*
X13530032Y-52361942D01*
X13535467Y-52309918D01*
X13544059Y-52272904D01*
X13556525Y-52244069D01*
X13573579Y-52216582D01*
X13573760Y-52216313D01*
X13641456Y-52141493D01*
X13724457Y-52101673D01*
X13815164Y-52091479D01*
X13926987Y-52103632D01*
G37*
X13926987Y-52103632D02*
X14014685Y-52143821D01*
X14066061Y-52189292D01*
X14118167Y-52245515D01*
X14118167Y-52112333D01*
X14258015Y-52112333D01*
X14332938Y-52113745D01*
X14373440Y-52119362D01*
X14387375Y-52131255D01*
X14385015Y-52145814D01*
X14381161Y-52176325D01*
X14377770Y-52242333D01*
X14375025Y-52337001D01*
X14373110Y-52453494D01*
X14372212Y-52584977D01*
X14372167Y-52622064D01*
X14372167Y-53064833D01*
X14118167Y-53064833D01*
X14118049Y-52805542D01*
X14114074Y-52639658D01*
X14101306Y-52511691D01*
X14078222Y-52417855D01*
X14043300Y-52354364D01*
X13995019Y-52317431D01*
X13931856Y-52303269D01*
X13916003Y-52302833D01*
X13870146Y-52308749D01*
X13835515Y-52329730D01*
X13810652Y-52370628D01*
X13794100Y-52436297D01*
X13784401Y-52531587D01*
X13780098Y-52661351D01*
X13779500Y-52757237D01*
X13779500Y-53064833D01*
X13525500Y-53064833D01*
X13525500Y-52676380D01*
X13525765Y-52538343D01*
X13527037Y-52435807D01*
X13530032Y-52361942D01*
X13535467Y-52309918D01*
X13544059Y-52272904D01*
X13556525Y-52244069D01*
X13573579Y-52216582D01*
X13573760Y-52216313D01*
X13641456Y-52141493D01*
X13724457Y-52101673D01*
X13815164Y-52091479D01*
X13926987Y-52103632D01*
G36*
X12149667Y-51943000D02*
G01*
X11895667Y-51943000D01*
X11895355Y-52403375D01*
X11894808Y-52567394D01*
X11892642Y-52694789D01*
X11887696Y-52791270D01*
X11878806Y-52862543D01*
X11864812Y-52914318D01*
X11844551Y-52952300D01*
X11816861Y-52982200D01*
X11780580Y-53009723D01*
X11770520Y-53016573D01*
X11728484Y-53040726D01*
X11682427Y-53055314D01*
X11620261Y-53062587D01*
X11529903Y-53064799D01*
X11511537Y-53064833D01*
X11324167Y-53064833D01*
X11324167Y-52901379D01*
X11455566Y-52889465D01*
X11546229Y-52875791D01*
X11600194Y-52853792D01*
X11614316Y-52840146D01*
X11623447Y-52816404D01*
X11630489Y-52770516D01*
X11635638Y-52698480D01*
X11639087Y-52596293D01*
X11641031Y-52459953D01*
X11641666Y-52285457D01*
X11641667Y-52277621D01*
X11641667Y-51752500D01*
X12149667Y-51752500D01*
X12149667Y-51943000D01*
G37*
X12149667Y-51943000D02*
X11895667Y-51943000D01*
X11895355Y-52403375D01*
X11894808Y-52567394D01*
X11892642Y-52694789D01*
X11887696Y-52791270D01*
X11878806Y-52862543D01*
X11864812Y-52914318D01*
X11844551Y-52952300D01*
X11816861Y-52982200D01*
X11780580Y-53009723D01*
X11770520Y-53016573D01*
X11728484Y-53040726D01*
X11682427Y-53055314D01*
X11620261Y-53062587D01*
X11529903Y-53064799D01*
X11511537Y-53064833D01*
X11324167Y-53064833D01*
X11324167Y-52901379D01*
X11455566Y-52889465D01*
X11546229Y-52875791D01*
X11600194Y-52853792D01*
X11614316Y-52840146D01*
X11623447Y-52816404D01*
X11630489Y-52770516D01*
X11635638Y-52698480D01*
X11639087Y-52596293D01*
X11641031Y-52459953D01*
X11641666Y-52285457D01*
X11641667Y-52277621D01*
X11641667Y-51752500D01*
X12149667Y-51752500D01*
X12149667Y-51943000D01*
G36*
X6773334Y-52302833D02*
G01*
X6519334Y-52302833D01*
X6519334Y-52895500D01*
X6879167Y-52895500D01*
X6879167Y-53064833D01*
X5947834Y-53064833D01*
X5947834Y-52895500D01*
X6265334Y-52895500D01*
X6265334Y-52112333D01*
X6773334Y-52112333D01*
X6773334Y-52302833D01*
G37*
X6773334Y-52302833D02*
X6519334Y-52302833D01*
X6519334Y-52895500D01*
X6879167Y-52895500D01*
X6879167Y-53064833D01*
X5947834Y-53064833D01*
X5947834Y-52895500D01*
X6265334Y-52895500D01*
X6265334Y-52112333D01*
X6773334Y-52112333D01*
X6773334Y-52302833D01*
G36*
X4223283Y-52097292D02*
G01*
X4282350Y-52114919D01*
X4329634Y-52145807D01*
X4382528Y-52189035D01*
X4386792Y-52192963D01*
X4445000Y-52247253D01*
X4445000Y-52112333D01*
X4699000Y-52112333D01*
X4699000Y-53064833D01*
X4423834Y-53064833D01*
X4423834Y-52748957D01*
X4423578Y-52626920D01*
X4422063Y-52539522D01*
X4418167Y-52479070D01*
X4410768Y-52437869D01*
X4398743Y-52408226D01*
X4380969Y-52382447D01*
X4368101Y-52366847D01*
X4323124Y-52322576D01*
X4278112Y-52306463D01*
X4236296Y-52307015D01*
X4192031Y-52314607D01*
X4159063Y-52332537D01*
X4135764Y-52366277D01*
X4120503Y-52421295D01*
X4111649Y-52503063D01*
X4107572Y-52617051D01*
X4106646Y-52742042D01*
X4106334Y-53064833D01*
X3826446Y-53064833D01*
X3834985Y-52689125D01*
X3840013Y-52528712D01*
X3847888Y-52404713D01*
X3860107Y-52311231D01*
X3878167Y-52242369D01*
X3903567Y-52192229D01*
X3937804Y-52154913D01*
X3977650Y-52127278D01*
X4047603Y-52102414D01*
X4136148Y-52092148D01*
X4223283Y-52097292D01*
G37*
X4223283Y-52097292D02*
X4282350Y-52114919D01*
X4329634Y-52145807D01*
X4382528Y-52189035D01*
X4386792Y-52192963D01*
X4445000Y-52247253D01*
X4445000Y-52112333D01*
X4699000Y-52112333D01*
X4699000Y-53064833D01*
X4423834Y-53064833D01*
X4423834Y-52748957D01*
X4423578Y-52626920D01*
X4422063Y-52539522D01*
X4418167Y-52479070D01*
X4410768Y-52437869D01*
X4398743Y-52408226D01*
X4380969Y-52382447D01*
X4368101Y-52366847D01*
X4323124Y-52322576D01*
X4278112Y-52306463D01*
X4236296Y-52307015D01*
X4192031Y-52314607D01*
X4159063Y-52332537D01*
X4135764Y-52366277D01*
X4120503Y-52421295D01*
X4111649Y-52503063D01*
X4107572Y-52617051D01*
X4106646Y-52742042D01*
X4106334Y-53064833D01*
X3826446Y-53064833D01*
X3834985Y-52689125D01*
X3840013Y-52528712D01*
X3847888Y-52404713D01*
X3860107Y-52311231D01*
X3878167Y-52242369D01*
X3903567Y-52192229D01*
X3937804Y-52154913D01*
X3977650Y-52127278D01*
X4047603Y-52102414D01*
X4136148Y-52092148D01*
X4223283Y-52097292D01*
G36*
X-677333Y-53064833D02*
G01*
X-1566333Y-53064833D01*
X-1566333Y-52853167D01*
X-952500Y-52853167D01*
X-952500Y-52578000D01*
X-1481666Y-52578000D01*
X-1481666Y-52345167D01*
X-952500Y-52345167D01*
X-952500Y-52091167D01*
X-1545166Y-52091167D01*
X-1545166Y-51879500D01*
X-677333Y-51879500D01*
X-677333Y-53064833D01*
G37*
X-677333Y-53064833D02*
X-1566333Y-53064833D01*
X-1566333Y-52853167D01*
X-952500Y-52853167D01*
X-952500Y-52578000D01*
X-1481666Y-52578000D01*
X-1481666Y-52345167D01*
X-952500Y-52345167D01*
X-952500Y-52091167D01*
X-1545166Y-52091167D01*
X-1545166Y-51879500D01*
X-677333Y-51879500D01*
X-677333Y-53064833D01*
G36*
X-2010603Y-52099417D02*
G01*
X-1961595Y-52131243D01*
X-1938631Y-52156291D01*
X-1883833Y-52221415D01*
X-1883833Y-52166874D01*
X-1880114Y-52133247D01*
X-1861370Y-52117316D01*
X-1816222Y-52112563D01*
X-1788583Y-52112333D01*
X-1693333Y-52112333D01*
X-1693333Y-53064833D01*
X-1900029Y-53064833D01*
X-1908376Y-52719074D01*
X-1912332Y-52584360D01*
X-1917255Y-52485085D01*
X-1923935Y-52414359D01*
X-1933162Y-52365287D01*
X-1945725Y-52330977D01*
X-1954611Y-52315491D01*
X-1984805Y-52277954D01*
X-2009299Y-52273960D01*
X-2022833Y-52282842D01*
X-2034143Y-52300305D01*
X-2042397Y-52334809D01*
X-2048005Y-52391839D01*
X-2051381Y-52476878D01*
X-2052936Y-52595408D01*
X-2053166Y-52686425D01*
X-2053166Y-53064833D01*
X-2286000Y-53064833D01*
X-2286000Y-52736070D01*
X-2289077Y-52563169D01*
X-2298484Y-52430669D01*
X-2314485Y-52337073D01*
X-2337346Y-52280887D01*
X-2367330Y-52260615D01*
X-2370110Y-52260500D01*
X-2392736Y-52272631D01*
X-2409920Y-52311312D01*
X-2422144Y-52379974D01*
X-2429888Y-52482047D01*
X-2433635Y-52620960D01*
X-2434166Y-52716961D01*
X-2434166Y-53064833D01*
X-2645833Y-53064833D01*
X-2645833Y-52665825D01*
X-2644672Y-52494153D01*
X-2640117Y-52360187D01*
X-2630560Y-52259337D01*
X-2614394Y-52187014D01*
X-2590010Y-52138628D01*
X-2555800Y-52109589D01*
X-2510157Y-52095308D01*
X-2451472Y-52091195D01*
X-2444513Y-52091167D01*
X-2372195Y-52104298D01*
X-2309155Y-52149436D01*
X-2307135Y-52151442D01*
X-2246859Y-52211717D01*
X-2202296Y-52151442D01*
X-2160283Y-52108778D01*
X-2107839Y-52092514D01*
X-2075581Y-52091167D01*
X-2010603Y-52099417D01*
G37*
X-2010603Y-52099417D02*
X-1961595Y-52131243D01*
X-1938631Y-52156291D01*
X-1883833Y-52221415D01*
X-1883833Y-52166874D01*
X-1880114Y-52133247D01*
X-1861370Y-52117316D01*
X-1816222Y-52112563D01*
X-1788583Y-52112333D01*
X-1693333Y-52112333D01*
X-1693333Y-53064833D01*
X-1900029Y-53064833D01*
X-1908376Y-52719074D01*
X-1912332Y-52584360D01*
X-1917255Y-52485085D01*
X-1923935Y-52414359D01*
X-1933162Y-52365287D01*
X-1945725Y-52330977D01*
X-1954611Y-52315491D01*
X-1984805Y-52277954D01*
X-2009299Y-52273960D01*
X-2022833Y-52282842D01*
X-2034143Y-52300305D01*
X-2042397Y-52334809D01*
X-2048005Y-52391839D01*
X-2051381Y-52476878D01*
X-2052936Y-52595408D01*
X-2053166Y-52686425D01*
X-2053166Y-53064833D01*
X-2286000Y-53064833D01*
X-2286000Y-52736070D01*
X-2289077Y-52563169D01*
X-2298484Y-52430669D01*
X-2314485Y-52337073D01*
X-2337346Y-52280887D01*
X-2367330Y-52260615D01*
X-2370110Y-52260500D01*
X-2392736Y-52272631D01*
X-2409920Y-52311312D01*
X-2422144Y-52379974D01*
X-2429888Y-52482047D01*
X-2433635Y-52620960D01*
X-2434166Y-52716961D01*
X-2434166Y-53064833D01*
X-2645833Y-53064833D01*
X-2645833Y-52665825D01*
X-2644672Y-52494153D01*
X-2640117Y-52360187D01*
X-2630560Y-52259337D01*
X-2614394Y-52187014D01*
X-2590010Y-52138628D01*
X-2555800Y-52109589D01*
X-2510157Y-52095308D01*
X-2451472Y-52091195D01*
X-2444513Y-52091167D01*
X-2372195Y-52104298D01*
X-2309155Y-52149436D01*
X-2307135Y-52151442D01*
X-2246859Y-52211717D01*
X-2202296Y-52151442D01*
X-2160283Y-52108778D01*
X-2107839Y-52092514D01*
X-2075581Y-52091167D01*
X-2010603Y-52099417D01*
G36*
X-2899833Y-52302833D02*
G01*
X-3153833Y-52302833D01*
X-3153833Y-52895500D01*
X-2794000Y-52895500D01*
X-2794000Y-53064833D01*
X-3725333Y-53064833D01*
X-3725333Y-52895500D01*
X-3407833Y-52895500D01*
X-3407833Y-52112333D01*
X-2899833Y-52112333D01*
X-2899833Y-52302833D01*
G37*
X-2899833Y-52302833D02*
X-3153833Y-52302833D01*
X-3153833Y-52895500D01*
X-2794000Y-52895500D01*
X-2794000Y-53064833D01*
X-3725333Y-53064833D01*
X-3725333Y-52895500D01*
X-3407833Y-52895500D01*
X-3407833Y-52112333D01*
X-2899833Y-52112333D01*
X-2899833Y-52302833D01*
G36*
X-3979333Y-51943000D02*
G01*
X-4233333Y-51943000D01*
X-4233333Y-52394925D01*
X-4234502Y-52558347D01*
X-4237865Y-52697194D01*
X-4243211Y-52806755D01*
X-4250325Y-52882321D01*
X-4256836Y-52914270D01*
X-4297467Y-52980853D01*
X-4367671Y-53027288D01*
X-4470525Y-53054837D01*
X-4609106Y-53064761D01*
X-4624073Y-53064833D01*
X-4804833Y-53064833D01*
X-4804833Y-52901379D01*
X-4673434Y-52889465D01*
X-4582771Y-52875791D01*
X-4528806Y-52853792D01*
X-4514684Y-52840146D01*
X-4505553Y-52816404D01*
X-4498511Y-52770516D01*
X-4493362Y-52698480D01*
X-4489913Y-52596293D01*
X-4487969Y-52459953D01*
X-4487334Y-52285457D01*
X-4487333Y-52277621D01*
X-4487333Y-51752500D01*
X-3979333Y-51752500D01*
X-3979333Y-51943000D01*
G37*
X-3979333Y-51943000D02*
X-4233333Y-51943000D01*
X-4233333Y-52394925D01*
X-4234502Y-52558347D01*
X-4237865Y-52697194D01*
X-4243211Y-52806755D01*
X-4250325Y-52882321D01*
X-4256836Y-52914270D01*
X-4297467Y-52980853D01*
X-4367671Y-53027288D01*
X-4470525Y-53054837D01*
X-4609106Y-53064761D01*
X-4624073Y-53064833D01*
X-4804833Y-53064833D01*
X-4804833Y-52901379D01*
X-4673434Y-52889465D01*
X-4582771Y-52875791D01*
X-4528806Y-52853792D01*
X-4514684Y-52840146D01*
X-4505553Y-52816404D01*
X-4498511Y-52770516D01*
X-4493362Y-52698480D01*
X-4489913Y-52596293D01*
X-4487969Y-52459953D01*
X-4487334Y-52285457D01*
X-4487333Y-52277621D01*
X-4487333Y-51752500D01*
X-3979333Y-51752500D01*
X-3979333Y-51943000D01*
G36*
X-5037666Y-52302833D02*
G01*
X-5291666Y-52302833D01*
X-5291666Y-52895500D01*
X-4953000Y-52895500D01*
X-4953000Y-53064833D01*
X-5884333Y-53064833D01*
X-5884333Y-52895500D01*
X-5566833Y-52895500D01*
X-5566833Y-52112333D01*
X-5037666Y-52112333D01*
X-5037666Y-52302833D01*
G37*
X-5037666Y-52302833D02*
X-5291666Y-52302833D01*
X-5291666Y-52895500D01*
X-4953000Y-52895500D01*
X-4953000Y-53064833D01*
X-5884333Y-53064833D01*
X-5884333Y-52895500D01*
X-5566833Y-52895500D01*
X-5566833Y-52112333D01*
X-5037666Y-52112333D01*
X-5037666Y-52302833D01*
G36*
X-9355666Y-52302833D02*
G01*
X-9609666Y-52302833D01*
X-9609666Y-52895500D01*
X-9249833Y-52895500D01*
X-9249833Y-53064833D01*
X-10181166Y-53064833D01*
X-10181166Y-52895500D01*
X-9863666Y-52895500D01*
X-9863666Y-52112333D01*
X-9355666Y-52112333D01*
X-9355666Y-52302833D01*
G37*
X-9355666Y-52302833D02*
X-9609666Y-52302833D01*
X-9609666Y-52895500D01*
X-9249833Y-52895500D01*
X-9249833Y-53064833D01*
X-10181166Y-53064833D01*
X-10181166Y-52895500D01*
X-9863666Y-52895500D01*
X-9863666Y-52112333D01*
X-9355666Y-52112333D01*
X-9355666Y-52302833D01*
G36*
X-10414000Y-51943000D02*
G01*
X-10664421Y-51943000D01*
X-10671624Y-52403375D01*
X-10674566Y-52560840D01*
X-10678152Y-52681789D01*
X-10682858Y-52772037D01*
X-10689163Y-52837402D01*
X-10697543Y-52883699D01*
X-10708476Y-52916744D01*
X-10714814Y-52929687D01*
X-10762464Y-52990780D01*
X-10831213Y-53032125D01*
X-10927204Y-53056004D01*
X-11056579Y-53064698D01*
X-11078657Y-53064833D01*
X-11260666Y-53064833D01*
X-11260666Y-52901379D01*
X-11132876Y-52889792D01*
X-11059133Y-52879477D01*
X-11000035Y-52864726D01*
X-10974126Y-52852510D01*
X-10964373Y-52838118D01*
X-10956831Y-52809955D01*
X-10951239Y-52763293D01*
X-10947336Y-52693402D01*
X-10944863Y-52595555D01*
X-10943560Y-52465022D01*
X-10943167Y-52297074D01*
X-10943166Y-52289658D01*
X-10943166Y-51752500D01*
X-10414000Y-51752500D01*
X-10414000Y-51943000D01*
G37*
X-10414000Y-51943000D02*
X-10664421Y-51943000D01*
X-10671624Y-52403375D01*
X-10674566Y-52560840D01*
X-10678152Y-52681789D01*
X-10682858Y-52772037D01*
X-10689163Y-52837402D01*
X-10697543Y-52883699D01*
X-10708476Y-52916744D01*
X-10714814Y-52929687D01*
X-10762464Y-52990780D01*
X-10831213Y-53032125D01*
X-10927204Y-53056004D01*
X-11056579Y-53064698D01*
X-11078657Y-53064833D01*
X-11260666Y-53064833D01*
X-11260666Y-52901379D01*
X-11132876Y-52889792D01*
X-11059133Y-52879477D01*
X-11000035Y-52864726D01*
X-10974126Y-52852510D01*
X-10964373Y-52838118D01*
X-10956831Y-52809955D01*
X-10951239Y-52763293D01*
X-10947336Y-52693402D01*
X-10944863Y-52595555D01*
X-10943560Y-52465022D01*
X-10943167Y-52297074D01*
X-10943166Y-52289658D01*
X-10943166Y-51752500D01*
X-10414000Y-51752500D01*
X-10414000Y-51943000D01*
G36*
X-11493500Y-51943000D02*
G01*
X-11747500Y-51943000D01*
X-11748695Y-52382208D01*
X-11749972Y-52552400D01*
X-11753485Y-52685796D01*
X-11760312Y-52787920D01*
X-11771527Y-52864292D01*
X-11788208Y-52920435D01*
X-11811431Y-52961872D01*
X-11842273Y-52994124D01*
X-11872338Y-53016475D01*
X-11914512Y-53040676D01*
X-11960621Y-53055292D01*
X-12022772Y-53062580D01*
X-12113071Y-53064798D01*
X-12131630Y-53064833D01*
X-12319000Y-53064833D01*
X-12319000Y-52901422D01*
X-12201121Y-52889256D01*
X-12130096Y-52878149D01*
X-12073957Y-52862651D01*
X-12052955Y-52851953D01*
X-12043375Y-52837197D01*
X-12035964Y-52807669D01*
X-12030471Y-52758720D01*
X-12026645Y-52685701D01*
X-12024236Y-52583963D01*
X-12022994Y-52448858D01*
X-12022666Y-52289658D01*
X-12022666Y-51752500D01*
X-11493500Y-51752500D01*
X-11493500Y-51943000D01*
G37*
X-11493500Y-51943000D02*
X-11747500Y-51943000D01*
X-11748695Y-52382208D01*
X-11749972Y-52552400D01*
X-11753485Y-52685796D01*
X-11760312Y-52787920D01*
X-11771527Y-52864292D01*
X-11788208Y-52920435D01*
X-11811431Y-52961872D01*
X-11842273Y-52994124D01*
X-11872338Y-53016475D01*
X-11914512Y-53040676D01*
X-11960621Y-53055292D01*
X-12022772Y-53062580D01*
X-12113071Y-53064798D01*
X-12131630Y-53064833D01*
X-12319000Y-53064833D01*
X-12319000Y-52901422D01*
X-12201121Y-52889256D01*
X-12130096Y-52878149D01*
X-12073957Y-52862651D01*
X-12052955Y-52851953D01*
X-12043375Y-52837197D01*
X-12035964Y-52807669D01*
X-12030471Y-52758720D01*
X-12026645Y-52685701D01*
X-12024236Y-52583963D01*
X-12022994Y-52448858D01*
X-12022666Y-52289658D01*
X-12022666Y-51752500D01*
X-11493500Y-51752500D01*
X-11493500Y-51943000D01*
G36*
X19471147Y-52106231D02*
G01*
X19592474Y-52151311D01*
X19684717Y-52227062D01*
X19748055Y-52333676D01*
X19782668Y-52471341D01*
X19789904Y-52588583D01*
X19778068Y-52742154D01*
X19741104Y-52864084D01*
X19676824Y-52958313D01*
X19583045Y-53028775D01*
X19531933Y-53053240D01*
X19454674Y-53073201D01*
X19354927Y-53082736D01*
X19251378Y-53081264D01*
X19162713Y-53068204D01*
X19151417Y-53065079D01*
X19044594Y-53011999D01*
X18960249Y-52926984D01*
X18900600Y-52815267D01*
X18867866Y-52682082D01*
X18865358Y-52578023D01*
X19142805Y-52578023D01*
X19148828Y-52679290D01*
X19168605Y-52770382D01*
X19201792Y-52839547D01*
X19226386Y-52864522D01*
X19297119Y-52891075D01*
X19374066Y-52884564D01*
X19440709Y-52847612D01*
X19458833Y-52827586D01*
X19488962Y-52762550D01*
X19508443Y-52671070D01*
X19515344Y-52568133D01*
X19507732Y-52468720D01*
X19506220Y-52460199D01*
X19474653Y-52376083D01*
X19421394Y-52316715D01*
X19355004Y-52285847D01*
X19284043Y-52287232D01*
X19217073Y-52324620D01*
X19210713Y-52330697D01*
X19173402Y-52391975D01*
X19150881Y-52478334D01*
X19142805Y-52578023D01*
X18865358Y-52578023D01*
X18864264Y-52532663D01*
X18879703Y-52423891D01*
X18924086Y-52295965D01*
X18997537Y-52198740D01*
X19099689Y-52132493D01*
X19230171Y-52097503D01*
X19320555Y-52091631D01*
X19471147Y-52106231D01*
G37*
X19471147Y-52106231D02*
X19592474Y-52151311D01*
X19684717Y-52227062D01*
X19748055Y-52333676D01*
X19782668Y-52471341D01*
X19789904Y-52588583D01*
X19778068Y-52742154D01*
X19741104Y-52864084D01*
X19676824Y-52958313D01*
X19583045Y-53028775D01*
X19531933Y-53053240D01*
X19454674Y-53073201D01*
X19354927Y-53082736D01*
X19251378Y-53081264D01*
X19162713Y-53068204D01*
X19151417Y-53065079D01*
X19044594Y-53011999D01*
X18960249Y-52926984D01*
X18900600Y-52815267D01*
X18867866Y-52682082D01*
X18865358Y-52578023D01*
X19142805Y-52578023D01*
X19148828Y-52679290D01*
X19168605Y-52770382D01*
X19201792Y-52839547D01*
X19226386Y-52864522D01*
X19297119Y-52891075D01*
X19374066Y-52884564D01*
X19440709Y-52847612D01*
X19458833Y-52827586D01*
X19488962Y-52762550D01*
X19508443Y-52671070D01*
X19515344Y-52568133D01*
X19507732Y-52468720D01*
X19506220Y-52460199D01*
X19474653Y-52376083D01*
X19421394Y-52316715D01*
X19355004Y-52285847D01*
X19284043Y-52287232D01*
X19217073Y-52324620D01*
X19210713Y-52330697D01*
X19173402Y-52391975D01*
X19150881Y-52478334D01*
X19142805Y-52578023D01*
X18865358Y-52578023D01*
X18864264Y-52532663D01*
X18879703Y-52423891D01*
X18924086Y-52295965D01*
X18997537Y-52198740D01*
X19099689Y-52132493D01*
X19230171Y-52097503D01*
X19320555Y-52091631D01*
X19471147Y-52106231D01*
G36*
X13018789Y-52109187D02*
G01*
X13117633Y-52133716D01*
X13190284Y-52178663D01*
X13243662Y-52247354D01*
X13260851Y-52281521D01*
X13282283Y-52334445D01*
X13291547Y-52368600D01*
X13290687Y-52374170D01*
X13266731Y-52379975D01*
X13212892Y-52387723D01*
X13150105Y-52394763D01*
X13077928Y-52401050D01*
X13037093Y-52399627D01*
X13016872Y-52387479D01*
X13006536Y-52361589D01*
X13004548Y-52353849D01*
X12974580Y-52299187D01*
X12927208Y-52273660D01*
X12873575Y-52275140D01*
X12824821Y-52301500D01*
X12792089Y-52350612D01*
X12784667Y-52395838D01*
X12784667Y-52466700D01*
X12950980Y-52481208D01*
X13095787Y-52503581D01*
X13203649Y-52543601D01*
X13277073Y-52603572D01*
X13318567Y-52685795D01*
X13330641Y-52792572D01*
X13329019Y-52828163D01*
X13305889Y-52935999D01*
X13253801Y-53013378D01*
X13171298Y-53061736D01*
X13071979Y-53081458D01*
X12947954Y-53078177D01*
X12851617Y-53044663D01*
X12784328Y-52985511D01*
X12743090Y-52933086D01*
X12721925Y-52988756D01*
X12680710Y-53041369D01*
X12610149Y-53074353D01*
X12519641Y-53085138D01*
X12419542Y-53071409D01*
X12391530Y-53047685D01*
X12382511Y-52991965D01*
X12382500Y-52989198D01*
X12387546Y-52938669D01*
X12406905Y-52918669D01*
X12424089Y-52916667D01*
X12457471Y-52908470D01*
X12481350Y-52880405D01*
X12497066Y-52827261D01*
X12505961Y-52743827D01*
X12507029Y-52706628D01*
X12784667Y-52706628D01*
X12799242Y-52770207D01*
X12836883Y-52825605D01*
X12888460Y-52867492D01*
X12944845Y-52890533D01*
X12996908Y-52889398D01*
X13035521Y-52858753D01*
X13037922Y-52854558D01*
X13059836Y-52779358D01*
X13044037Y-52715293D01*
X12994806Y-52668135D01*
X12916423Y-52643656D01*
X12879917Y-52641500D01*
X12821359Y-52643296D01*
X12793626Y-52653927D01*
X12785219Y-52681253D01*
X12784667Y-52706628D01*
X12507029Y-52706628D01*
X12509376Y-52624892D01*
X12509533Y-52584683D01*
X12512632Y-52446900D01*
X12523485Y-52343252D01*
X12544489Y-52265881D01*
X12578038Y-52206929D01*
X12626530Y-52158539D01*
X12643417Y-52145588D01*
X12681293Y-52123255D01*
X12727481Y-52109877D01*
X12793412Y-52103395D01*
X12886833Y-52101750D01*
X13018789Y-52109187D01*
G37*
X13018789Y-52109187D02*
X13117633Y-52133716D01*
X13190284Y-52178663D01*
X13243662Y-52247354D01*
X13260851Y-52281521D01*
X13282283Y-52334445D01*
X13291547Y-52368600D01*
X13290687Y-52374170D01*
X13266731Y-52379975D01*
X13212892Y-52387723D01*
X13150105Y-52394763D01*
X13077928Y-52401050D01*
X13037093Y-52399627D01*
X13016872Y-52387479D01*
X13006536Y-52361589D01*
X13004548Y-52353849D01*
X12974580Y-52299187D01*
X12927208Y-52273660D01*
X12873575Y-52275140D01*
X12824821Y-52301500D01*
X12792089Y-52350612D01*
X12784667Y-52395838D01*
X12784667Y-52466700D01*
X12950980Y-52481208D01*
X13095787Y-52503581D01*
X13203649Y-52543601D01*
X13277073Y-52603572D01*
X13318567Y-52685795D01*
X13330641Y-52792572D01*
X13329019Y-52828163D01*
X13305889Y-52935999D01*
X13253801Y-53013378D01*
X13171298Y-53061736D01*
X13071979Y-53081458D01*
X12947954Y-53078177D01*
X12851617Y-53044663D01*
X12784328Y-52985511D01*
X12743090Y-52933086D01*
X12721925Y-52988756D01*
X12680710Y-53041369D01*
X12610149Y-53074353D01*
X12519641Y-53085138D01*
X12419542Y-53071409D01*
X12391530Y-53047685D01*
X12382511Y-52991965D01*
X12382500Y-52989198D01*
X12387546Y-52938669D01*
X12406905Y-52918669D01*
X12424089Y-52916667D01*
X12457471Y-52908470D01*
X12481350Y-52880405D01*
X12497066Y-52827261D01*
X12505961Y-52743827D01*
X12507029Y-52706628D01*
X12784667Y-52706628D01*
X12799242Y-52770207D01*
X12836883Y-52825605D01*
X12888460Y-52867492D01*
X12944845Y-52890533D01*
X12996908Y-52889398D01*
X13035521Y-52858753D01*
X13037922Y-52854558D01*
X13059836Y-52779358D01*
X13044037Y-52715293D01*
X12994806Y-52668135D01*
X12916423Y-52643656D01*
X12879917Y-52641500D01*
X12821359Y-52643296D01*
X12793626Y-52653927D01*
X12785219Y-52681253D01*
X12784667Y-52706628D01*
X12507029Y-52706628D01*
X12509376Y-52624892D01*
X12509533Y-52584683D01*
X12512632Y-52446900D01*
X12523485Y-52343252D01*
X12544489Y-52265881D01*
X12578038Y-52206929D01*
X12626530Y-52158539D01*
X12643417Y-52145588D01*
X12681293Y-52123255D01*
X12727481Y-52109877D01*
X12793412Y-52103395D01*
X12886833Y-52101750D01*
X13018789Y-52109187D01*
G36*
X9503834Y-52195724D02*
G01*
X9583209Y-52141518D01*
X9636559Y-52109953D01*
X9687419Y-52095540D01*
X9754413Y-52094133D01*
X9787272Y-52096097D01*
X9861867Y-52104134D01*
X9912218Y-52120729D01*
X9956412Y-52154213D01*
X9991498Y-52190151D01*
X10063098Y-52297932D01*
X10104142Y-52434976D01*
X10114619Y-52601231D01*
X10110790Y-52669599D01*
X10084628Y-52822601D01*
X10034802Y-52940985D01*
X9961546Y-53024473D01*
X9865089Y-53072790D01*
X9763581Y-53086000D01*
X9668922Y-53075499D01*
X9590066Y-53039817D01*
X9581878Y-53034404D01*
X9534222Y-53003578D01*
X9509910Y-52995819D01*
X9497697Y-53009791D01*
X9492831Y-53023821D01*
X9478744Y-53047300D01*
X9448455Y-53059797D01*
X9391342Y-53064456D01*
X9354240Y-53064833D01*
X9228667Y-53064833D01*
X9228667Y-52530193D01*
X9505748Y-52530193D01*
X9506165Y-52640723D01*
X9524851Y-52745304D01*
X9561527Y-52829360D01*
X9570337Y-52841594D01*
X9626902Y-52885214D01*
X9691619Y-52890972D01*
X9755188Y-52859572D01*
X9787491Y-52825121D01*
X9815850Y-52760798D01*
X9831862Y-52670421D01*
X9835542Y-52568415D01*
X9826905Y-52469205D01*
X9805965Y-52387216D01*
X9786994Y-52351602D01*
X9728493Y-52302590D01*
X9661041Y-52290346D01*
X9595832Y-52314968D01*
X9560849Y-52349580D01*
X9523882Y-52428287D01*
X9505748Y-52530193D01*
X9228667Y-52530193D01*
X9228667Y-51752500D01*
X9503834Y-51752500D01*
X9503834Y-52195724D01*
G37*
X9503834Y-52195724D02*
X9583209Y-52141518D01*
X9636559Y-52109953D01*
X9687419Y-52095540D01*
X9754413Y-52094133D01*
X9787272Y-52096097D01*
X9861867Y-52104134D01*
X9912218Y-52120729D01*
X9956412Y-52154213D01*
X9991498Y-52190151D01*
X10063098Y-52297932D01*
X10104142Y-52434976D01*
X10114619Y-52601231D01*
X10110790Y-52669599D01*
X10084628Y-52822601D01*
X10034802Y-52940985D01*
X9961546Y-53024473D01*
X9865089Y-53072790D01*
X9763581Y-53086000D01*
X9668922Y-53075499D01*
X9590066Y-53039817D01*
X9581878Y-53034404D01*
X9534222Y-53003578D01*
X9509910Y-52995819D01*
X9497697Y-53009791D01*
X9492831Y-53023821D01*
X9478744Y-53047300D01*
X9448455Y-53059797D01*
X9391342Y-53064456D01*
X9354240Y-53064833D01*
X9228667Y-53064833D01*
X9228667Y-52530193D01*
X9505748Y-52530193D01*
X9506165Y-52640723D01*
X9524851Y-52745304D01*
X9561527Y-52829360D01*
X9570337Y-52841594D01*
X9626902Y-52885214D01*
X9691619Y-52890972D01*
X9755188Y-52859572D01*
X9787491Y-52825121D01*
X9815850Y-52760798D01*
X9831862Y-52670421D01*
X9835542Y-52568415D01*
X9826905Y-52469205D01*
X9805965Y-52387216D01*
X9786994Y-52351602D01*
X9728493Y-52302590D01*
X9661041Y-52290346D01*
X9595832Y-52314968D01*
X9560849Y-52349580D01*
X9523882Y-52428287D01*
X9505748Y-52530193D01*
X9228667Y-52530193D01*
X9228667Y-51752500D01*
X9503834Y-51752500D01*
X9503834Y-52195724D01*
G36*
X8703895Y-52106700D02*
G01*
X8825407Y-52151120D01*
X8874604Y-52180853D01*
X8946065Y-52254706D01*
X8997373Y-52356778D01*
X9027581Y-52477562D01*
X9035744Y-52607552D01*
X9020913Y-52737241D01*
X8982142Y-52857122D01*
X8948083Y-52918761D01*
X8874170Y-52994314D01*
X8772556Y-53049138D01*
X8653612Y-53081019D01*
X8527708Y-53087740D01*
X8405214Y-53067087D01*
X8350069Y-53046524D01*
X8296066Y-53014059D01*
X8236620Y-52966683D01*
X8181973Y-52914190D01*
X8142367Y-52866374D01*
X8128000Y-52834178D01*
X8147109Y-52822436D01*
X8196504Y-52810270D01*
X8246845Y-52802694D01*
X8316959Y-52796419D01*
X8360363Y-52800737D01*
X8392087Y-52819169D01*
X8415168Y-52842113D01*
X8482543Y-52886551D01*
X8562381Y-52898049D01*
X8640723Y-52876740D01*
X8689928Y-52839492D01*
X8724618Y-52796149D01*
X8741747Y-52763167D01*
X8742123Y-52760117D01*
X8747513Y-52722133D01*
X8755175Y-52689125D01*
X8767938Y-52641500D01*
X8128000Y-52641500D01*
X8128000Y-52548911D01*
X8140337Y-52440736D01*
X8140548Y-52440049D01*
X8384613Y-52440049D01*
X8402277Y-52459938D01*
X8450829Y-52469317D01*
X8535155Y-52472059D01*
X8572500Y-52472167D01*
X8656394Y-52470863D01*
X8721437Y-52467371D01*
X8758184Y-52462320D01*
X8763000Y-52459490D01*
X8754731Y-52433720D01*
X8734373Y-52386608D01*
X8729765Y-52376777D01*
X8678623Y-52309300D01*
X8611099Y-52273693D01*
X8537685Y-52270759D01*
X8468874Y-52301301D01*
X8422399Y-52353258D01*
X8392949Y-52405779D01*
X8384613Y-52440049D01*
X8140548Y-52440049D01*
X8173369Y-52333418D01*
X8221134Y-52244429D01*
X8239841Y-52221269D01*
X8332455Y-52150069D01*
X8447369Y-52106815D01*
X8574532Y-52092145D01*
X8703895Y-52106700D01*
G37*
X8703895Y-52106700D02*
X8825407Y-52151120D01*
X8874604Y-52180853D01*
X8946065Y-52254706D01*
X8997373Y-52356778D01*
X9027581Y-52477562D01*
X9035744Y-52607552D01*
X9020913Y-52737241D01*
X8982142Y-52857122D01*
X8948083Y-52918761D01*
X8874170Y-52994314D01*
X8772556Y-53049138D01*
X8653612Y-53081019D01*
X8527708Y-53087740D01*
X8405214Y-53067087D01*
X8350069Y-53046524D01*
X8296066Y-53014059D01*
X8236620Y-52966683D01*
X8181973Y-52914190D01*
X8142367Y-52866374D01*
X8128000Y-52834178D01*
X8147109Y-52822436D01*
X8196504Y-52810270D01*
X8246845Y-52802694D01*
X8316959Y-52796419D01*
X8360363Y-52800737D01*
X8392087Y-52819169D01*
X8415168Y-52842113D01*
X8482543Y-52886551D01*
X8562381Y-52898049D01*
X8640723Y-52876740D01*
X8689928Y-52839492D01*
X8724618Y-52796149D01*
X8741747Y-52763167D01*
X8742123Y-52760117D01*
X8747513Y-52722133D01*
X8755175Y-52689125D01*
X8767938Y-52641500D01*
X8128000Y-52641500D01*
X8128000Y-52548911D01*
X8140337Y-52440736D01*
X8140548Y-52440049D01*
X8384613Y-52440049D01*
X8402277Y-52459938D01*
X8450829Y-52469317D01*
X8535155Y-52472059D01*
X8572500Y-52472167D01*
X8656394Y-52470863D01*
X8721437Y-52467371D01*
X8758184Y-52462320D01*
X8763000Y-52459490D01*
X8754731Y-52433720D01*
X8734373Y-52386608D01*
X8729765Y-52376777D01*
X8678623Y-52309300D01*
X8611099Y-52273693D01*
X8537685Y-52270759D01*
X8468874Y-52301301D01*
X8422399Y-52353258D01*
X8392949Y-52405779D01*
X8384613Y-52440049D01*
X8140548Y-52440049D01*
X8173369Y-52333418D01*
X8221134Y-52244429D01*
X8239841Y-52221269D01*
X8332455Y-52150069D01*
X8447369Y-52106815D01*
X8574532Y-52092145D01*
X8703895Y-52106700D01*
G36*
X7533498Y-52095656D02*
G01*
X7674571Y-52113943D01*
X7779452Y-52151219D01*
X7850775Y-52209600D01*
X7891174Y-52291202D01*
X7903308Y-52392742D01*
X7892331Y-52476948D01*
X7856447Y-52544419D01*
X7791227Y-52598953D01*
X7692244Y-52644349D01*
X7566609Y-52681545D01*
X7460868Y-52709751D01*
X7390233Y-52733745D01*
X7348182Y-52757000D01*
X7328191Y-52782986D01*
X7323667Y-52810833D01*
X7340806Y-52859048D01*
X7393297Y-52888883D01*
X7482753Y-52901133D01*
X7507888Y-52901547D01*
X7580776Y-52898734D01*
X7627035Y-52886761D01*
X7662189Y-52860328D01*
X7677320Y-52843706D01*
X7711109Y-52809469D01*
X7744944Y-52795020D01*
X7795403Y-52795721D01*
X7832287Y-52800335D01*
X7898149Y-52813089D01*
X7930282Y-52830638D01*
X7937500Y-52852298D01*
X7919350Y-52907909D01*
X7871422Y-52967962D01*
X7803500Y-53021836D01*
X7759247Y-53045861D01*
X7674773Y-53070348D01*
X7565690Y-53082944D01*
X7448096Y-53083375D01*
X7338090Y-53071366D01*
X7270750Y-53054207D01*
X7170694Y-53000956D01*
X7103129Y-52925570D01*
X7071582Y-52832494D01*
X7069667Y-52800912D01*
X7075857Y-52713197D01*
X7098034Y-52644836D01*
X7141608Y-52590870D01*
X7211988Y-52546340D01*
X7314583Y-52506289D01*
X7427263Y-52473116D01*
X7540995Y-52438556D01*
X7615423Y-52406279D01*
X7653351Y-52374226D01*
X7657585Y-52340342D01*
X7642639Y-52315191D01*
X7600058Y-52291355D01*
X7521799Y-52281909D01*
X7502528Y-52281667D01*
X7431603Y-52284992D01*
X7387309Y-52298550D01*
X7354221Y-52327709D01*
X7347884Y-52335513D01*
X7318534Y-52367113D01*
X7286394Y-52380473D01*
X7236022Y-52379679D01*
X7198181Y-52375119D01*
X7137398Y-52362853D01*
X7098525Y-52346933D01*
X7090913Y-52337148D01*
X7108665Y-52280549D01*
X7154703Y-52218264D01*
X7218697Y-52161957D01*
X7274771Y-52129540D01*
X7339492Y-52105683D01*
X7405256Y-52094393D01*
X7488857Y-52093471D01*
X7533498Y-52095656D01*
G37*
X7533498Y-52095656D02*
X7674571Y-52113943D01*
X7779452Y-52151219D01*
X7850775Y-52209600D01*
X7891174Y-52291202D01*
X7903308Y-52392742D01*
X7892331Y-52476948D01*
X7856447Y-52544419D01*
X7791227Y-52598953D01*
X7692244Y-52644349D01*
X7566609Y-52681545D01*
X7460868Y-52709751D01*
X7390233Y-52733745D01*
X7348182Y-52757000D01*
X7328191Y-52782986D01*
X7323667Y-52810833D01*
X7340806Y-52859048D01*
X7393297Y-52888883D01*
X7482753Y-52901133D01*
X7507888Y-52901547D01*
X7580776Y-52898734D01*
X7627035Y-52886761D01*
X7662189Y-52860328D01*
X7677320Y-52843706D01*
X7711109Y-52809469D01*
X7744944Y-52795020D01*
X7795403Y-52795721D01*
X7832287Y-52800335D01*
X7898149Y-52813089D01*
X7930282Y-52830638D01*
X7937500Y-52852298D01*
X7919350Y-52907909D01*
X7871422Y-52967962D01*
X7803500Y-53021836D01*
X7759247Y-53045861D01*
X7674773Y-53070348D01*
X7565690Y-53082944D01*
X7448096Y-53083375D01*
X7338090Y-53071366D01*
X7270750Y-53054207D01*
X7170694Y-53000956D01*
X7103129Y-52925570D01*
X7071582Y-52832494D01*
X7069667Y-52800912D01*
X7075857Y-52713197D01*
X7098034Y-52644836D01*
X7141608Y-52590870D01*
X7211988Y-52546340D01*
X7314583Y-52506289D01*
X7427263Y-52473116D01*
X7540995Y-52438556D01*
X7615423Y-52406279D01*
X7653351Y-52374226D01*
X7657585Y-52340342D01*
X7642639Y-52315191D01*
X7600058Y-52291355D01*
X7521799Y-52281909D01*
X7502528Y-52281667D01*
X7431603Y-52284992D01*
X7387309Y-52298550D01*
X7354221Y-52327709D01*
X7347884Y-52335513D01*
X7318534Y-52367113D01*
X7286394Y-52380473D01*
X7236022Y-52379679D01*
X7198181Y-52375119D01*
X7137398Y-52362853D01*
X7098525Y-52346933D01*
X7090913Y-52337148D01*
X7108665Y-52280549D01*
X7154703Y-52218264D01*
X7218697Y-52161957D01*
X7274771Y-52129540D01*
X7339492Y-52105683D01*
X7405256Y-52094393D01*
X7488857Y-52093471D01*
X7533498Y-52095656D01*
G36*
X2540000Y-52342521D02*
G01*
X2540466Y-52499811D01*
X2541780Y-52646121D01*
X2543818Y-52775252D01*
X2546454Y-52881005D01*
X2549564Y-52957181D01*
X2553022Y-52997580D01*
X2553229Y-52998687D01*
X2566459Y-53064833D01*
X2426229Y-53064833D01*
X2351439Y-53064056D01*
X2309490Y-53059156D01*
X2290889Y-53046282D01*
X2286144Y-53021582D01*
X2286000Y-53007925D01*
X2286000Y-52951017D01*
X2241634Y-52998639D01*
X2190973Y-53040846D01*
X2145006Y-53066130D01*
X2064567Y-53082705D01*
X1971471Y-53082152D01*
X1887134Y-53065443D01*
X1858091Y-53053101D01*
X1814273Y-53016836D01*
X1765979Y-52958761D01*
X1741674Y-52921657D01*
X1715490Y-52874049D01*
X1698456Y-52830749D01*
X1688625Y-52780746D01*
X1684049Y-52713029D01*
X1683007Y-52633870D01*
X1947612Y-52633870D01*
X1954468Y-52722980D01*
X1966727Y-52774421D01*
X2009951Y-52846832D01*
X2067613Y-52887258D01*
X2131464Y-52892876D01*
X2193254Y-52860865D01*
X2200217Y-52854283D01*
X2244211Y-52787735D01*
X2270543Y-52700755D01*
X2280081Y-52603000D01*
X2273691Y-52504122D01*
X2252242Y-52413777D01*
X2216601Y-52341620D01*
X2167637Y-52297304D01*
X2149559Y-52290645D01*
X2073819Y-52287716D01*
X2015510Y-52322740D01*
X1981126Y-52375602D01*
X1961562Y-52442977D01*
X1950184Y-52534801D01*
X1947612Y-52633870D01*
X1683007Y-52633870D01*
X1682779Y-52616585D01*
X1682750Y-52588583D01*
X1687459Y-52445013D01*
X1703319Y-52335444D01*
X1732927Y-52252415D01*
X1778884Y-52188468D01*
X1839339Y-52139071D01*
X1933749Y-52099201D01*
X2039598Y-52090825D01*
X2143147Y-52112719D01*
X2230660Y-52163660D01*
X2242822Y-52174988D01*
X2286000Y-52218167D01*
X2286000Y-51752500D01*
X2540000Y-51752500D01*
X2540000Y-52342521D01*
G37*
X2540000Y-52342521D02*
X2540466Y-52499811D01*
X2541780Y-52646121D01*
X2543818Y-52775252D01*
X2546454Y-52881005D01*
X2549564Y-52957181D01*
X2553022Y-52997580D01*
X2553229Y-52998687D01*
X2566459Y-53064833D01*
X2426229Y-53064833D01*
X2351439Y-53064056D01*
X2309490Y-53059156D01*
X2290889Y-53046282D01*
X2286144Y-53021582D01*
X2286000Y-53007925D01*
X2286000Y-52951017D01*
X2241634Y-52998639D01*
X2190973Y-53040846D01*
X2145006Y-53066130D01*
X2064567Y-53082705D01*
X1971471Y-53082152D01*
X1887134Y-53065443D01*
X1858091Y-53053101D01*
X1814273Y-53016836D01*
X1765979Y-52958761D01*
X1741674Y-52921657D01*
X1715490Y-52874049D01*
X1698456Y-52830749D01*
X1688625Y-52780746D01*
X1684049Y-52713029D01*
X1683007Y-52633870D01*
X1947612Y-52633870D01*
X1954468Y-52722980D01*
X1966727Y-52774421D01*
X2009951Y-52846832D01*
X2067613Y-52887258D01*
X2131464Y-52892876D01*
X2193254Y-52860865D01*
X2200217Y-52854283D01*
X2244211Y-52787735D01*
X2270543Y-52700755D01*
X2280081Y-52603000D01*
X2273691Y-52504122D01*
X2252242Y-52413777D01*
X2216601Y-52341620D01*
X2167637Y-52297304D01*
X2149559Y-52290645D01*
X2073819Y-52287716D01*
X2015510Y-52322740D01*
X1981126Y-52375602D01*
X1961562Y-52442977D01*
X1950184Y-52534801D01*
X1947612Y-52633870D01*
X1683007Y-52633870D01*
X1682779Y-52616585D01*
X1682750Y-52588583D01*
X1687459Y-52445013D01*
X1703319Y-52335444D01*
X1732927Y-52252415D01*
X1778884Y-52188468D01*
X1839339Y-52139071D01*
X1933749Y-52099201D01*
X2039598Y-52090825D01*
X2143147Y-52112719D01*
X2230660Y-52163660D01*
X2242822Y-52174988D01*
X2286000Y-52218167D01*
X2286000Y-51752500D01*
X2540000Y-51752500D01*
X2540000Y-52342521D01*
G36*
X-6402878Y-52096401D02*
G01*
X-6271361Y-52129613D01*
X-6164415Y-52197178D01*
X-6085416Y-52292506D01*
X-6054755Y-52345378D01*
X-6035983Y-52391880D01*
X-6026280Y-52445237D01*
X-6022825Y-52518672D01*
X-6022605Y-52586923D01*
X-6031213Y-52730145D01*
X-6058023Y-52841391D01*
X-6106245Y-52928275D01*
X-6179092Y-52998412D01*
X-6203390Y-53015459D01*
X-6259703Y-53047191D01*
X-6319873Y-53066309D01*
X-6399215Y-53076800D01*
X-6451680Y-53080097D01*
X-6543991Y-53082384D01*
X-6611303Y-53076403D01*
X-6670585Y-53059432D01*
X-6722446Y-53036683D01*
X-6814657Y-52978691D01*
X-6875904Y-52911362D01*
X-6904462Y-52862833D01*
X-6920340Y-52831342D01*
X-6921500Y-52827124D01*
X-6902413Y-52819212D01*
X-6853068Y-52809613D01*
X-6802655Y-52802694D01*
X-6732541Y-52796419D01*
X-6689137Y-52800737D01*
X-6657413Y-52819169D01*
X-6634332Y-52842113D01*
X-6570837Y-52882654D01*
X-6490185Y-52897009D01*
X-6410260Y-52882738D01*
X-6393487Y-52874951D01*
X-6364474Y-52844393D01*
X-6331618Y-52789736D01*
X-6303198Y-52727441D01*
X-6287494Y-52673971D01*
X-6286500Y-52662238D01*
X-6306934Y-52654142D01*
X-6365357Y-52647822D01*
X-6457452Y-52643549D01*
X-6578902Y-52641595D01*
X-6615880Y-52641500D01*
X-6945260Y-52641500D01*
X-6932094Y-52540958D01*
X-6907391Y-52431013D01*
X-6667500Y-52431013D01*
X-6663991Y-52450712D01*
X-6648074Y-52462898D01*
X-6611661Y-52469347D01*
X-6546666Y-52471834D01*
X-6479935Y-52472167D01*
X-6292370Y-52472167D01*
X-6302530Y-52419018D01*
X-6332717Y-52354718D01*
X-6388440Y-52302079D01*
X-6455702Y-52271342D01*
X-6507311Y-52269185D01*
X-6570373Y-52296089D01*
X-6626029Y-52344187D01*
X-6661380Y-52400447D01*
X-6667500Y-52431013D01*
X-6907391Y-52431013D01*
X-6896572Y-52382862D01*
X-6835946Y-52258781D01*
X-6750348Y-52168825D01*
X-6639908Y-52113104D01*
X-6504758Y-52091730D01*
X-6402878Y-52096401D01*
G37*
X-6402878Y-52096401D02*
X-6271361Y-52129613D01*
X-6164415Y-52197178D01*
X-6085416Y-52292506D01*
X-6054755Y-52345378D01*
X-6035983Y-52391880D01*
X-6026280Y-52445237D01*
X-6022825Y-52518672D01*
X-6022605Y-52586923D01*
X-6031213Y-52730145D01*
X-6058023Y-52841391D01*
X-6106245Y-52928275D01*
X-6179092Y-52998412D01*
X-6203390Y-53015459D01*
X-6259703Y-53047191D01*
X-6319873Y-53066309D01*
X-6399215Y-53076800D01*
X-6451680Y-53080097D01*
X-6543991Y-53082384D01*
X-6611303Y-53076403D01*
X-6670585Y-53059432D01*
X-6722446Y-53036683D01*
X-6814657Y-52978691D01*
X-6875904Y-52911362D01*
X-6904462Y-52862833D01*
X-6920340Y-52831342D01*
X-6921500Y-52827124D01*
X-6902413Y-52819212D01*
X-6853068Y-52809613D01*
X-6802655Y-52802694D01*
X-6732541Y-52796419D01*
X-6689137Y-52800737D01*
X-6657413Y-52819169D01*
X-6634332Y-52842113D01*
X-6570837Y-52882654D01*
X-6490185Y-52897009D01*
X-6410260Y-52882738D01*
X-6393487Y-52874951D01*
X-6364474Y-52844393D01*
X-6331618Y-52789736D01*
X-6303198Y-52727441D01*
X-6287494Y-52673971D01*
X-6286500Y-52662238D01*
X-6306934Y-52654142D01*
X-6365357Y-52647822D01*
X-6457452Y-52643549D01*
X-6578902Y-52641595D01*
X-6615880Y-52641500D01*
X-6945260Y-52641500D01*
X-6932094Y-52540958D01*
X-6907391Y-52431013D01*
X-6667500Y-52431013D01*
X-6663991Y-52450712D01*
X-6648074Y-52462898D01*
X-6611661Y-52469347D01*
X-6546666Y-52471834D01*
X-6479935Y-52472167D01*
X-6292370Y-52472167D01*
X-6302530Y-52419018D01*
X-6332717Y-52354718D01*
X-6388440Y-52302079D01*
X-6455702Y-52271342D01*
X-6507311Y-52269185D01*
X-6570373Y-52296089D01*
X-6626029Y-52344187D01*
X-6661380Y-52400447D01*
X-6667500Y-52431013D01*
X-6907391Y-52431013D01*
X-6896572Y-52382862D01*
X-6835946Y-52258781D01*
X-6750348Y-52168825D01*
X-6639908Y-52113104D01*
X-6504758Y-52091730D01*
X-6402878Y-52096401D01*
G36*
X-8481200Y-51876126D02*
G01*
X-8362680Y-51926423D01*
X-8270165Y-52009710D01*
X-8203963Y-52125546D01*
X-8164381Y-52273489D01*
X-8151728Y-52453098D01*
X-8154387Y-52535667D01*
X-8175359Y-52701927D01*
X-8218309Y-52834736D01*
X-8285418Y-52938060D01*
X-8378867Y-53015866D01*
X-8434916Y-53045871D01*
X-8541425Y-53076801D01*
X-8664940Y-53084579D01*
X-8787094Y-53069303D01*
X-8865079Y-53043548D01*
X-8936484Y-53007561D01*
X-9002870Y-52968495D01*
X-9018537Y-52957905D01*
X-9080500Y-52913784D01*
X-9080500Y-52408667D01*
X-8593666Y-52408667D01*
X-8593666Y-52620333D01*
X-8826500Y-52620333D01*
X-8826500Y-52712186D01*
X-8822483Y-52773354D01*
X-8805789Y-52807616D01*
X-8772587Y-52828602D01*
X-8694460Y-52849481D01*
X-8609901Y-52850705D01*
X-8562746Y-52839973D01*
X-8517100Y-52801811D01*
X-8479040Y-52730885D01*
X-8450590Y-52636398D01*
X-8433776Y-52527552D01*
X-8430624Y-52413550D01*
X-8443157Y-52303595D01*
X-8443904Y-52299935D01*
X-8476812Y-52201424D01*
X-8525897Y-52129079D01*
X-8585457Y-52086485D01*
X-8649790Y-52077229D01*
X-8713193Y-52104895D01*
X-8730185Y-52119927D01*
X-8766426Y-52164689D01*
X-8783885Y-52202997D01*
X-8784166Y-52206621D01*
X-8803080Y-52229411D01*
X-8856041Y-52237172D01*
X-8937377Y-52229521D01*
X-8985250Y-52220170D01*
X-9030179Y-52203513D01*
X-9043788Y-52173734D01*
X-9042771Y-52153884D01*
X-9016426Y-52075028D01*
X-8961760Y-51995165D01*
X-8889984Y-51928431D01*
X-8840975Y-51899470D01*
X-8739759Y-51869465D01*
X-8625416Y-51859263D01*
X-8481200Y-51876126D01*
G37*
X-8481200Y-51876126D02*
X-8362680Y-51926423D01*
X-8270165Y-52009710D01*
X-8203963Y-52125546D01*
X-8164381Y-52273489D01*
X-8151728Y-52453098D01*
X-8154387Y-52535667D01*
X-8175359Y-52701927D01*
X-8218309Y-52834736D01*
X-8285418Y-52938060D01*
X-8378867Y-53015866D01*
X-8434916Y-53045871D01*
X-8541425Y-53076801D01*
X-8664940Y-53084579D01*
X-8787094Y-53069303D01*
X-8865079Y-53043548D01*
X-8936484Y-53007561D01*
X-9002870Y-52968495D01*
X-9018537Y-52957905D01*
X-9080500Y-52913784D01*
X-9080500Y-52408667D01*
X-8593666Y-52408667D01*
X-8593666Y-52620333D01*
X-8826500Y-52620333D01*
X-8826500Y-52712186D01*
X-8822483Y-52773354D01*
X-8805789Y-52807616D01*
X-8772587Y-52828602D01*
X-8694460Y-52849481D01*
X-8609901Y-52850705D01*
X-8562746Y-52839973D01*
X-8517100Y-52801811D01*
X-8479040Y-52730885D01*
X-8450590Y-52636398D01*
X-8433776Y-52527552D01*
X-8430624Y-52413550D01*
X-8443157Y-52303595D01*
X-8443904Y-52299935D01*
X-8476812Y-52201424D01*
X-8525897Y-52129079D01*
X-8585457Y-52086485D01*
X-8649790Y-52077229D01*
X-8713193Y-52104895D01*
X-8730185Y-52119927D01*
X-8766426Y-52164689D01*
X-8783885Y-52202997D01*
X-8784166Y-52206621D01*
X-8803080Y-52229411D01*
X-8856041Y-52237172D01*
X-8937377Y-52229521D01*
X-8985250Y-52220170D01*
X-9030179Y-52203513D01*
X-9043788Y-52173734D01*
X-9042771Y-52153884D01*
X-9016426Y-52075028D01*
X-8961760Y-51995165D01*
X-8889984Y-51928431D01*
X-8840975Y-51899470D01*
X-8739759Y-51869465D01*
X-8625416Y-51859263D01*
X-8481200Y-51876126D01*
G36*
X-12899168Y-52095512D02*
G01*
X-12885017Y-52096472D01*
X-12744004Y-52123307D01*
X-12631577Y-52181303D01*
X-12548178Y-52269997D01*
X-12494249Y-52388926D01*
X-12470676Y-52530094D01*
X-12475203Y-52691417D01*
X-12509775Y-52829098D01*
X-12573003Y-52940116D01*
X-12663496Y-53021452D01*
X-12708126Y-53045506D01*
X-12809723Y-53075050D01*
X-12929639Y-53085279D01*
X-13049514Y-53076175D01*
X-13150986Y-53047725D01*
X-13155083Y-53045871D01*
X-13231304Y-52999583D01*
X-13300698Y-52938713D01*
X-13350003Y-52875778D01*
X-13361941Y-52850589D01*
X-13361485Y-52829750D01*
X-13336970Y-52815914D01*
X-13280429Y-52805438D01*
X-13256782Y-52802493D01*
X-13187143Y-52796361D01*
X-13143989Y-52801054D01*
X-13112092Y-52820193D01*
X-13090165Y-52842113D01*
X-13029224Y-52885166D01*
X-12964202Y-52895500D01*
X-12874424Y-52883389D01*
X-12812289Y-52843717D01*
X-12772291Y-52778059D01*
X-12751730Y-52727352D01*
X-12742498Y-52691061D01*
X-12749670Y-52666776D01*
X-12778321Y-52652088D01*
X-12833525Y-52644585D01*
X-12920358Y-52641859D01*
X-13043893Y-52641499D01*
X-13059833Y-52641500D01*
X-13377333Y-52641500D01*
X-13377333Y-52549408D01*
X-13363893Y-52445196D01*
X-13117915Y-52445196D01*
X-13097439Y-52462312D01*
X-13047375Y-52470067D01*
X-12962103Y-52472117D01*
X-12932833Y-52472167D01*
X-12848939Y-52471008D01*
X-12783895Y-52467906D01*
X-12747148Y-52463417D01*
X-12742333Y-52460903D01*
X-12749741Y-52435692D01*
X-12767926Y-52388471D01*
X-12771480Y-52379883D01*
X-12818780Y-52312968D01*
X-12884777Y-52276648D01*
X-12958496Y-52271320D01*
X-13028967Y-52297381D01*
X-13085216Y-52355228D01*
X-13092581Y-52368263D01*
X-13114423Y-52415065D01*
X-13117915Y-52445196D01*
X-13363893Y-52445196D01*
X-13359484Y-52411018D01*
X-13308426Y-52290115D01*
X-13227896Y-52192991D01*
X-13127314Y-52128398D01*
X-13059321Y-52103963D01*
X-12989450Y-52093815D01*
X-12899168Y-52095512D01*
G37*
X-12899168Y-52095512D02*
X-12885017Y-52096472D01*
X-12744004Y-52123307D01*
X-12631577Y-52181303D01*
X-12548178Y-52269997D01*
X-12494249Y-52388926D01*
X-12470676Y-52530094D01*
X-12475203Y-52691417D01*
X-12509775Y-52829098D01*
X-12573003Y-52940116D01*
X-12663496Y-53021452D01*
X-12708126Y-53045506D01*
X-12809723Y-53075050D01*
X-12929639Y-53085279D01*
X-13049514Y-53076175D01*
X-13150986Y-53047725D01*
X-13155083Y-53045871D01*
X-13231304Y-52999583D01*
X-13300698Y-52938713D01*
X-13350003Y-52875778D01*
X-13361941Y-52850589D01*
X-13361485Y-52829750D01*
X-13336970Y-52815914D01*
X-13280429Y-52805438D01*
X-13256782Y-52802493D01*
X-13187143Y-52796361D01*
X-13143989Y-52801054D01*
X-13112092Y-52820193D01*
X-13090165Y-52842113D01*
X-13029224Y-52885166D01*
X-12964202Y-52895500D01*
X-12874424Y-52883389D01*
X-12812289Y-52843717D01*
X-12772291Y-52778059D01*
X-12751730Y-52727352D01*
X-12742498Y-52691061D01*
X-12749670Y-52666776D01*
X-12778321Y-52652088D01*
X-12833525Y-52644585D01*
X-12920358Y-52641859D01*
X-13043893Y-52641499D01*
X-13059833Y-52641500D01*
X-13377333Y-52641500D01*
X-13377333Y-52549408D01*
X-13363893Y-52445196D01*
X-13117915Y-52445196D01*
X-13097439Y-52462312D01*
X-13047375Y-52470067D01*
X-12962103Y-52472117D01*
X-12932833Y-52472167D01*
X-12848939Y-52471008D01*
X-12783895Y-52467906D01*
X-12747148Y-52463417D01*
X-12742333Y-52460903D01*
X-12749741Y-52435692D01*
X-12767926Y-52388471D01*
X-12771480Y-52379883D01*
X-12818780Y-52312968D01*
X-12884777Y-52276648D01*
X-12958496Y-52271320D01*
X-13028967Y-52297381D01*
X-13085216Y-52355228D01*
X-13092581Y-52368263D01*
X-13114423Y-52415065D01*
X-13117915Y-52445196D01*
X-13363893Y-52445196D01*
X-13359484Y-52411018D01*
X-13308426Y-52290115D01*
X-13227896Y-52192991D01*
X-13127314Y-52128398D01*
X-13059321Y-52103963D01*
X-12989450Y-52093815D01*
X-12899168Y-52095512D01*
G36*
X-13790083Y-51985333D02*
G01*
X-13768091Y-52054505D01*
X-13749455Y-52092485D01*
X-13725354Y-52108624D01*
X-13686969Y-52112275D01*
X-13670315Y-52112333D01*
X-13589000Y-52112333D01*
X-13589000Y-52207583D01*
X-13590581Y-52266109D01*
X-13601300Y-52293823D01*
X-13630116Y-52302246D01*
X-13663083Y-52302833D01*
X-13737166Y-52302833D01*
X-13737166Y-52596036D01*
X-13737682Y-52714783D01*
X-13739967Y-52799562D01*
X-13745128Y-52858734D01*
X-13754273Y-52900658D01*
X-13768509Y-52933696D01*
X-13785524Y-52961161D01*
X-13840045Y-53018967D01*
X-13905337Y-53057678D01*
X-13907233Y-53058347D01*
X-13978687Y-53073019D01*
X-14077772Y-53080282D01*
X-14190362Y-53079694D01*
X-14302331Y-53070817D01*
X-14303375Y-53070688D01*
X-14346086Y-53062463D01*
X-14366037Y-53043425D01*
X-14371858Y-53000824D01*
X-14372166Y-52969038D01*
X-14372166Y-52875926D01*
X-14238268Y-52888430D01*
X-14153223Y-52894920D01*
X-14092740Y-52892112D01*
X-14052636Y-52874245D01*
X-14028727Y-52835557D01*
X-14016831Y-52770285D01*
X-14012763Y-52672669D01*
X-14012333Y-52577255D01*
X-14012333Y-52302833D01*
X-14329833Y-52302833D01*
X-14329833Y-52112333D01*
X-14012333Y-52112333D01*
X-14012333Y-51858333D01*
X-13828536Y-51858333D01*
X-13790083Y-51985333D01*
G37*
X-13790083Y-51985333D02*
X-13768091Y-52054505D01*
X-13749455Y-52092485D01*
X-13725354Y-52108624D01*
X-13686969Y-52112275D01*
X-13670315Y-52112333D01*
X-13589000Y-52112333D01*
X-13589000Y-52207583D01*
X-13590581Y-52266109D01*
X-13601300Y-52293823D01*
X-13630116Y-52302246D01*
X-13663083Y-52302833D01*
X-13737166Y-52302833D01*
X-13737166Y-52596036D01*
X-13737682Y-52714783D01*
X-13739967Y-52799562D01*
X-13745128Y-52858734D01*
X-13754273Y-52900658D01*
X-13768509Y-52933696D01*
X-13785524Y-52961161D01*
X-13840045Y-53018967D01*
X-13905337Y-53057678D01*
X-13907233Y-53058347D01*
X-13978687Y-53073019D01*
X-14077772Y-53080282D01*
X-14190362Y-53079694D01*
X-14302331Y-53070817D01*
X-14303375Y-53070688D01*
X-14346086Y-53062463D01*
X-14366037Y-53043425D01*
X-14371858Y-53000824D01*
X-14372166Y-52969038D01*
X-14372166Y-52875926D01*
X-14238268Y-52888430D01*
X-14153223Y-52894920D01*
X-14092740Y-52892112D01*
X-14052636Y-52874245D01*
X-14028727Y-52835557D01*
X-14016831Y-52770285D01*
X-14012763Y-52672669D01*
X-14012333Y-52577255D01*
X-14012333Y-52302833D01*
X-14329833Y-52302833D01*
X-14329833Y-52112333D01*
X-14012333Y-52112333D01*
X-14012333Y-51858333D01*
X-13828536Y-51858333D01*
X-13790083Y-51985333D01*
G36*
X16239571Y-52097584D02*
G01*
X16348301Y-52131304D01*
X16433285Y-52199352D01*
X16493726Y-52300487D01*
X16528830Y-52433466D01*
X16538145Y-52563989D01*
X16529386Y-52722397D01*
X16500444Y-52847025D01*
X16449439Y-52942266D01*
X16374489Y-53012511D01*
X16336426Y-53035094D01*
X16247553Y-53061219D01*
X16148245Y-53059404D01*
X16052691Y-53032559D01*
X15975081Y-52983593D01*
X15950386Y-52955944D01*
X15930862Y-52930773D01*
X15921626Y-52929046D01*
X15921057Y-52956640D01*
X15927531Y-53019436D01*
X15929106Y-53033083D01*
X15943746Y-53129616D01*
X15963736Y-53192975D01*
X15993521Y-53232312D01*
X16037546Y-53256776D01*
X16037833Y-53256885D01*
X16110313Y-53267943D01*
X16173448Y-53239749D01*
X16211812Y-53199967D01*
X16238122Y-53171002D01*
X16266984Y-53157013D01*
X16311664Y-53155020D01*
X16382237Y-53161680D01*
X16452780Y-53170953D01*
X16489721Y-53181307D01*
X16501659Y-53197165D01*
X16497752Y-53221087D01*
X16449949Y-53317155D01*
X16371188Y-53386169D01*
X16260546Y-53428646D01*
X16117105Y-53445100D01*
X16097250Y-53445352D01*
X15987884Y-53439692D01*
X15902821Y-53419908D01*
X15859643Y-53401527D01*
X15787368Y-53352417D01*
X15728451Y-53289462D01*
X15722059Y-53279836D01*
X15707355Y-53254537D01*
X15695903Y-53227996D01*
X15687219Y-53194678D01*
X15680813Y-53149048D01*
X15676201Y-53085571D01*
X15672895Y-52998711D01*
X15670408Y-52882933D01*
X15668254Y-52732702D01*
X15667324Y-52657375D01*
X15666426Y-52583063D01*
X15928751Y-52583063D01*
X15940160Y-52686271D01*
X15971369Y-52773968D01*
X16017152Y-52831811D01*
X16072727Y-52866317D01*
X16119518Y-52867863D01*
X16170299Y-52835055D01*
X16194128Y-52812461D01*
X16226864Y-52774061D01*
X16247297Y-52731340D01*
X16257427Y-52674360D01*
X16259250Y-52593183D01*
X16256082Y-52504348D01*
X16237599Y-52399671D01*
X16198403Y-52327496D01*
X16145590Y-52288444D01*
X16086254Y-52283134D01*
X16027488Y-52312184D01*
X15976389Y-52376213D01*
X15940049Y-52475842D01*
X15939844Y-52476753D01*
X15928751Y-52583063D01*
X15666426Y-52583063D01*
X15660732Y-52112333D01*
X15789033Y-52112333D01*
X15859832Y-52113370D01*
X15898209Y-52119300D01*
X15914070Y-52134355D01*
X15917320Y-52162766D01*
X15917334Y-52167131D01*
X15917334Y-52221930D01*
X15982465Y-52167125D01*
X16062777Y-52114345D01*
X16147860Y-52093309D01*
X16239571Y-52097584D01*
G37*
X16239571Y-52097584D02*
X16348301Y-52131304D01*
X16433285Y-52199352D01*
X16493726Y-52300487D01*
X16528830Y-52433466D01*
X16538145Y-52563989D01*
X16529386Y-52722397D01*
X16500444Y-52847025D01*
X16449439Y-52942266D01*
X16374489Y-53012511D01*
X16336426Y-53035094D01*
X16247553Y-53061219D01*
X16148245Y-53059404D01*
X16052691Y-53032559D01*
X15975081Y-52983593D01*
X15950386Y-52955944D01*
X15930862Y-52930773D01*
X15921626Y-52929046D01*
X15921057Y-52956640D01*
X15927531Y-53019436D01*
X15929106Y-53033083D01*
X15943746Y-53129616D01*
X15963736Y-53192975D01*
X15993521Y-53232312D01*
X16037546Y-53256776D01*
X16037833Y-53256885D01*
X16110313Y-53267943D01*
X16173448Y-53239749D01*
X16211812Y-53199967D01*
X16238122Y-53171002D01*
X16266984Y-53157013D01*
X16311664Y-53155020D01*
X16382237Y-53161680D01*
X16452780Y-53170953D01*
X16489721Y-53181307D01*
X16501659Y-53197165D01*
X16497752Y-53221087D01*
X16449949Y-53317155D01*
X16371188Y-53386169D01*
X16260546Y-53428646D01*
X16117105Y-53445100D01*
X16097250Y-53445352D01*
X15987884Y-53439692D01*
X15902821Y-53419908D01*
X15859643Y-53401527D01*
X15787368Y-53352417D01*
X15728451Y-53289462D01*
X15722059Y-53279836D01*
X15707355Y-53254537D01*
X15695903Y-53227996D01*
X15687219Y-53194678D01*
X15680813Y-53149048D01*
X15676201Y-53085571D01*
X15672895Y-52998711D01*
X15670408Y-52882933D01*
X15668254Y-52732702D01*
X15667324Y-52657375D01*
X15666426Y-52583063D01*
X15928751Y-52583063D01*
X15940160Y-52686271D01*
X15971369Y-52773968D01*
X16017152Y-52831811D01*
X16072727Y-52866317D01*
X16119518Y-52867863D01*
X16170299Y-52835055D01*
X16194128Y-52812461D01*
X16226864Y-52774061D01*
X16247297Y-52731340D01*
X16257427Y-52674360D01*
X16259250Y-52593183D01*
X16256082Y-52504348D01*
X16237599Y-52399671D01*
X16198403Y-52327496D01*
X16145590Y-52288444D01*
X16086254Y-52283134D01*
X16027488Y-52312184D01*
X15976389Y-52376213D01*
X15940049Y-52475842D01*
X15939844Y-52476753D01*
X15928751Y-52583063D01*
X15666426Y-52583063D01*
X15660732Y-52112333D01*
X15789033Y-52112333D01*
X15859832Y-52113370D01*
X15898209Y-52119300D01*
X15914070Y-52134355D01*
X15917320Y-52162766D01*
X15917334Y-52167131D01*
X15917334Y-52221930D01*
X15982465Y-52167125D01*
X16062777Y-52114345D01*
X16147860Y-52093309D01*
X16239571Y-52097584D01*
G36*
X5537557Y-52106541D02*
G01*
X5633122Y-52156362D01*
X5710471Y-52238528D01*
X5721496Y-52256146D01*
X5758129Y-52346926D01*
X5781520Y-52463904D01*
X5789864Y-52592516D01*
X5781356Y-52718199D01*
X5779932Y-52727449D01*
X5753643Y-52839175D01*
X5711572Y-52922453D01*
X5645949Y-52990402D01*
X5607221Y-53019094D01*
X5521551Y-53054637D01*
X5420611Y-53061647D01*
X5319731Y-53040842D01*
X5245830Y-53002090D01*
X5180137Y-52953521D01*
X5190107Y-53073752D01*
X5203953Y-53163340D01*
X5231460Y-53220433D01*
X5278672Y-53254177D01*
X5317592Y-53266685D01*
X5361864Y-53269665D01*
X5403098Y-53249289D01*
X5441708Y-53214382D01*
X5481500Y-53177482D01*
X5515962Y-53159282D01*
X5560746Y-53155511D01*
X5631500Y-53161898D01*
X5633280Y-53162099D01*
X5702526Y-53171296D01*
X5738246Y-53181821D01*
X5749122Y-53198257D01*
X5745085Y-53221087D01*
X5697197Y-53317379D01*
X5618420Y-53386375D01*
X5507901Y-53428553D01*
X5364784Y-53444389D01*
X5344584Y-53444540D01*
X5259152Y-53440278D01*
X5181828Y-53429507D01*
X5132917Y-53415832D01*
X5048716Y-53360490D01*
X4977338Y-53281613D01*
X4932742Y-53194819D01*
X4931417Y-53190380D01*
X4925515Y-53148953D01*
X4920265Y-53072177D01*
X4915921Y-52967035D01*
X4912733Y-52840508D01*
X4910954Y-52699579D01*
X4910667Y-52615181D01*
X4910667Y-52609635D01*
X5181458Y-52609635D01*
X5193439Y-52700107D01*
X5222594Y-52777936D01*
X5260951Y-52826708D01*
X5316352Y-52864934D01*
X5364289Y-52868351D01*
X5416397Y-52836042D01*
X5441462Y-52812461D01*
X5477136Y-52769491D01*
X5498510Y-52720702D01*
X5507819Y-52655566D01*
X5507295Y-52563561D01*
X5504688Y-52514500D01*
X5485869Y-52402726D01*
X5445283Y-52327221D01*
X5382879Y-52287911D01*
X5335959Y-52281667D01*
X5280587Y-52300767D01*
X5236217Y-52352086D01*
X5204082Y-52426652D01*
X5185418Y-52515493D01*
X5181458Y-52609635D01*
X4910667Y-52609635D01*
X4910667Y-52112333D01*
X5037667Y-52112333D01*
X5108019Y-52113396D01*
X5145998Y-52119447D01*
X5161560Y-52134783D01*
X5164659Y-52163698D01*
X5164667Y-52167131D01*
X5164667Y-52221930D01*
X5229798Y-52167125D01*
X5327071Y-52110325D01*
X5432598Y-52090663D01*
X5537557Y-52106541D01*
G37*
X5537557Y-52106541D02*
X5633122Y-52156362D01*
X5710471Y-52238528D01*
X5721496Y-52256146D01*
X5758129Y-52346926D01*
X5781520Y-52463904D01*
X5789864Y-52592516D01*
X5781356Y-52718199D01*
X5779932Y-52727449D01*
X5753643Y-52839175D01*
X5711572Y-52922453D01*
X5645949Y-52990402D01*
X5607221Y-53019094D01*
X5521551Y-53054637D01*
X5420611Y-53061647D01*
X5319731Y-53040842D01*
X5245830Y-53002090D01*
X5180137Y-52953521D01*
X5190107Y-53073752D01*
X5203953Y-53163340D01*
X5231460Y-53220433D01*
X5278672Y-53254177D01*
X5317592Y-53266685D01*
X5361864Y-53269665D01*
X5403098Y-53249289D01*
X5441708Y-53214382D01*
X5481500Y-53177482D01*
X5515962Y-53159282D01*
X5560746Y-53155511D01*
X5631500Y-53161898D01*
X5633280Y-53162099D01*
X5702526Y-53171296D01*
X5738246Y-53181821D01*
X5749122Y-53198257D01*
X5745085Y-53221087D01*
X5697197Y-53317379D01*
X5618420Y-53386375D01*
X5507901Y-53428553D01*
X5364784Y-53444389D01*
X5344584Y-53444540D01*
X5259152Y-53440278D01*
X5181828Y-53429507D01*
X5132917Y-53415832D01*
X5048716Y-53360490D01*
X4977338Y-53281613D01*
X4932742Y-53194819D01*
X4931417Y-53190380D01*
X4925515Y-53148953D01*
X4920265Y-53072177D01*
X4915921Y-52967035D01*
X4912733Y-52840508D01*
X4910954Y-52699579D01*
X4910667Y-52615181D01*
X4910667Y-52609635D01*
X5181458Y-52609635D01*
X5193439Y-52700107D01*
X5222594Y-52777936D01*
X5260951Y-52826708D01*
X5316352Y-52864934D01*
X5364289Y-52868351D01*
X5416397Y-52836042D01*
X5441462Y-52812461D01*
X5477136Y-52769491D01*
X5498510Y-52720702D01*
X5507819Y-52655566D01*
X5507295Y-52563561D01*
X5504688Y-52514500D01*
X5485869Y-52402726D01*
X5445283Y-52327221D01*
X5382879Y-52287911D01*
X5335959Y-52281667D01*
X5280587Y-52300767D01*
X5236217Y-52352086D01*
X5204082Y-52426652D01*
X5185418Y-52515493D01*
X5181458Y-52609635D01*
X4910667Y-52609635D01*
X4910667Y-52112333D01*
X5037667Y-52112333D01*
X5108019Y-52113396D01*
X5145998Y-52119447D01*
X5161560Y-52134783D01*
X5164659Y-52163698D01*
X5164667Y-52167131D01*
X5164667Y-52221930D01*
X5229798Y-52167125D01*
X5327071Y-52110325D01*
X5432598Y-52090663D01*
X5537557Y-52106541D01*
G36*
X1482945Y-52113498D02*
G01*
X1533730Y-52120608D01*
X1559754Y-52132603D01*
X1560449Y-52138792D01*
X1549576Y-52165302D01*
X1524881Y-52224923D01*
X1488842Y-52311694D01*
X1443934Y-52419656D01*
X1392633Y-52542847D01*
X1366560Y-52605412D01*
X1304484Y-52757478D01*
X1255119Y-52884997D01*
X1219707Y-52984479D01*
X1199493Y-53052433D01*
X1195666Y-53085208D01*
X1217608Y-53129981D01*
X1251242Y-53179504D01*
X1289343Y-53215898D01*
X1338364Y-53231635D01*
X1389113Y-53234167D01*
X1483986Y-53234167D01*
X1477535Y-53334708D01*
X1471084Y-53435250D01*
X1344084Y-53440541D01*
X1223229Y-53434496D01*
X1146751Y-53410693D01*
X1088438Y-53369428D01*
X1033754Y-53312137D01*
X1024587Y-53299568D01*
X1003093Y-53259861D01*
X968957Y-53186712D01*
X924784Y-53086171D01*
X873181Y-52964288D01*
X816754Y-52827112D01*
X759349Y-52683833D01*
X703010Y-52541636D01*
X651547Y-52412319D01*
X607063Y-52301117D01*
X571660Y-52213266D01*
X547439Y-52154001D01*
X536502Y-52128558D01*
X536306Y-52128208D01*
X550688Y-52120422D01*
X597581Y-52114760D01*
X667175Y-52112352D01*
X674331Y-52112333D01*
X821994Y-52112333D01*
X907269Y-52371625D01*
X942153Y-52479258D01*
X974257Y-52581129D01*
X1000036Y-52665814D01*
X1015948Y-52721889D01*
X1016040Y-52722245D01*
X1039536Y-52813573D01*
X1151858Y-52486807D01*
X1190610Y-52375191D01*
X1225439Y-52276965D01*
X1253696Y-52199438D01*
X1272732Y-52149919D01*
X1278923Y-52136187D01*
X1305388Y-52122618D01*
X1356437Y-52114389D01*
X1419735Y-52111387D01*
X1482945Y-52113498D01*
G37*
X1482945Y-52113498D02*
X1533730Y-52120608D01*
X1559754Y-52132603D01*
X1560449Y-52138792D01*
X1549576Y-52165302D01*
X1524881Y-52224923D01*
X1488842Y-52311694D01*
X1443934Y-52419656D01*
X1392633Y-52542847D01*
X1366560Y-52605412D01*
X1304484Y-52757478D01*
X1255119Y-52884997D01*
X1219707Y-52984479D01*
X1199493Y-53052433D01*
X1195666Y-53085208D01*
X1217608Y-53129981D01*
X1251242Y-53179504D01*
X1289343Y-53215898D01*
X1338364Y-53231635D01*
X1389113Y-53234167D01*
X1483986Y-53234167D01*
X1477535Y-53334708D01*
X1471084Y-53435250D01*
X1344084Y-53440541D01*
X1223229Y-53434496D01*
X1146751Y-53410693D01*
X1088438Y-53369428D01*
X1033754Y-53312137D01*
X1024587Y-53299568D01*
X1003093Y-53259861D01*
X968957Y-53186712D01*
X924784Y-53086171D01*
X873181Y-52964288D01*
X816754Y-52827112D01*
X759349Y-52683833D01*
X703010Y-52541636D01*
X651547Y-52412319D01*
X607063Y-52301117D01*
X571660Y-52213266D01*
X547439Y-52154001D01*
X536502Y-52128558D01*
X536306Y-52128208D01*
X550688Y-52120422D01*
X597581Y-52114760D01*
X667175Y-52112352D01*
X674331Y-52112333D01*
X821994Y-52112333D01*
X907269Y-52371625D01*
X942153Y-52479258D01*
X974257Y-52581129D01*
X1000036Y-52665814D01*
X1015948Y-52721889D01*
X1016040Y-52722245D01*
X1039536Y-52813573D01*
X1151858Y-52486807D01*
X1190610Y-52375191D01*
X1225439Y-52276965D01*
X1253696Y-52199438D01*
X1272732Y-52149919D01*
X1278923Y-52136187D01*
X1305388Y-52122618D01*
X1356437Y-52114389D01*
X1419735Y-52111387D01*
X1482945Y-52113498D01*
G36*
X18351500Y-57446333D02*
G01*
X18097500Y-57446333D01*
X18097500Y-57234667D01*
X18351500Y-57234667D01*
X18351500Y-57446333D01*
G37*
X18351500Y-57446333D02*
X18097500Y-57446333D01*
X18097500Y-57234667D01*
X18351500Y-57234667D01*
X18351500Y-57446333D01*
G36*
X8678334Y-57446333D02*
G01*
X8403167Y-57446333D01*
X8403167Y-57234667D01*
X8678334Y-57234667D01*
X8678334Y-57446333D01*
G37*
X8678334Y-57446333D02*
X8403167Y-57446333D01*
X8403167Y-57234667D01*
X8678334Y-57234667D01*
X8678334Y-57446333D01*
G36*
X-3153833Y-57446333D02*
G01*
X-3407833Y-57446333D01*
X-3407833Y-57234667D01*
X-3153833Y-57234667D01*
X-3153833Y-57446333D01*
G37*
X-3153833Y-57446333D02*
X-3407833Y-57446333D01*
X-3407833Y-57234667D01*
X-3153833Y-57234667D01*
X-3153833Y-57446333D01*
G36*
X19748500Y-58568167D02*
G01*
X19446875Y-58566258D01*
X19331439Y-58564094D01*
X19225212Y-58559493D01*
X19138335Y-58553076D01*
X19080951Y-58545463D01*
X19071940Y-58543315D01*
X18970273Y-58496698D01*
X18893215Y-58427025D01*
X18842139Y-58341857D01*
X18818422Y-58248756D01*
X18820532Y-58209410D01*
X19104543Y-58209410D01*
X19111005Y-58243471D01*
X19142428Y-58300890D01*
X19202823Y-58337182D01*
X19296271Y-58354258D01*
X19351625Y-58356188D01*
X19473334Y-58356500D01*
X19473334Y-58039000D01*
X19357913Y-58039000D01*
X19242468Y-58050197D01*
X19160878Y-58083059D01*
X19114463Y-58136495D01*
X19104543Y-58209410D01*
X18820532Y-58209410D01*
X18823437Y-58155281D01*
X18858562Y-58068995D01*
X18925169Y-57997458D01*
X18967865Y-57971018D01*
X19044481Y-57931880D01*
X18973157Y-57860557D01*
X18918202Y-57778550D01*
X18899770Y-57700021D01*
X19177000Y-57700021D01*
X19189335Y-57764806D01*
X19229309Y-57805291D01*
X19301376Y-57824602D01*
X19358429Y-57827333D01*
X19473334Y-57827333D01*
X19473334Y-57573333D01*
X19372210Y-57573333D01*
X19274150Y-57585192D01*
X19209175Y-57620018D01*
X19179016Y-57676688D01*
X19177000Y-57700021D01*
X18899770Y-57700021D01*
X18895826Y-57683221D01*
X18904556Y-57585397D01*
X18942919Y-57495907D01*
X19009441Y-57425578D01*
X19034483Y-57409934D01*
X19071230Y-57394567D01*
X19121135Y-57383258D01*
X19191450Y-57375182D01*
X19289427Y-57369513D01*
X19422318Y-57365422D01*
X19425709Y-57365343D01*
X19748500Y-57357867D01*
X19748500Y-58568167D01*
G37*
X19748500Y-58568167D02*
X19446875Y-58566258D01*
X19331439Y-58564094D01*
X19225212Y-58559493D01*
X19138335Y-58553076D01*
X19080951Y-58545463D01*
X19071940Y-58543315D01*
X18970273Y-58496698D01*
X18893215Y-58427025D01*
X18842139Y-58341857D01*
X18818422Y-58248756D01*
X18820532Y-58209410D01*
X19104543Y-58209410D01*
X19111005Y-58243471D01*
X19142428Y-58300890D01*
X19202823Y-58337182D01*
X19296271Y-58354258D01*
X19351625Y-58356188D01*
X19473334Y-58356500D01*
X19473334Y-58039000D01*
X19357913Y-58039000D01*
X19242468Y-58050197D01*
X19160878Y-58083059D01*
X19114463Y-58136495D01*
X19104543Y-58209410D01*
X18820532Y-58209410D01*
X18823437Y-58155281D01*
X18858562Y-58068995D01*
X18925169Y-57997458D01*
X18967865Y-57971018D01*
X19044481Y-57931880D01*
X18973157Y-57860557D01*
X18918202Y-57778550D01*
X18899770Y-57700021D01*
X19177000Y-57700021D01*
X19189335Y-57764806D01*
X19229309Y-57805291D01*
X19301376Y-57824602D01*
X19358429Y-57827333D01*
X19473334Y-57827333D01*
X19473334Y-57573333D01*
X19372210Y-57573333D01*
X19274150Y-57585192D01*
X19209175Y-57620018D01*
X19179016Y-57676688D01*
X19177000Y-57700021D01*
X18899770Y-57700021D01*
X18895826Y-57683221D01*
X18904556Y-57585397D01*
X18942919Y-57495907D01*
X19009441Y-57425578D01*
X19034483Y-57409934D01*
X19071230Y-57394567D01*
X19121135Y-57383258D01*
X19191450Y-57375182D01*
X19289427Y-57369513D01*
X19422318Y-57365422D01*
X19425709Y-57365343D01*
X19748500Y-57357867D01*
X19748500Y-58568167D01*
G36*
X18605500Y-57785000D02*
G01*
X18351500Y-57785000D01*
X18351500Y-58377667D01*
X18690167Y-58377667D01*
X18690167Y-58568167D01*
X17780000Y-58568167D01*
X17780000Y-58377667D01*
X18097500Y-58377667D01*
X18097500Y-57594500D01*
X18605500Y-57594500D01*
X18605500Y-57785000D01*
G37*
X18605500Y-57785000D02*
X18351500Y-57785000D01*
X18351500Y-58377667D01*
X18690167Y-58377667D01*
X18690167Y-58568167D01*
X17780000Y-58568167D01*
X17780000Y-58377667D01*
X18097500Y-58377667D01*
X18097500Y-57594500D01*
X18605500Y-57594500D01*
X18605500Y-57785000D01*
G36*
X17121755Y-57587982D02*
G01*
X17216146Y-57623256D01*
X17276351Y-57669549D01*
X17320625Y-57710413D01*
X17345580Y-57715640D01*
X17355728Y-57684580D01*
X17356667Y-57658000D01*
X17358330Y-57622850D01*
X17369971Y-57603879D01*
X17401568Y-57596095D01*
X17463099Y-57594512D01*
X17483667Y-57594500D01*
X17610667Y-57594500D01*
X17610667Y-58568167D01*
X17335500Y-58568167D01*
X17335500Y-58273211D01*
X17334106Y-58161308D01*
X17330288Y-58060879D01*
X17324586Y-57981414D01*
X17317546Y-57932403D01*
X17315630Y-57925994D01*
X17273052Y-57853546D01*
X17215351Y-57806202D01*
X17151748Y-57786915D01*
X17091464Y-57798640D01*
X17046570Y-57839799D01*
X17032050Y-57870024D01*
X17021096Y-57914587D01*
X17012932Y-57980153D01*
X17006781Y-58073384D01*
X17001867Y-58200942D01*
X17000958Y-58231383D01*
X16991251Y-58568167D01*
X16742834Y-58568167D01*
X16742952Y-58213625D01*
X16744542Y-58050091D01*
X16749880Y-57922860D01*
X16760001Y-57825989D01*
X16775939Y-57753535D01*
X16798730Y-57699554D01*
X16829408Y-57658103D01*
X16841813Y-57645813D01*
X16921576Y-57598550D01*
X17019228Y-57579510D01*
X17121755Y-57587982D01*
G37*
X17121755Y-57587982D02*
X17216146Y-57623256D01*
X17276351Y-57669549D01*
X17320625Y-57710413D01*
X17345580Y-57715640D01*
X17355728Y-57684580D01*
X17356667Y-57658000D01*
X17358330Y-57622850D01*
X17369971Y-57603879D01*
X17401568Y-57596095D01*
X17463099Y-57594512D01*
X17483667Y-57594500D01*
X17610667Y-57594500D01*
X17610667Y-58568167D01*
X17335500Y-58568167D01*
X17335500Y-58273211D01*
X17334106Y-58161308D01*
X17330288Y-58060879D01*
X17324586Y-57981414D01*
X17317546Y-57932403D01*
X17315630Y-57925994D01*
X17273052Y-57853546D01*
X17215351Y-57806202D01*
X17151748Y-57786915D01*
X17091464Y-57798640D01*
X17046570Y-57839799D01*
X17032050Y-57870024D01*
X17021096Y-57914587D01*
X17012932Y-57980153D01*
X17006781Y-58073384D01*
X17001867Y-58200942D01*
X17000958Y-58231383D01*
X16991251Y-58568167D01*
X16742834Y-58568167D01*
X16742952Y-58213625D01*
X16744542Y-58050091D01*
X16749880Y-57922860D01*
X16760001Y-57825989D01*
X16775939Y-57753535D01*
X16798730Y-57699554D01*
X16829408Y-57658103D01*
X16841813Y-57645813D01*
X16921576Y-57598550D01*
X17019228Y-57579510D01*
X17121755Y-57587982D01*
G36*
X14952914Y-57607139D02*
G01*
X15043658Y-57669091D01*
X15112910Y-57738343D01*
X15130095Y-57671713D01*
X15141642Y-57635376D01*
X15159893Y-57614815D01*
X15195859Y-57604702D01*
X15260551Y-57599711D01*
X15280986Y-57598712D01*
X15353036Y-57596313D01*
X15391004Y-57599346D01*
X15403021Y-57610030D01*
X15397273Y-57630462D01*
X15391707Y-57662340D01*
X15386081Y-57729688D01*
X15380758Y-57825646D01*
X15376097Y-57943352D01*
X15372461Y-58075946D01*
X15371609Y-58118375D01*
X15363362Y-58568167D01*
X15091834Y-58568167D01*
X15091369Y-58319458D01*
X15086655Y-58168629D01*
X15071763Y-58052868D01*
X15044606Y-57965692D01*
X15003099Y-57900616D01*
X14945157Y-57851157D01*
X14939606Y-57847591D01*
X14889385Y-57822087D01*
X14834536Y-57811033D01*
X14758420Y-57811580D01*
X14737292Y-57812966D01*
X14605000Y-57822458D01*
X14605000Y-57597094D01*
X14698548Y-57583065D01*
X14836936Y-57577993D01*
X14952914Y-57607139D01*
G37*
X14952914Y-57607139D02*
X15043658Y-57669091D01*
X15112910Y-57738343D01*
X15130095Y-57671713D01*
X15141642Y-57635376D01*
X15159893Y-57614815D01*
X15195859Y-57604702D01*
X15260551Y-57599711D01*
X15280986Y-57598712D01*
X15353036Y-57596313D01*
X15391004Y-57599346D01*
X15403021Y-57610030D01*
X15397273Y-57630462D01*
X15391707Y-57662340D01*
X15386081Y-57729688D01*
X15380758Y-57825646D01*
X15376097Y-57943352D01*
X15372461Y-58075946D01*
X15371609Y-58118375D01*
X15363362Y-58568167D01*
X15091834Y-58568167D01*
X15091369Y-58319458D01*
X15086655Y-58168629D01*
X15071763Y-58052868D01*
X15044606Y-57965692D01*
X15003099Y-57900616D01*
X14945157Y-57851157D01*
X14939606Y-57847591D01*
X14889385Y-57822087D01*
X14834536Y-57811033D01*
X14758420Y-57811580D01*
X14737292Y-57812966D01*
X14605000Y-57822458D01*
X14605000Y-57597094D01*
X14698548Y-57583065D01*
X14836936Y-57577993D01*
X14952914Y-57607139D01*
G36*
X13056258Y-57593163D02*
G01*
X13101185Y-57632595D01*
X13165667Y-57697077D01*
X13165667Y-57645788D01*
X13169587Y-57614734D01*
X13188706Y-57599614D01*
X13234065Y-57594792D01*
X13266209Y-57594482D01*
X13366750Y-57594464D01*
X13360699Y-58081315D01*
X13354649Y-58568167D01*
X13148769Y-58568167D01*
X13140858Y-58213625D01*
X13135921Y-58058874D01*
X13128332Y-57941972D01*
X13117201Y-57858472D01*
X13101637Y-57803924D01*
X13080749Y-57773883D01*
X13053647Y-57763900D01*
X13050770Y-57763833D01*
X13032330Y-57768028D01*
X13018529Y-57784083D01*
X13008716Y-57817202D01*
X13002242Y-57872588D01*
X12998454Y-57955446D01*
X12996705Y-58070979D01*
X12996334Y-58199481D01*
X12996334Y-58568167D01*
X12763500Y-58568167D01*
X12763500Y-58219912D01*
X12761825Y-58062092D01*
X12756334Y-57942423D01*
X12746334Y-57856839D01*
X12731128Y-57801273D01*
X12710020Y-57771659D01*
X12685495Y-57763833D01*
X12661170Y-57773874D01*
X12642721Y-57806667D01*
X12629531Y-57866220D01*
X12620985Y-57956542D01*
X12616467Y-58081641D01*
X12615334Y-58220294D01*
X12615334Y-58568167D01*
X12403667Y-58568167D01*
X12403667Y-58165320D01*
X12404851Y-57998510D01*
X12409127Y-57868826D01*
X12417581Y-57771108D01*
X12431299Y-57700196D01*
X12451367Y-57650930D01*
X12478872Y-57618149D01*
X12514898Y-57596695D01*
X12524131Y-57592961D01*
X12605623Y-57579545D01*
X12685973Y-57595086D01*
X12748913Y-57635853D01*
X12757900Y-57646596D01*
X12795250Y-57696889D01*
X12837584Y-57645023D01*
X12894978Y-57601433D01*
X12958310Y-57580635D01*
X13014079Y-57577015D01*
X13056258Y-57593163D01*
G37*
X13056258Y-57593163D02*
X13101185Y-57632595D01*
X13165667Y-57697077D01*
X13165667Y-57645788D01*
X13169587Y-57614734D01*
X13188706Y-57599614D01*
X13234065Y-57594792D01*
X13266209Y-57594482D01*
X13366750Y-57594464D01*
X13360699Y-58081315D01*
X13354649Y-58568167D01*
X13148769Y-58568167D01*
X13140858Y-58213625D01*
X13135921Y-58058874D01*
X13128332Y-57941972D01*
X13117201Y-57858472D01*
X13101637Y-57803924D01*
X13080749Y-57773883D01*
X13053647Y-57763900D01*
X13050770Y-57763833D01*
X13032330Y-57768028D01*
X13018529Y-57784083D01*
X13008716Y-57817202D01*
X13002242Y-57872588D01*
X12998454Y-57955446D01*
X12996705Y-58070979D01*
X12996334Y-58199481D01*
X12996334Y-58568167D01*
X12763500Y-58568167D01*
X12763500Y-58219912D01*
X12761825Y-58062092D01*
X12756334Y-57942423D01*
X12746334Y-57856839D01*
X12731128Y-57801273D01*
X12710020Y-57771659D01*
X12685495Y-57763833D01*
X12661170Y-57773874D01*
X12642721Y-57806667D01*
X12629531Y-57866220D01*
X12620985Y-57956542D01*
X12616467Y-58081641D01*
X12615334Y-58220294D01*
X12615334Y-58568167D01*
X12403667Y-58568167D01*
X12403667Y-58165320D01*
X12404851Y-57998510D01*
X12409127Y-57868826D01*
X12417581Y-57771108D01*
X12431299Y-57700196D01*
X12451367Y-57650930D01*
X12478872Y-57618149D01*
X12514898Y-57596695D01*
X12524131Y-57592961D01*
X12605623Y-57579545D01*
X12685973Y-57595086D01*
X12748913Y-57635853D01*
X12757900Y-57646596D01*
X12795250Y-57696889D01*
X12837584Y-57645023D01*
X12894978Y-57601433D01*
X12958310Y-57580635D01*
X13014079Y-57577015D01*
X13056258Y-57593163D01*
G36*
X10698982Y-57595120D02*
G01*
X10796109Y-57643576D01*
X10841339Y-57683455D01*
X10900834Y-57747143D01*
X10900834Y-57594500D01*
X11154834Y-57594500D01*
X11154834Y-58568167D01*
X10879667Y-58568167D01*
X10879588Y-58255958D01*
X10878922Y-58130871D01*
X10876423Y-58040221D01*
X10871227Y-57976123D01*
X10862470Y-57930693D01*
X10849288Y-57896045D01*
X10837911Y-57875526D01*
X10785605Y-57818659D01*
X10722473Y-57790460D01*
X10659290Y-57791487D01*
X10606834Y-57822299D01*
X10582121Y-57862272D01*
X10575152Y-57901281D01*
X10569244Y-57973780D01*
X10564861Y-58070929D01*
X10562471Y-58183887D01*
X10562167Y-58241461D01*
X10562167Y-58568167D01*
X10287000Y-58568167D01*
X10287000Y-58228290D01*
X10288809Y-58061223D01*
X10294955Y-57930630D01*
X10306515Y-57830779D01*
X10324565Y-57755936D01*
X10350184Y-57700368D01*
X10384448Y-57658342D01*
X10396044Y-57647963D01*
X10487967Y-57596439D01*
X10592607Y-57579116D01*
X10698982Y-57595120D01*
G37*
X10698982Y-57595120D02*
X10796109Y-57643576D01*
X10841339Y-57683455D01*
X10900834Y-57747143D01*
X10900834Y-57594500D01*
X11154834Y-57594500D01*
X11154834Y-58568167D01*
X10879667Y-58568167D01*
X10879588Y-58255958D01*
X10878922Y-58130871D01*
X10876423Y-58040221D01*
X10871227Y-57976123D01*
X10862470Y-57930693D01*
X10849288Y-57896045D01*
X10837911Y-57875526D01*
X10785605Y-57818659D01*
X10722473Y-57790460D01*
X10659290Y-57791487D01*
X10606834Y-57822299D01*
X10582121Y-57862272D01*
X10575152Y-57901281D01*
X10569244Y-57973780D01*
X10564861Y-58070929D01*
X10562471Y-58183887D01*
X10562167Y-58241461D01*
X10562167Y-58568167D01*
X10287000Y-58568167D01*
X10287000Y-58228290D01*
X10288809Y-58061223D01*
X10294955Y-57930630D01*
X10306515Y-57830779D01*
X10324565Y-57755936D01*
X10350184Y-57700368D01*
X10384448Y-57658342D01*
X10396044Y-57647963D01*
X10487967Y-57596439D01*
X10592607Y-57579116D01*
X10698982Y-57595120D01*
G36*
X8932334Y-57785000D02*
G01*
X8678334Y-57785000D01*
X8678334Y-58377667D01*
X9017000Y-58377667D01*
X9017000Y-58568167D01*
X8106834Y-58568167D01*
X8106834Y-58377667D01*
X8403167Y-58377667D01*
X8403167Y-57594500D01*
X8932334Y-57594500D01*
X8932334Y-57785000D01*
G37*
X8932334Y-57785000D02*
X8678334Y-57785000D01*
X8678334Y-58377667D01*
X9017000Y-58377667D01*
X9017000Y-58568167D01*
X8106834Y-58568167D01*
X8106834Y-58377667D01*
X8403167Y-58377667D01*
X8403167Y-57594500D01*
X8932334Y-57594500D01*
X8932334Y-57785000D01*
G36*
X7444760Y-57583338D02*
G01*
X7542812Y-57625772D01*
X7602017Y-57671870D01*
X7658117Y-57725381D01*
X7672491Y-57659940D01*
X7682436Y-57623836D01*
X7699408Y-57604276D01*
X7734468Y-57596191D01*
X7798673Y-57594513D01*
X7815288Y-57594500D01*
X7943712Y-57594500D01*
X7930023Y-57756443D01*
X7925044Y-57837702D01*
X7920875Y-57948367D01*
X7917879Y-58075514D01*
X7916418Y-58206218D01*
X7916334Y-58243277D01*
X7916334Y-58568167D01*
X7662334Y-58568167D01*
X7662334Y-58281737D01*
X7660019Y-58135068D01*
X7652062Y-58024033D01*
X7636938Y-57942133D01*
X7613125Y-57882868D01*
X7579100Y-57839739D01*
X7554026Y-57819516D01*
X7482980Y-57787873D01*
X7420466Y-57796451D01*
X7371780Y-57842208D01*
X7356886Y-57871591D01*
X7345917Y-57912213D01*
X7338073Y-57971088D01*
X7332553Y-58055231D01*
X7328557Y-58171657D01*
X7327099Y-58233791D01*
X7319948Y-58568167D01*
X7069667Y-58568167D01*
X7070132Y-58192458D01*
X7070843Y-58052685D01*
X7073020Y-57947876D01*
X7077320Y-57870668D01*
X7084401Y-57813699D01*
X7094919Y-57769607D01*
X7109533Y-57731030D01*
X7111787Y-57725995D01*
X7169183Y-57645344D01*
X7249465Y-57594060D01*
X7344151Y-57573079D01*
X7444760Y-57583338D01*
G37*
X7444760Y-57583338D02*
X7542812Y-57625772D01*
X7602017Y-57671870D01*
X7658117Y-57725381D01*
X7672491Y-57659940D01*
X7682436Y-57623836D01*
X7699408Y-57604276D01*
X7734468Y-57596191D01*
X7798673Y-57594513D01*
X7815288Y-57594500D01*
X7943712Y-57594500D01*
X7930023Y-57756443D01*
X7925044Y-57837702D01*
X7920875Y-57948367D01*
X7917879Y-58075514D01*
X7916418Y-58206218D01*
X7916334Y-58243277D01*
X7916334Y-58568167D01*
X7662334Y-58568167D01*
X7662334Y-58281737D01*
X7660019Y-58135068D01*
X7652062Y-58024033D01*
X7636938Y-57942133D01*
X7613125Y-57882868D01*
X7579100Y-57839739D01*
X7554026Y-57819516D01*
X7482980Y-57787873D01*
X7420466Y-57796451D01*
X7371780Y-57842208D01*
X7356886Y-57871591D01*
X7345917Y-57912213D01*
X7338073Y-57971088D01*
X7332553Y-58055231D01*
X7328557Y-58171657D01*
X7327099Y-58233791D01*
X7319948Y-58568167D01*
X7069667Y-58568167D01*
X7070132Y-58192458D01*
X7070843Y-58052685D01*
X7073020Y-57947876D01*
X7077320Y-57870668D01*
X7084401Y-57813699D01*
X7094919Y-57769607D01*
X7109533Y-57731030D01*
X7111787Y-57725995D01*
X7169183Y-57645344D01*
X7249465Y-57594060D01*
X7344151Y-57573079D01*
X7444760Y-57583338D01*
G36*
X6560767Y-57342137D02*
G01*
X6588460Y-57353285D01*
X6607880Y-57383294D01*
X6627846Y-57441517D01*
X6635750Y-57467500D01*
X6657742Y-57536672D01*
X6676379Y-57574651D01*
X6700480Y-57590790D01*
X6738864Y-57594442D01*
X6755518Y-57594500D01*
X6836834Y-57594500D01*
X6836834Y-57689750D01*
X6835252Y-57748276D01*
X6824534Y-57775989D01*
X6795718Y-57784412D01*
X6762750Y-57785000D01*
X6688667Y-57785000D01*
X6688667Y-58071430D01*
X6686664Y-58216122D01*
X6679428Y-58325001D01*
X6665121Y-58404450D01*
X6641904Y-58460852D01*
X6607939Y-58500592D01*
X6561386Y-58530053D01*
X6555780Y-58532769D01*
X6499016Y-58548746D01*
X6414114Y-58560172D01*
X6315089Y-58566420D01*
X6215955Y-58566863D01*
X6130725Y-58560873D01*
X6090709Y-58553576D01*
X6065487Y-58534735D01*
X6054763Y-58489211D01*
X6053667Y-58455078D01*
X6053667Y-58366261D01*
X6208087Y-58374058D01*
X6287992Y-58376639D01*
X6345233Y-58371095D01*
X6383839Y-58351518D01*
X6407836Y-58312004D01*
X6421251Y-58246645D01*
X6428113Y-58149536D01*
X6431552Y-58046348D01*
X6439020Y-57785000D01*
X6096000Y-57785000D01*
X6096000Y-57594500D01*
X6434667Y-57594500D01*
X6434667Y-57340500D01*
X6515982Y-57340500D01*
X6560767Y-57342137D01*
G37*
X6560767Y-57342137D02*
X6588460Y-57353285D01*
X6607880Y-57383294D01*
X6627846Y-57441517D01*
X6635750Y-57467500D01*
X6657742Y-57536672D01*
X6676379Y-57574651D01*
X6700480Y-57590790D01*
X6738864Y-57594442D01*
X6755518Y-57594500D01*
X6836834Y-57594500D01*
X6836834Y-57689750D01*
X6835252Y-57748276D01*
X6824534Y-57775989D01*
X6795718Y-57784412D01*
X6762750Y-57785000D01*
X6688667Y-57785000D01*
X6688667Y-58071430D01*
X6686664Y-58216122D01*
X6679428Y-58325001D01*
X6665121Y-58404450D01*
X6641904Y-58460852D01*
X6607939Y-58500592D01*
X6561386Y-58530053D01*
X6555780Y-58532769D01*
X6499016Y-58548746D01*
X6414114Y-58560172D01*
X6315089Y-58566420D01*
X6215955Y-58566863D01*
X6130725Y-58560873D01*
X6090709Y-58553576D01*
X6065487Y-58534735D01*
X6054763Y-58489211D01*
X6053667Y-58455078D01*
X6053667Y-58366261D01*
X6208087Y-58374058D01*
X6287992Y-58376639D01*
X6345233Y-58371095D01*
X6383839Y-58351518D01*
X6407836Y-58312004D01*
X6421251Y-58246645D01*
X6428113Y-58149536D01*
X6431552Y-58046348D01*
X6439020Y-57785000D01*
X6096000Y-57785000D01*
X6096000Y-57594500D01*
X6434667Y-57594500D01*
X6434667Y-57340500D01*
X6515982Y-57340500D01*
X6560767Y-57342137D01*
G36*
X4200248Y-57607139D02*
G01*
X4290991Y-57669091D01*
X4360243Y-57738343D01*
X4377429Y-57671713D01*
X4388975Y-57635376D01*
X4407226Y-57614815D01*
X4443192Y-57604702D01*
X4507884Y-57599711D01*
X4528319Y-57598712D01*
X4600388Y-57596321D01*
X4638402Y-57599376D01*
X4650518Y-57610098D01*
X4644999Y-57630462D01*
X4639518Y-57662339D01*
X4633909Y-57729686D01*
X4628537Y-57825643D01*
X4623766Y-57943347D01*
X4619961Y-58075940D01*
X4619048Y-58118375D01*
X4610123Y-58568167D01*
X4339167Y-58568167D01*
X4338702Y-58319458D01*
X4336896Y-58199477D01*
X4331237Y-58112054D01*
X4320581Y-58047502D01*
X4303786Y-57996133D01*
X4299358Y-57986083D01*
X4255836Y-57905608D01*
X4207549Y-57854889D01*
X4143654Y-57827606D01*
X4053306Y-57817440D01*
X4008799Y-57816750D01*
X3852329Y-57816750D01*
X3852331Y-57706922D01*
X3852334Y-57597094D01*
X3945881Y-57583065D01*
X4084270Y-57577993D01*
X4200248Y-57607139D01*
G37*
X4200248Y-57607139D02*
X4290991Y-57669091D01*
X4360243Y-57738343D01*
X4377429Y-57671713D01*
X4388975Y-57635376D01*
X4407226Y-57614815D01*
X4443192Y-57604702D01*
X4507884Y-57599711D01*
X4528319Y-57598712D01*
X4600388Y-57596321D01*
X4638402Y-57599376D01*
X4650518Y-57610098D01*
X4644999Y-57630462D01*
X4639518Y-57662339D01*
X4633909Y-57729686D01*
X4628537Y-57825643D01*
X4623766Y-57943347D01*
X4619961Y-58075940D01*
X4619048Y-58118375D01*
X4610123Y-58568167D01*
X4339167Y-58568167D01*
X4338702Y-58319458D01*
X4336896Y-58199477D01*
X4331237Y-58112054D01*
X4320581Y-58047502D01*
X4303786Y-57996133D01*
X4299358Y-57986083D01*
X4255836Y-57905608D01*
X4207549Y-57854889D01*
X4143654Y-57827606D01*
X4053306Y-57817440D01*
X4008799Y-57816750D01*
X3852329Y-57816750D01*
X3852331Y-57706922D01*
X3852334Y-57597094D01*
X3945881Y-57583065D01*
X4084270Y-57577993D01*
X4200248Y-57607139D01*
G36*
X2052103Y-57613227D02*
G01*
X2140292Y-57673322D01*
X2187959Y-57714527D01*
X2212677Y-57728762D01*
X2221656Y-57718764D01*
X2222500Y-57704527D01*
X2227615Y-57647181D01*
X2248703Y-57613860D01*
X2294378Y-57598366D01*
X2373253Y-57594501D01*
X2375399Y-57594500D01*
X2502602Y-57594500D01*
X2487983Y-57652708D01*
X2482949Y-57691274D01*
X2477480Y-57764678D01*
X2471977Y-57865433D01*
X2466843Y-57986054D01*
X2462476Y-58119052D01*
X2461914Y-58139542D01*
X2450464Y-58568167D01*
X2207492Y-58568167D01*
X2196233Y-58307451D01*
X2189352Y-58184200D01*
X2180084Y-58094050D01*
X2166979Y-58027775D01*
X2148585Y-57976154D01*
X2141988Y-57962477D01*
X2079911Y-57877135D01*
X1996675Y-57826324D01*
X1888880Y-57808358D01*
X1834444Y-57810286D01*
X1714500Y-57820233D01*
X1714500Y-57598221D01*
X1799167Y-57583917D01*
X1933936Y-57579132D01*
X2052103Y-57613227D01*
G37*
X2052103Y-57613227D02*
X2140292Y-57673322D01*
X2187959Y-57714527D01*
X2212677Y-57728762D01*
X2221656Y-57718764D01*
X2222500Y-57704527D01*
X2227615Y-57647181D01*
X2248703Y-57613860D01*
X2294378Y-57598366D01*
X2373253Y-57594501D01*
X2375399Y-57594500D01*
X2502602Y-57594500D01*
X2487983Y-57652708D01*
X2482949Y-57691274D01*
X2477480Y-57764678D01*
X2471977Y-57865433D01*
X2466843Y-57986054D01*
X2462476Y-58119052D01*
X2461914Y-58139542D01*
X2450464Y-58568167D01*
X2207492Y-58568167D01*
X2196233Y-58307451D01*
X2189352Y-58184200D01*
X2180084Y-58094050D01*
X2166979Y-58027775D01*
X2148585Y-57976154D01*
X2141988Y-57962477D01*
X2079911Y-57877135D01*
X1996675Y-57826324D01*
X1888880Y-57808358D01*
X1834444Y-57810286D01*
X1714500Y-57820233D01*
X1714500Y-57598221D01*
X1799167Y-57583917D01*
X1933936Y-57579132D01*
X2052103Y-57613227D01*
G36*
X184938Y-57467470D02*
G01*
X206368Y-57536716D01*
X224685Y-57574689D01*
X248525Y-57590788D01*
X286524Y-57594411D01*
X301625Y-57594470D01*
X381000Y-57594500D01*
X381000Y-57689750D01*
X379419Y-57748276D01*
X368700Y-57775989D01*
X339884Y-57784412D01*
X306917Y-57785000D01*
X232834Y-57785000D01*
X232834Y-58082384D01*
X230935Y-58225983D01*
X223956Y-58333710D01*
X209972Y-58411906D01*
X187056Y-58466917D01*
X153285Y-58505084D01*
X106733Y-58532751D01*
X94524Y-58538084D01*
X37421Y-58551971D01*
X-47842Y-58561257D01*
X-147293Y-58565472D01*
X-246962Y-58564144D01*
X-332876Y-58556801D01*
X-354541Y-58553228D01*
X-385283Y-58540694D01*
X-399112Y-58510565D01*
X-402166Y-58455158D01*
X-402166Y-58366261D01*
X-247058Y-58374093D01*
X-162560Y-58376884D01*
X-102289Y-58371426D01*
X-62154Y-58351817D01*
X-38065Y-58312153D01*
X-25932Y-58246531D01*
X-21665Y-58149048D01*
X-21166Y-58048071D01*
X-21166Y-57785000D01*
X-359833Y-57785000D01*
X-359833Y-57594500D01*
X-21166Y-57594500D01*
X-21166Y-57340500D01*
X147627Y-57340500D01*
X184938Y-57467470D01*
G37*
X184938Y-57467470D02*
X206368Y-57536716D01*
X224685Y-57574689D01*
X248525Y-57590788D01*
X286524Y-57594411D01*
X301625Y-57594470D01*
X381000Y-57594500D01*
X381000Y-57689750D01*
X379419Y-57748276D01*
X368700Y-57775989D01*
X339884Y-57784412D01*
X306917Y-57785000D01*
X232834Y-57785000D01*
X232834Y-58082384D01*
X230935Y-58225983D01*
X223956Y-58333710D01*
X209972Y-58411906D01*
X187056Y-58466917D01*
X153285Y-58505084D01*
X106733Y-58532751D01*
X94524Y-58538084D01*
X37421Y-58551971D01*
X-47842Y-58561257D01*
X-147293Y-58565472D01*
X-246962Y-58564144D01*
X-332876Y-58556801D01*
X-354541Y-58553228D01*
X-385283Y-58540694D01*
X-399112Y-58510565D01*
X-402166Y-58455158D01*
X-402166Y-58366261D01*
X-247058Y-58374093D01*
X-162560Y-58376884D01*
X-102289Y-58371426D01*
X-62154Y-58351817D01*
X-38065Y-58312153D01*
X-25932Y-58246531D01*
X-21665Y-58149048D01*
X-21166Y-58048071D01*
X-21166Y-57785000D01*
X-359833Y-57785000D01*
X-359833Y-57594500D01*
X-21166Y-57594500D01*
X-21166Y-57340500D01*
X147627Y-57340500D01*
X184938Y-57467470D01*
G36*
X-2091853Y-57344574D02*
G01*
X-2042471Y-57350006D01*
X-2012149Y-57363773D01*
X-1990870Y-57395850D01*
X-1968616Y-57456213D01*
X-1963089Y-57472792D01*
X-1939559Y-57539967D01*
X-1919568Y-57576340D01*
X-1893540Y-57591359D01*
X-1851898Y-57594474D01*
X-1839736Y-57594500D01*
X-1756833Y-57594500D01*
X-1756833Y-57689750D01*
X-1758415Y-57748276D01*
X-1769133Y-57775989D01*
X-1797949Y-57784412D01*
X-1830916Y-57785000D01*
X-1905000Y-57785000D01*
X-1906195Y-58054875D01*
X-1909150Y-58199548D01*
X-1917769Y-58308895D01*
X-1933869Y-58389748D01*
X-1959267Y-58448941D01*
X-1995780Y-58493303D01*
X-2029838Y-58519809D01*
X-2071763Y-58544062D01*
X-2116544Y-58558293D01*
X-2176565Y-58564718D01*
X-2264206Y-58565555D01*
X-2283838Y-58565284D01*
X-2373339Y-58562909D01*
X-2451274Y-58559129D01*
X-2504307Y-58554641D01*
X-2513541Y-58553228D01*
X-2544283Y-58540694D01*
X-2558112Y-58510565D01*
X-2561166Y-58455158D01*
X-2561166Y-58366261D01*
X-2402100Y-58374293D01*
X-2295689Y-58375255D01*
X-2229613Y-58365398D01*
X-2211600Y-58356238D01*
X-2197998Y-58335995D01*
X-2188756Y-58297465D01*
X-2183183Y-58234071D01*
X-2180586Y-58139235D01*
X-2180166Y-58057575D01*
X-2180166Y-57785000D01*
X-2518833Y-57785000D01*
X-2518833Y-57594500D01*
X-2180166Y-57594500D01*
X-2180166Y-57338066D01*
X-2091853Y-57344574D01*
G37*
X-2091853Y-57344574D02*
X-2042471Y-57350006D01*
X-2012149Y-57363773D01*
X-1990870Y-57395850D01*
X-1968616Y-57456213D01*
X-1963089Y-57472792D01*
X-1939559Y-57539967D01*
X-1919568Y-57576340D01*
X-1893540Y-57591359D01*
X-1851898Y-57594474D01*
X-1839736Y-57594500D01*
X-1756833Y-57594500D01*
X-1756833Y-57689750D01*
X-1758415Y-57748276D01*
X-1769133Y-57775989D01*
X-1797949Y-57784412D01*
X-1830916Y-57785000D01*
X-1905000Y-57785000D01*
X-1906195Y-58054875D01*
X-1909150Y-58199548D01*
X-1917769Y-58308895D01*
X-1933869Y-58389748D01*
X-1959267Y-58448941D01*
X-1995780Y-58493303D01*
X-2029838Y-58519809D01*
X-2071763Y-58544062D01*
X-2116544Y-58558293D01*
X-2176565Y-58564718D01*
X-2264206Y-58565555D01*
X-2283838Y-58565284D01*
X-2373339Y-58562909D01*
X-2451274Y-58559129D01*
X-2504307Y-58554641D01*
X-2513541Y-58553228D01*
X-2544283Y-58540694D01*
X-2558112Y-58510565D01*
X-2561166Y-58455158D01*
X-2561166Y-58366261D01*
X-2402100Y-58374293D01*
X-2295689Y-58375255D01*
X-2229613Y-58365398D01*
X-2211600Y-58356238D01*
X-2197998Y-58335995D01*
X-2188756Y-58297465D01*
X-2183183Y-58234071D01*
X-2180586Y-58139235D01*
X-2180166Y-58057575D01*
X-2180166Y-57785000D01*
X-2518833Y-57785000D01*
X-2518833Y-57594500D01*
X-2180166Y-57594500D01*
X-2180166Y-57338066D01*
X-2091853Y-57344574D01*
G36*
X-2899833Y-57785000D02*
G01*
X-3153833Y-57785000D01*
X-3153833Y-58377667D01*
X-2794000Y-58377667D01*
X-2794000Y-58568167D01*
X-3725333Y-58568167D01*
X-3725333Y-58377667D01*
X-3407833Y-58377667D01*
X-3407833Y-57594500D01*
X-2899833Y-57594500D01*
X-2899833Y-57785000D01*
G37*
X-2899833Y-57785000D02*
X-3153833Y-57785000D01*
X-3153833Y-58377667D01*
X-2794000Y-58377667D01*
X-2794000Y-58568167D01*
X-3725333Y-58568167D01*
X-3725333Y-58377667D01*
X-3407833Y-58377667D01*
X-3407833Y-57594500D01*
X-2899833Y-57594500D01*
X-2899833Y-57785000D01*
G36*
X-5470561Y-57583612D02*
G01*
X-5371675Y-57618611D01*
X-5301554Y-57670690D01*
X-5228166Y-57744078D01*
X-5228166Y-57594500D01*
X-4974166Y-57594500D01*
X-4974166Y-58568167D01*
X-5249333Y-58568167D01*
X-5249412Y-58255958D01*
X-5250078Y-58130871D01*
X-5252577Y-58040221D01*
X-5257773Y-57976123D01*
X-5266530Y-57930693D01*
X-5279712Y-57896045D01*
X-5291089Y-57875526D01*
X-5343395Y-57818659D01*
X-5406527Y-57790460D01*
X-5469710Y-57791487D01*
X-5522166Y-57822299D01*
X-5546879Y-57862272D01*
X-5553848Y-57901281D01*
X-5559756Y-57973780D01*
X-5564139Y-58070929D01*
X-5566529Y-58183887D01*
X-5566833Y-58241461D01*
X-5566833Y-58568167D01*
X-5842000Y-58568167D01*
X-5841882Y-58224208D01*
X-5840017Y-58058961D01*
X-5833923Y-57930037D01*
X-5822657Y-57831552D01*
X-5805277Y-57757624D01*
X-5780843Y-57702369D01*
X-5752192Y-57663906D01*
X-5671974Y-57606091D01*
X-5574379Y-57579382D01*
X-5470561Y-57583612D01*
G37*
X-5470561Y-57583612D02*
X-5371675Y-57618611D01*
X-5301554Y-57670690D01*
X-5228166Y-57744078D01*
X-5228166Y-57594500D01*
X-4974166Y-57594500D01*
X-4974166Y-58568167D01*
X-5249333Y-58568167D01*
X-5249412Y-58255958D01*
X-5250078Y-58130871D01*
X-5252577Y-58040221D01*
X-5257773Y-57976123D01*
X-5266530Y-57930693D01*
X-5279712Y-57896045D01*
X-5291089Y-57875526D01*
X-5343395Y-57818659D01*
X-5406527Y-57790460D01*
X-5469710Y-57791487D01*
X-5522166Y-57822299D01*
X-5546879Y-57862272D01*
X-5553848Y-57901281D01*
X-5559756Y-57973780D01*
X-5564139Y-58070929D01*
X-5566529Y-58183887D01*
X-5566833Y-58241461D01*
X-5566833Y-58568167D01*
X-5842000Y-58568167D01*
X-5841882Y-58224208D01*
X-5840017Y-58058961D01*
X-5833923Y-57930037D01*
X-5822657Y-57831552D01*
X-5805277Y-57757624D01*
X-5780843Y-57702369D01*
X-5752192Y-57663906D01*
X-5671974Y-57606091D01*
X-5574379Y-57579382D01*
X-5470561Y-57583612D01*
G36*
X16248363Y-57592164D02*
G01*
X16352659Y-57628337D01*
X16417990Y-57675032D01*
X16472463Y-57741377D01*
X16505190Y-57812330D01*
X16510000Y-57845707D01*
X16506218Y-57870385D01*
X16488475Y-57883960D01*
X16447172Y-57889689D01*
X16377057Y-57890833D01*
X16304039Y-57889666D01*
X16261746Y-57883036D01*
X16238574Y-57866247D01*
X16222922Y-57834603D01*
X16220146Y-57827333D01*
X16185264Y-57777518D01*
X16137544Y-57760036D01*
X16086225Y-57771098D01*
X16040552Y-57806919D01*
X16009765Y-57863713D01*
X16002000Y-57916710D01*
X16002000Y-57975500D01*
X16155459Y-57975965D01*
X16299924Y-57987202D01*
X16409693Y-58021076D01*
X16486871Y-58079304D01*
X16533567Y-58163606D01*
X16551886Y-58275701D01*
X16552334Y-58299678D01*
X16536645Y-58411048D01*
X16490596Y-58495861D01*
X16428984Y-58544676D01*
X16344728Y-58571012D01*
X16244427Y-58576900D01*
X16149634Y-58561348D01*
X16139584Y-58557969D01*
X16072522Y-58523536D01*
X16015447Y-58477613D01*
X16007397Y-58468450D01*
X15974479Y-58433835D01*
X15960470Y-58435826D01*
X15959772Y-58442769D01*
X15945229Y-58479731D01*
X15910309Y-58522485D01*
X15909467Y-58523281D01*
X15872864Y-58550647D01*
X15829290Y-58563473D01*
X15763771Y-58565251D01*
X15734842Y-58564012D01*
X15610417Y-58557583D01*
X15603938Y-58479729D01*
X15602835Y-58427906D01*
X15616913Y-58404298D01*
X15654664Y-58395317D01*
X15656855Y-58395062D01*
X15716250Y-58388250D01*
X15728388Y-58117654D01*
X15995486Y-58117654D01*
X16008488Y-58197779D01*
X16038611Y-58285861D01*
X16092519Y-58347629D01*
X16163725Y-58376408D01*
X16183342Y-58377667D01*
X16240370Y-58367195D01*
X16264319Y-58344185D01*
X16276857Y-58278935D01*
X16270559Y-58213866D01*
X16247502Y-58167933D01*
X16244715Y-58165417D01*
X16205502Y-58147802D01*
X16142014Y-58133113D01*
X16103874Y-58128069D01*
X15995486Y-58117654D01*
X15728388Y-58117654D01*
X15729543Y-58091917D01*
X15734519Y-57983865D01*
X15739029Y-57891221D01*
X15742661Y-57822072D01*
X15745003Y-57784503D01*
X15745418Y-57780445D01*
X15759838Y-57756703D01*
X15793275Y-57714268D01*
X15811930Y-57692494D01*
X15894344Y-57628703D01*
X16001451Y-57589899D01*
X16122905Y-57577311D01*
X16248363Y-57592164D01*
G37*
X16248363Y-57592164D02*
X16352659Y-57628337D01*
X16417990Y-57675032D01*
X16472463Y-57741377D01*
X16505190Y-57812330D01*
X16510000Y-57845707D01*
X16506218Y-57870385D01*
X16488475Y-57883960D01*
X16447172Y-57889689D01*
X16377057Y-57890833D01*
X16304039Y-57889666D01*
X16261746Y-57883036D01*
X16238574Y-57866247D01*
X16222922Y-57834603D01*
X16220146Y-57827333D01*
X16185264Y-57777518D01*
X16137544Y-57760036D01*
X16086225Y-57771098D01*
X16040552Y-57806919D01*
X16009765Y-57863713D01*
X16002000Y-57916710D01*
X16002000Y-57975500D01*
X16155459Y-57975965D01*
X16299924Y-57987202D01*
X16409693Y-58021076D01*
X16486871Y-58079304D01*
X16533567Y-58163606D01*
X16551886Y-58275701D01*
X16552334Y-58299678D01*
X16536645Y-58411048D01*
X16490596Y-58495861D01*
X16428984Y-58544676D01*
X16344728Y-58571012D01*
X16244427Y-58576900D01*
X16149634Y-58561348D01*
X16139584Y-58557969D01*
X16072522Y-58523536D01*
X16015447Y-58477613D01*
X16007397Y-58468450D01*
X15974479Y-58433835D01*
X15960470Y-58435826D01*
X15959772Y-58442769D01*
X15945229Y-58479731D01*
X15910309Y-58522485D01*
X15909467Y-58523281D01*
X15872864Y-58550647D01*
X15829290Y-58563473D01*
X15763771Y-58565251D01*
X15734842Y-58564012D01*
X15610417Y-58557583D01*
X15603938Y-58479729D01*
X15602835Y-58427906D01*
X15616913Y-58404298D01*
X15654664Y-58395317D01*
X15656855Y-58395062D01*
X15716250Y-58388250D01*
X15728388Y-58117654D01*
X15995486Y-58117654D01*
X16008488Y-58197779D01*
X16038611Y-58285861D01*
X16092519Y-58347629D01*
X16163725Y-58376408D01*
X16183342Y-58377667D01*
X16240370Y-58367195D01*
X16264319Y-58344185D01*
X16276857Y-58278935D01*
X16270559Y-58213866D01*
X16247502Y-58167933D01*
X16244715Y-58165417D01*
X16205502Y-58147802D01*
X16142014Y-58133113D01*
X16103874Y-58128069D01*
X15995486Y-58117654D01*
X15728388Y-58117654D01*
X15729543Y-58091917D01*
X15734519Y-57983865D01*
X15739029Y-57891221D01*
X15742661Y-57822072D01*
X15745003Y-57784503D01*
X15745418Y-57780445D01*
X15759838Y-57756703D01*
X15793275Y-57714268D01*
X15811930Y-57692494D01*
X15894344Y-57628703D01*
X16001451Y-57589899D01*
X16122905Y-57577311D01*
X16248363Y-57592164D01*
G36*
X11943809Y-57593735D02*
G01*
X12026403Y-57618702D01*
X12043806Y-57627673D01*
X12107572Y-57676918D01*
X12163588Y-57740753D01*
X12201914Y-57806029D01*
X12213167Y-57851630D01*
X12207955Y-57872957D01*
X12186203Y-57884850D01*
X12138734Y-57889925D01*
X12075584Y-57890833D01*
X11997407Y-57888500D01*
X11954113Y-57880439D01*
X11938456Y-57865057D01*
X11938000Y-57860595D01*
X11919563Y-57814229D01*
X11874836Y-57777533D01*
X11823352Y-57763833D01*
X11764145Y-57782857D01*
X11722027Y-57833241D01*
X11705198Y-57904957D01*
X11705167Y-57908375D01*
X11705167Y-57975500D01*
X11858625Y-57975965D01*
X12004204Y-57987742D01*
X12115197Y-58022852D01*
X12193076Y-58082448D01*
X12239315Y-58167681D01*
X12255383Y-58279706D01*
X12255421Y-58286657D01*
X12242170Y-58382734D01*
X12206714Y-58468209D01*
X12155268Y-58529849D01*
X12134924Y-58543191D01*
X12064520Y-58565904D01*
X11974135Y-58576710D01*
X11884919Y-58573734D01*
X11853638Y-58568108D01*
X11788357Y-58539412D01*
X11729421Y-58493727D01*
X11725859Y-58489870D01*
X11671860Y-58429434D01*
X11629867Y-58493509D01*
X11604035Y-58528298D01*
X11575794Y-58547511D01*
X11532308Y-58555740D01*
X11460740Y-58557574D01*
X11450729Y-58557583D01*
X11313584Y-58557583D01*
X11307014Y-58478208D01*
X11305544Y-58426200D01*
X11317716Y-58403820D01*
X11350802Y-58398845D01*
X11354236Y-58398833D01*
X11381010Y-58396272D01*
X11400504Y-58384632D01*
X11414071Y-58357975D01*
X11423067Y-58310365D01*
X11428846Y-58235864D01*
X11431056Y-58175282D01*
X11705167Y-58175282D01*
X11722675Y-58260537D01*
X11768830Y-58333274D01*
X11787999Y-58350535D01*
X11841482Y-58372668D01*
X11903314Y-58374244D01*
X11951926Y-58355040D01*
X11954934Y-58352267D01*
X11976601Y-58305032D01*
X11976846Y-58241960D01*
X11955997Y-58183530D01*
X11952137Y-58177863D01*
X11904739Y-58146816D01*
X11818470Y-58129179D01*
X11814553Y-58128791D01*
X11750701Y-58123803D01*
X11718289Y-58127831D01*
X11706664Y-58145404D01*
X11705167Y-58175282D01*
X11431056Y-58175282D01*
X11432762Y-58128537D01*
X11434785Y-58045761D01*
X11439350Y-57921092D01*
X11448720Y-57829748D01*
X11466141Y-57762751D01*
X11494862Y-57711119D01*
X11538130Y-57665874D01*
X11585945Y-57627836D01*
X11650927Y-57599225D01*
X11741768Y-57584001D01*
X11844163Y-57582169D01*
X11943809Y-57593735D01*
G37*
X11943809Y-57593735D02*
X12026403Y-57618702D01*
X12043806Y-57627673D01*
X12107572Y-57676918D01*
X12163588Y-57740753D01*
X12201914Y-57806029D01*
X12213167Y-57851630D01*
X12207955Y-57872957D01*
X12186203Y-57884850D01*
X12138734Y-57889925D01*
X12075584Y-57890833D01*
X11997407Y-57888500D01*
X11954113Y-57880439D01*
X11938456Y-57865057D01*
X11938000Y-57860595D01*
X11919563Y-57814229D01*
X11874836Y-57777533D01*
X11823352Y-57763833D01*
X11764145Y-57782857D01*
X11722027Y-57833241D01*
X11705198Y-57904957D01*
X11705167Y-57908375D01*
X11705167Y-57975500D01*
X11858625Y-57975965D01*
X12004204Y-57987742D01*
X12115197Y-58022852D01*
X12193076Y-58082448D01*
X12239315Y-58167681D01*
X12255383Y-58279706D01*
X12255421Y-58286657D01*
X12242170Y-58382734D01*
X12206714Y-58468209D01*
X12155268Y-58529849D01*
X12134924Y-58543191D01*
X12064520Y-58565904D01*
X11974135Y-58576710D01*
X11884919Y-58573734D01*
X11853638Y-58568108D01*
X11788357Y-58539412D01*
X11729421Y-58493727D01*
X11725859Y-58489870D01*
X11671860Y-58429434D01*
X11629867Y-58493509D01*
X11604035Y-58528298D01*
X11575794Y-58547511D01*
X11532308Y-58555740D01*
X11460740Y-58557574D01*
X11450729Y-58557583D01*
X11313584Y-58557583D01*
X11307014Y-58478208D01*
X11305544Y-58426200D01*
X11317716Y-58403820D01*
X11350802Y-58398845D01*
X11354236Y-58398833D01*
X11381010Y-58396272D01*
X11400504Y-58384632D01*
X11414071Y-58357975D01*
X11423067Y-58310365D01*
X11428846Y-58235864D01*
X11431056Y-58175282D01*
X11705167Y-58175282D01*
X11722675Y-58260537D01*
X11768830Y-58333274D01*
X11787999Y-58350535D01*
X11841482Y-58372668D01*
X11903314Y-58374244D01*
X11951926Y-58355040D01*
X11954934Y-58352267D01*
X11976601Y-58305032D01*
X11976846Y-58241960D01*
X11955997Y-58183530D01*
X11952137Y-58177863D01*
X11904739Y-58146816D01*
X11818470Y-58129179D01*
X11814553Y-58128791D01*
X11750701Y-58123803D01*
X11718289Y-58127831D01*
X11706664Y-58145404D01*
X11705167Y-58175282D01*
X11431056Y-58175282D01*
X11432762Y-58128537D01*
X11434785Y-58045761D01*
X11439350Y-57921092D01*
X11448720Y-57829748D01*
X11466141Y-57762751D01*
X11494862Y-57711119D01*
X11538130Y-57665874D01*
X11585945Y-57627836D01*
X11650927Y-57599225D01*
X11741768Y-57584001D01*
X11844163Y-57582169D01*
X11943809Y-57593735D01*
G36*
X5491825Y-57601366D02*
G01*
X5611708Y-57649229D01*
X5704247Y-57729407D01*
X5769458Y-57841914D01*
X5799820Y-57944486D01*
X5812293Y-58071348D01*
X5801299Y-58201743D01*
X5769443Y-58322751D01*
X5719329Y-58421450D01*
X5698318Y-58447936D01*
X5620544Y-58507333D01*
X5515790Y-58551011D01*
X5397605Y-58575473D01*
X5279540Y-58577223D01*
X5228167Y-58569254D01*
X5128268Y-58541002D01*
X5054491Y-58502800D01*
X4990637Y-58445750D01*
X4978149Y-58431884D01*
X4927652Y-58368075D01*
X4911630Y-58326724D01*
X4931805Y-58303473D01*
X4989896Y-58293964D01*
X5032963Y-58293000D01*
X5111104Y-58296693D01*
X5159998Y-58309995D01*
X5191009Y-58334753D01*
X5253444Y-58380075D01*
X5325784Y-58391932D01*
X5398545Y-58374492D01*
X5462240Y-58331922D01*
X5507387Y-58268391D01*
X5524500Y-58188218D01*
X5522635Y-58171615D01*
X5512862Y-58159896D01*
X5488912Y-58152211D01*
X5444518Y-58147712D01*
X5373411Y-58145550D01*
X5269324Y-58144877D01*
X5204086Y-58144833D01*
X4883672Y-58144833D01*
X4897538Y-58026855D01*
X4921049Y-57911038D01*
X5164667Y-57911038D01*
X5167802Y-57932072D01*
X5182740Y-57944919D01*
X5217779Y-57951574D01*
X5281219Y-57954036D01*
X5344584Y-57954333D01*
X5431994Y-57953579D01*
X5485378Y-57949984D01*
X5513035Y-57941552D01*
X5523264Y-57926286D01*
X5524500Y-57911038D01*
X5505438Y-57852991D01*
X5456532Y-57802726D01*
X5390205Y-57770406D01*
X5344584Y-57763833D01*
X5273638Y-57779430D01*
X5212203Y-57819444D01*
X5172701Y-57873711D01*
X5164667Y-57911038D01*
X4921049Y-57911038D01*
X4928985Y-57871950D01*
X4983651Y-57751931D01*
X5062961Y-57665396D01*
X5168335Y-57610941D01*
X5301196Y-57587163D01*
X5344584Y-57585807D01*
X5491825Y-57601366D01*
G37*
X5491825Y-57601366D02*
X5611708Y-57649229D01*
X5704247Y-57729407D01*
X5769458Y-57841914D01*
X5799820Y-57944486D01*
X5812293Y-58071348D01*
X5801299Y-58201743D01*
X5769443Y-58322751D01*
X5719329Y-58421450D01*
X5698318Y-58447936D01*
X5620544Y-58507333D01*
X5515790Y-58551011D01*
X5397605Y-58575473D01*
X5279540Y-58577223D01*
X5228167Y-58569254D01*
X5128268Y-58541002D01*
X5054491Y-58502800D01*
X4990637Y-58445750D01*
X4978149Y-58431884D01*
X4927652Y-58368075D01*
X4911630Y-58326724D01*
X4931805Y-58303473D01*
X4989896Y-58293964D01*
X5032963Y-58293000D01*
X5111104Y-58296693D01*
X5159998Y-58309995D01*
X5191009Y-58334753D01*
X5253444Y-58380075D01*
X5325784Y-58391932D01*
X5398545Y-58374492D01*
X5462240Y-58331922D01*
X5507387Y-58268391D01*
X5524500Y-58188218D01*
X5522635Y-58171615D01*
X5512862Y-58159896D01*
X5488912Y-58152211D01*
X5444518Y-58147712D01*
X5373411Y-58145550D01*
X5269324Y-58144877D01*
X5204086Y-58144833D01*
X4883672Y-58144833D01*
X4897538Y-58026855D01*
X4921049Y-57911038D01*
X5164667Y-57911038D01*
X5167802Y-57932072D01*
X5182740Y-57944919D01*
X5217779Y-57951574D01*
X5281219Y-57954036D01*
X5344584Y-57954333D01*
X5431994Y-57953579D01*
X5485378Y-57949984D01*
X5513035Y-57941552D01*
X5523264Y-57926286D01*
X5524500Y-57911038D01*
X5505438Y-57852991D01*
X5456532Y-57802726D01*
X5390205Y-57770406D01*
X5344584Y-57763833D01*
X5273638Y-57779430D01*
X5212203Y-57819444D01*
X5172701Y-57873711D01*
X5164667Y-57911038D01*
X4921049Y-57911038D01*
X4928985Y-57871950D01*
X4983651Y-57751931D01*
X5062961Y-57665396D01*
X5168335Y-57610941D01*
X5301196Y-57587163D01*
X5344584Y-57585807D01*
X5491825Y-57601366D01*
G36*
X1108492Y-57582957D02*
G01*
X1248132Y-57618864D01*
X1360068Y-57685302D01*
X1434018Y-57767995D01*
X1478122Y-57866899D01*
X1501050Y-57989323D01*
X1503194Y-58122361D01*
X1484947Y-58253105D01*
X1446702Y-58368651D01*
X1413995Y-58425771D01*
X1346287Y-58489438D01*
X1249897Y-58539362D01*
X1137353Y-58571484D01*
X1021184Y-58581746D01*
X952500Y-58575289D01*
X841208Y-58546492D01*
X756160Y-58501289D01*
X689313Y-58439925D01*
X635130Y-58374058D01*
X615086Y-58330604D01*
X630325Y-58305450D01*
X681995Y-58294482D01*
X730250Y-58293000D01*
X810823Y-58297968D01*
X863159Y-58315193D01*
X888462Y-58334795D01*
X962684Y-58382278D01*
X1046786Y-58392197D01*
X1097044Y-58379167D01*
X1157207Y-58335982D01*
X1204708Y-58270065D01*
X1227210Y-58199357D01*
X1227667Y-58189192D01*
X1225975Y-58172224D01*
X1216716Y-58160246D01*
X1193619Y-58152392D01*
X1150412Y-58147791D01*
X1080822Y-58145578D01*
X978577Y-58144883D01*
X907152Y-58144833D01*
X586636Y-58144833D01*
X599938Y-58017573D01*
X613726Y-57954333D01*
X848869Y-57954333D01*
X1038268Y-57954333D01*
X1134974Y-57951946D01*
X1199387Y-57945141D01*
X1226965Y-57934450D01*
X1227667Y-57932115D01*
X1215208Y-57886696D01*
X1185561Y-57833081D01*
X1150321Y-57789970D01*
X1131469Y-57776982D01*
X1042864Y-57762389D01*
X962019Y-57784170D01*
X898849Y-57838001D01*
X871121Y-57890502D01*
X848869Y-57954333D01*
X613726Y-57954333D01*
X632303Y-57869136D01*
X693648Y-57748405D01*
X780967Y-57657949D01*
X891253Y-57600338D01*
X1021501Y-57578140D01*
X1108492Y-57582957D01*
G37*
X1108492Y-57582957D02*
X1248132Y-57618864D01*
X1360068Y-57685302D01*
X1434018Y-57767995D01*
X1478122Y-57866899D01*
X1501050Y-57989323D01*
X1503194Y-58122361D01*
X1484947Y-58253105D01*
X1446702Y-58368651D01*
X1413995Y-58425771D01*
X1346287Y-58489438D01*
X1249897Y-58539362D01*
X1137353Y-58571484D01*
X1021184Y-58581746D01*
X952500Y-58575289D01*
X841208Y-58546492D01*
X756160Y-58501289D01*
X689313Y-58439925D01*
X635130Y-58374058D01*
X615086Y-58330604D01*
X630325Y-58305450D01*
X681995Y-58294482D01*
X730250Y-58293000D01*
X810823Y-58297968D01*
X863159Y-58315193D01*
X888462Y-58334795D01*
X962684Y-58382278D01*
X1046786Y-58392197D01*
X1097044Y-58379167D01*
X1157207Y-58335982D01*
X1204708Y-58270065D01*
X1227210Y-58199357D01*
X1227667Y-58189192D01*
X1225975Y-58172224D01*
X1216716Y-58160246D01*
X1193619Y-58152392D01*
X1150412Y-58147791D01*
X1080822Y-58145578D01*
X978577Y-58144883D01*
X907152Y-58144833D01*
X586636Y-58144833D01*
X599938Y-58017573D01*
X613726Y-57954333D01*
X848869Y-57954333D01*
X1038268Y-57954333D01*
X1134974Y-57951946D01*
X1199387Y-57945141D01*
X1226965Y-57934450D01*
X1227667Y-57932115D01*
X1215208Y-57886696D01*
X1185561Y-57833081D01*
X1150321Y-57789970D01*
X1131469Y-57776982D01*
X1042864Y-57762389D01*
X962019Y-57784170D01*
X898849Y-57838001D01*
X871121Y-57890502D01*
X848869Y-57954333D01*
X613726Y-57954333D01*
X632303Y-57869136D01*
X693648Y-57748405D01*
X780967Y-57657949D01*
X891253Y-57600338D01*
X1021501Y-57578140D01*
X1108492Y-57582957D01*
G36*
X-955564Y-57594780D02*
G01*
X-852661Y-57627955D01*
X-775854Y-57686815D01*
X-725634Y-57761656D01*
X-700484Y-57819012D01*
X-688846Y-57861181D01*
X-689841Y-57872781D01*
X-715229Y-57882086D01*
X-770523Y-57888604D01*
X-837332Y-57890833D01*
X-911960Y-57889254D01*
X-953435Y-57882817D01*
X-970874Y-57868976D01*
X-973666Y-57852733D01*
X-991733Y-57798985D01*
X-1041668Y-57768636D01*
X-1081141Y-57763833D01*
X-1140114Y-57777542D01*
X-1178287Y-57822024D01*
X-1199272Y-57896827D01*
X-1211162Y-57970099D01*
X-1021015Y-57979190D01*
X-882180Y-57994001D01*
X-779560Y-58025420D01*
X-709226Y-58076619D01*
X-667245Y-58150776D01*
X-649689Y-58251063D01*
X-648665Y-58279937D01*
X-662631Y-58395634D01*
X-708313Y-58483294D01*
X-785761Y-58542975D01*
X-895024Y-58574735D01*
X-899583Y-58575363D01*
X-971789Y-58578038D01*
X-1038101Y-58569862D01*
X-1045766Y-58567760D01*
X-1099530Y-58541015D01*
X-1159781Y-58496874D01*
X-1178058Y-58480293D01*
X-1221885Y-58441439D01*
X-1243745Y-58432833D01*
X-1248833Y-58447598D01*
X-1268106Y-58504132D01*
X-1321270Y-58545186D01*
X-1401340Y-58566300D01*
X-1437602Y-58568167D01*
X-1523266Y-58565068D01*
X-1574927Y-58552748D01*
X-1600656Y-58526673D01*
X-1608524Y-58482310D01*
X-1608666Y-58472058D01*
X-1603662Y-58422699D01*
X-1581649Y-58401062D01*
X-1551295Y-58394947D01*
X-1519135Y-58386757D01*
X-1495935Y-58366834D01*
X-1480188Y-58329145D01*
X-1470390Y-58267657D01*
X-1465055Y-58176626D01*
X-1205421Y-58176626D01*
X-1183860Y-58243958D01*
X-1142906Y-58322764D01*
X-1091121Y-58364397D01*
X-1022165Y-58373779D01*
X-1017082Y-58373402D01*
X-968963Y-58366247D01*
X-946189Y-58346985D01*
X-937354Y-58302625D01*
X-935577Y-58280586D01*
X-938639Y-58211984D01*
X-964330Y-58167636D01*
X-1019212Y-58141516D01*
X-1101369Y-58128382D01*
X-1169234Y-58125821D01*
X-1202240Y-58139552D01*
X-1205421Y-58176626D01*
X-1465055Y-58176626D01*
X-1465038Y-58176336D01*
X-1462626Y-58049148D01*
X-1462531Y-58039000D01*
X-1460317Y-57926647D01*
X-1455174Y-57847202D01*
X-1445789Y-57791270D01*
X-1430846Y-57749457D01*
X-1419023Y-57727819D01*
X-1358051Y-57655850D01*
X-1275753Y-57610137D01*
X-1165691Y-57587875D01*
X-1090083Y-57584609D01*
X-955564Y-57594780D01*
G37*
X-955564Y-57594780D02*
X-852661Y-57627955D01*
X-775854Y-57686815D01*
X-725634Y-57761656D01*
X-700484Y-57819012D01*
X-688846Y-57861181D01*
X-689841Y-57872781D01*
X-715229Y-57882086D01*
X-770523Y-57888604D01*
X-837332Y-57890833D01*
X-911960Y-57889254D01*
X-953435Y-57882817D01*
X-970874Y-57868976D01*
X-973666Y-57852733D01*
X-991733Y-57798985D01*
X-1041668Y-57768636D01*
X-1081141Y-57763833D01*
X-1140114Y-57777542D01*
X-1178287Y-57822024D01*
X-1199272Y-57896827D01*
X-1211162Y-57970099D01*
X-1021015Y-57979190D01*
X-882180Y-57994001D01*
X-779560Y-58025420D01*
X-709226Y-58076619D01*
X-667245Y-58150776D01*
X-649689Y-58251063D01*
X-648665Y-58279937D01*
X-662631Y-58395634D01*
X-708313Y-58483294D01*
X-785761Y-58542975D01*
X-895024Y-58574735D01*
X-899583Y-58575363D01*
X-971789Y-58578038D01*
X-1038101Y-58569862D01*
X-1045766Y-58567760D01*
X-1099530Y-58541015D01*
X-1159781Y-58496874D01*
X-1178058Y-58480293D01*
X-1221885Y-58441439D01*
X-1243745Y-58432833D01*
X-1248833Y-58447598D01*
X-1268106Y-58504132D01*
X-1321270Y-58545186D01*
X-1401340Y-58566300D01*
X-1437602Y-58568167D01*
X-1523266Y-58565068D01*
X-1574927Y-58552748D01*
X-1600656Y-58526673D01*
X-1608524Y-58482310D01*
X-1608666Y-58472058D01*
X-1603662Y-58422699D01*
X-1581649Y-58401062D01*
X-1551295Y-58394947D01*
X-1519135Y-58386757D01*
X-1495935Y-58366834D01*
X-1480188Y-58329145D01*
X-1470390Y-58267657D01*
X-1465055Y-58176626D01*
X-1205421Y-58176626D01*
X-1183860Y-58243958D01*
X-1142906Y-58322764D01*
X-1091121Y-58364397D01*
X-1022165Y-58373779D01*
X-1017082Y-58373402D01*
X-968963Y-58366247D01*
X-946189Y-58346985D01*
X-937354Y-58302625D01*
X-935577Y-58280586D01*
X-938639Y-58211984D01*
X-964330Y-58167636D01*
X-1019212Y-58141516D01*
X-1101369Y-58128382D01*
X-1169234Y-58125821D01*
X-1202240Y-58139552D01*
X-1205421Y-58176626D01*
X-1465055Y-58176626D01*
X-1465038Y-58176336D01*
X-1462626Y-58049148D01*
X-1462531Y-58039000D01*
X-1460317Y-57926647D01*
X-1455174Y-57847202D01*
X-1445789Y-57791270D01*
X-1430846Y-57749457D01*
X-1419023Y-57727819D01*
X-1358051Y-57655850D01*
X-1275753Y-57610137D01*
X-1165691Y-57587875D01*
X-1090083Y-57584609D01*
X-955564Y-57594780D01*
G36*
X-4165874Y-57595289D02*
G01*
X-4098816Y-57618653D01*
X-3998863Y-57692595D01*
X-3921282Y-57796428D01*
X-3870850Y-57921541D01*
X-3852345Y-58059321D01*
X-3852333Y-58062966D01*
X-3868915Y-58222479D01*
X-3916796Y-58355917D01*
X-3993179Y-58460889D01*
X-4095266Y-58535004D01*
X-4220259Y-58575871D01*
X-4365362Y-58581099D01*
X-4445000Y-58569516D01*
X-4569221Y-58528660D01*
X-4663868Y-58461055D01*
X-4730266Y-58364734D01*
X-4769741Y-58237729D01*
X-4783619Y-58078073D01*
X-4783621Y-58077495D01*
X-4508500Y-58077495D01*
X-4499252Y-58205142D01*
X-4470897Y-58297138D01*
X-4422521Y-58356058D01*
X-4405713Y-58366736D01*
X-4334011Y-58394286D01*
X-4274679Y-58386287D01*
X-4214473Y-58340894D01*
X-4213558Y-58339981D01*
X-4166802Y-58267339D01*
X-4140120Y-58171478D01*
X-4133293Y-58064897D01*
X-4146103Y-57960095D01*
X-4178330Y-57869574D01*
X-4222805Y-57811458D01*
X-4294662Y-57769003D01*
X-4361614Y-57765514D01*
X-4420066Y-57797647D01*
X-4466425Y-57862055D01*
X-4497099Y-57955392D01*
X-4508493Y-58074313D01*
X-4508500Y-58077495D01*
X-4783621Y-58077495D01*
X-4783666Y-58066911D01*
X-4770618Y-57912377D01*
X-4730576Y-57789393D01*
X-4662195Y-57695830D01*
X-4564130Y-57629560D01*
X-4489753Y-57601799D01*
X-4384270Y-57582759D01*
X-4270662Y-57580832D01*
X-4165874Y-57595289D01*
G37*
X-4165874Y-57595289D02*
X-4098816Y-57618653D01*
X-3998863Y-57692595D01*
X-3921282Y-57796428D01*
X-3870850Y-57921541D01*
X-3852345Y-58059321D01*
X-3852333Y-58062966D01*
X-3868915Y-58222479D01*
X-3916796Y-58355917D01*
X-3993179Y-58460889D01*
X-4095266Y-58535004D01*
X-4220259Y-58575871D01*
X-4365362Y-58581099D01*
X-4445000Y-58569516D01*
X-4569221Y-58528660D01*
X-4663868Y-58461055D01*
X-4730266Y-58364734D01*
X-4769741Y-58237729D01*
X-4783619Y-58078073D01*
X-4783621Y-58077495D01*
X-4508500Y-58077495D01*
X-4499252Y-58205142D01*
X-4470897Y-58297138D01*
X-4422521Y-58356058D01*
X-4405713Y-58366736D01*
X-4334011Y-58394286D01*
X-4274679Y-58386287D01*
X-4214473Y-58340894D01*
X-4213558Y-58339981D01*
X-4166802Y-58267339D01*
X-4140120Y-58171478D01*
X-4133293Y-58064897D01*
X-4146103Y-57960095D01*
X-4178330Y-57869574D01*
X-4222805Y-57811458D01*
X-4294662Y-57769003D01*
X-4361614Y-57765514D01*
X-4420066Y-57797647D01*
X-4466425Y-57862055D01*
X-4497099Y-57955392D01*
X-4508493Y-58074313D01*
X-4508500Y-58077495D01*
X-4783621Y-58077495D01*
X-4783666Y-58066911D01*
X-4770618Y-57912377D01*
X-4730576Y-57789393D01*
X-4662195Y-57695830D01*
X-4564130Y-57629560D01*
X-4489753Y-57601799D01*
X-4384270Y-57582759D01*
X-4270662Y-57580832D01*
X-4165874Y-57595289D01*
G36*
X-7782150Y-54580622D02*
G01*
X-7740677Y-54637295D01*
X-7715652Y-54699162D01*
X-7715039Y-54702330D01*
X-7713395Y-54732753D01*
X-7711944Y-54802453D01*
X-7710697Y-54908379D01*
X-7709660Y-55047474D01*
X-7708844Y-55216685D01*
X-7708255Y-55412957D01*
X-7707904Y-55633236D01*
X-7707799Y-55874468D01*
X-7707948Y-56133599D01*
X-7708359Y-56407574D01*
X-7709042Y-56693338D01*
X-7709233Y-56758417D01*
X-7715250Y-58748083D01*
X-13763625Y-58753411D01*
X-19812000Y-58758740D01*
X-19812000Y-58473459D01*
X-17462500Y-58473459D01*
X-17444107Y-58480586D01*
X-17400641Y-58483500D01*
X-17356111Y-58476546D01*
X-17329426Y-58447719D01*
X-17314333Y-58409417D01*
X-17289883Y-58335333D01*
X-17021283Y-58335333D01*
X-16996833Y-58409417D01*
X-16974298Y-58460028D01*
X-16943407Y-58480592D01*
X-16910822Y-58483500D01*
X-16849261Y-58483500D01*
X-16891131Y-58372375D01*
X-16906365Y-58331925D01*
X-16801180Y-58331925D01*
X-16762668Y-58406302D01*
X-16689674Y-58466501D01*
X-16594384Y-58496103D01*
X-16485952Y-58492844D01*
X-16448262Y-58484005D01*
X-16370152Y-58448782D01*
X-16310556Y-58397661D01*
X-16279468Y-58340157D01*
X-16277166Y-58321060D01*
X-16291438Y-58282176D01*
X-16325350Y-58269479D01*
X-16365553Y-58282631D01*
X-16398692Y-58321296D01*
X-16400049Y-58324166D01*
X-16440120Y-58368225D01*
X-16502171Y-58393481D01*
X-16571351Y-58398426D01*
X-16632806Y-58381554D01*
X-16666507Y-58351208D01*
X-16678650Y-58308884D01*
X-16656829Y-58270363D01*
X-16598331Y-58233109D01*
X-16500443Y-58194589D01*
X-16498058Y-58193786D01*
X-16421918Y-58164689D01*
X-16360246Y-58134704D01*
X-16325732Y-58110050D01*
X-16324791Y-58108862D01*
X-16305537Y-58059786D01*
X-16299066Y-57995450D01*
X-16306603Y-57938270D01*
X-16314532Y-57921356D01*
X-16374006Y-57868415D01*
X-16455385Y-57837832D01*
X-16462872Y-57837136D01*
X-14647333Y-57837136D01*
X-14647333Y-57837172D01*
X-14637028Y-57858203D01*
X-14609157Y-57907401D01*
X-14568288Y-57976845D01*
X-14530916Y-58039000D01*
X-14478034Y-58128219D01*
X-14444081Y-58193223D01*
X-14424927Y-58245300D01*
X-14416443Y-58295739D01*
X-14414500Y-58355827D01*
X-14414500Y-58357244D01*
X-14413654Y-58427284D01*
X-14407761Y-58464999D01*
X-14391788Y-58480395D01*
X-14360701Y-58483479D01*
X-14351000Y-58483500D01*
X-14287500Y-58483500D01*
X-14287500Y-58354148D01*
X-14286352Y-58316328D01*
X-13991359Y-58316328D01*
X-13967382Y-58385740D01*
X-13943541Y-58413616D01*
X-13907623Y-58443466D01*
X-13871889Y-58462829D01*
X-13826055Y-58474074D01*
X-13759834Y-58479567D01*
X-13662938Y-58481676D01*
X-13647208Y-58481829D01*
X-13462000Y-58483500D01*
X-13462000Y-57827333D01*
X-13615458Y-57827451D01*
X-13754181Y-57833658D01*
X-13854808Y-57852525D01*
X-13919865Y-57884793D01*
X-13949841Y-57925234D01*
X-13967952Y-57992225D01*
X-13958749Y-58041369D01*
X-13926180Y-58082820D01*
X-13882360Y-58126640D01*
X-13936763Y-58177059D01*
X-13981027Y-58242384D01*
X-13991359Y-58316328D01*
X-14286352Y-58316328D01*
X-14285573Y-58290692D01*
X-14276971Y-58238250D01*
X-14257463Y-58184721D01*
X-14222820Y-58118006D01*
X-14178339Y-58041939D01*
X-14131444Y-57963232D01*
X-14092819Y-57898117D01*
X-14067542Y-57855174D01*
X-14060673Y-57843208D01*
X-14072798Y-57832297D01*
X-14113780Y-57827358D01*
X-14117438Y-57827333D01*
X-14160180Y-57833214D01*
X-14193866Y-57857055D01*
X-14230178Y-57908151D01*
X-14240396Y-57925187D01*
X-14291356Y-58010744D01*
X-14326958Y-58061654D01*
X-14354053Y-58079311D01*
X-14379491Y-58065110D01*
X-14410125Y-58020442D01*
X-14441597Y-57966106D01*
X-14484959Y-57894127D01*
X-14517320Y-57852196D01*
X-14546686Y-57832532D01*
X-14581060Y-57827355D01*
X-14584372Y-57827333D01*
X-14628762Y-57830211D01*
X-14647333Y-57837136D01*
X-16462872Y-57837136D01*
X-16546880Y-57829327D01*
X-16636700Y-57842621D01*
X-16713057Y-57877436D01*
X-16763372Y-57931994D01*
X-16783212Y-57983369D01*
X-16770799Y-58010111D01*
X-16723499Y-58017833D01*
X-16723093Y-58017833D01*
X-16669850Y-58006163D01*
X-16647599Y-57975549D01*
X-16615627Y-57935519D01*
X-16561522Y-57916089D01*
X-16500004Y-57917028D01*
X-16445794Y-57938104D01*
X-16413612Y-57979086D01*
X-16413567Y-57979228D01*
X-16410928Y-58018370D01*
X-16434730Y-58049377D01*
X-16490210Y-58076040D01*
X-16582602Y-58102144D01*
X-16583874Y-58102450D01*
X-16689572Y-58140666D01*
X-16762645Y-58194408D01*
X-16800659Y-58259539D01*
X-16801180Y-58331925D01*
X-16906365Y-58331925D01*
X-16951075Y-58213213D01*
X-16998081Y-58089165D01*
X-17034340Y-57995806D01*
X-17062041Y-57928713D01*
X-17083373Y-57883459D01*
X-17100526Y-57855622D01*
X-17115688Y-57840775D01*
X-17131049Y-57834494D01*
X-17148799Y-57832355D01*
X-17158749Y-57831506D01*
X-17223695Y-57825096D01*
X-17343098Y-58144257D01*
X-17383413Y-58252612D01*
X-17417914Y-58346471D01*
X-17444103Y-58418947D01*
X-17459483Y-58463154D01*
X-17462500Y-58473459D01*
X-19812000Y-58473459D01*
X-19812000Y-57488667D01*
X-19707060Y-57488667D01*
X-15542072Y-57488704D01*
X-11377083Y-57488742D01*
X-11317125Y-57583649D01*
X-11171078Y-57779799D01*
X-10995036Y-57957558D01*
X-10796455Y-58111394D01*
X-10582789Y-58235773D01*
X-10361491Y-58325162D01*
X-10290938Y-58345306D01*
X-10121062Y-58384460D01*
X-9974724Y-58406936D01*
X-9836946Y-58413628D01*
X-9692751Y-58405427D01*
X-9562505Y-58388712D01*
X-9310037Y-58330680D01*
X-9067756Y-58236108D01*
X-8841487Y-58108686D01*
X-8637052Y-57952106D01*
X-8460278Y-57770059D01*
X-8350228Y-57620391D01*
X-8265583Y-57489037D01*
X-8048625Y-57488852D01*
X-7831666Y-57488667D01*
X-7831666Y-56102250D01*
X-7831696Y-55826026D01*
X-7831844Y-55589023D01*
X-7832205Y-55388127D01*
X-7832870Y-55220225D01*
X-7833931Y-55082203D01*
X-7835481Y-54970949D01*
X-7837612Y-54883350D01*
X-7840416Y-54816293D01*
X-7843985Y-54766663D01*
X-7848412Y-54731349D01*
X-7853789Y-54707237D01*
X-7860208Y-54691214D01*
X-7867761Y-54680167D01*
X-7874000Y-54673500D01*
X-7878611Y-54669237D01*
X-7884605Y-54665270D01*
X-7893462Y-54661589D01*
X-7906666Y-54658183D01*
X-7925698Y-54655041D01*
X-7952040Y-54652153D01*
X-7987175Y-54649507D01*
X-8032586Y-54647094D01*
X-8089753Y-54644902D01*
X-8160159Y-54642921D01*
X-8245287Y-54641140D01*
X-8346619Y-54639549D01*
X-8465636Y-54638137D01*
X-8603822Y-54636893D01*
X-8762657Y-54635807D01*
X-8943625Y-54634867D01*
X-9148207Y-54634064D01*
X-9377886Y-54633386D01*
X-9634143Y-54632823D01*
X-9918462Y-54632365D01*
X-10232324Y-54632000D01*
X-10577211Y-54631717D01*
X-10954606Y-54631507D01*
X-11365990Y-54631359D01*
X-11812846Y-54631261D01*
X-12296657Y-54631204D01*
X-12818903Y-54631176D01*
X-13381068Y-54631167D01*
X-13755988Y-54631167D01*
X-14344212Y-54631171D01*
X-14891586Y-54631193D01*
X-15399594Y-54631241D01*
X-15869719Y-54631326D01*
X-16303444Y-54631459D01*
X-16702253Y-54631648D01*
X-17067629Y-54631906D01*
X-17401057Y-54632240D01*
X-17704018Y-54632663D01*
X-17977997Y-54633184D01*
X-18224477Y-54633813D01*
X-18444942Y-54634561D01*
X-18640875Y-54635437D01*
X-18813759Y-54636453D01*
X-18965078Y-54637617D01*
X-19096316Y-54638940D01*
X-19208955Y-54640433D01*
X-19304480Y-54642106D01*
X-19384373Y-54643968D01*
X-19450119Y-54646031D01*
X-19503200Y-54648303D01*
X-19545100Y-54650796D01*
X-19577302Y-54653519D01*
X-19601290Y-54656484D01*
X-19618548Y-54659699D01*
X-19630559Y-54663175D01*
X-19638806Y-54666923D01*
X-19644772Y-54670952D01*
X-19645613Y-54671623D01*
X-19695583Y-54712079D01*
X-19701322Y-56100373D01*
X-19707060Y-57488667D01*
X-19812000Y-57488667D01*
X-19812000Y-54649077D01*
X-19688256Y-54525333D01*
X-7837439Y-54525333D01*
X-7782150Y-54580622D01*
G37*
X-7782150Y-54580622D02*
X-7740677Y-54637295D01*
X-7715652Y-54699162D01*
X-7715039Y-54702330D01*
X-7713395Y-54732753D01*
X-7711944Y-54802453D01*
X-7710697Y-54908379D01*
X-7709660Y-55047474D01*
X-7708844Y-55216685D01*
X-7708255Y-55412957D01*
X-7707904Y-55633236D01*
X-7707799Y-55874468D01*
X-7707948Y-56133599D01*
X-7708359Y-56407574D01*
X-7709042Y-56693338D01*
X-7709233Y-56758417D01*
X-7715250Y-58748083D01*
X-13763625Y-58753411D01*
X-19812000Y-58758740D01*
X-19812000Y-58473459D01*
X-17462500Y-58473459D01*
X-17444107Y-58480586D01*
X-17400641Y-58483500D01*
X-17356111Y-58476546D01*
X-17329426Y-58447719D01*
X-17314333Y-58409417D01*
X-17289883Y-58335333D01*
X-17021283Y-58335333D01*
X-16996833Y-58409417D01*
X-16974298Y-58460028D01*
X-16943407Y-58480592D01*
X-16910822Y-58483500D01*
X-16849261Y-58483500D01*
X-16891131Y-58372375D01*
X-16906365Y-58331925D01*
X-16801180Y-58331925D01*
X-16762668Y-58406302D01*
X-16689674Y-58466501D01*
X-16594384Y-58496103D01*
X-16485952Y-58492844D01*
X-16448262Y-58484005D01*
X-16370152Y-58448782D01*
X-16310556Y-58397661D01*
X-16279468Y-58340157D01*
X-16277166Y-58321060D01*
X-16291438Y-58282176D01*
X-16325350Y-58269479D01*
X-16365553Y-58282631D01*
X-16398692Y-58321296D01*
X-16400049Y-58324166D01*
X-16440120Y-58368225D01*
X-16502171Y-58393481D01*
X-16571351Y-58398426D01*
X-16632806Y-58381554D01*
X-16666507Y-58351208D01*
X-16678650Y-58308884D01*
X-16656829Y-58270363D01*
X-16598331Y-58233109D01*
X-16500443Y-58194589D01*
X-16498058Y-58193786D01*
X-16421918Y-58164689D01*
X-16360246Y-58134704D01*
X-16325732Y-58110050D01*
X-16324791Y-58108862D01*
X-16305537Y-58059786D01*
X-16299066Y-57995450D01*
X-16306603Y-57938270D01*
X-16314532Y-57921356D01*
X-16374006Y-57868415D01*
X-16455385Y-57837832D01*
X-16462872Y-57837136D01*
X-14647333Y-57837136D01*
X-14647333Y-57837172D01*
X-14637028Y-57858203D01*
X-14609157Y-57907401D01*
X-14568288Y-57976845D01*
X-14530916Y-58039000D01*
X-14478034Y-58128219D01*
X-14444081Y-58193223D01*
X-14424927Y-58245300D01*
X-14416443Y-58295739D01*
X-14414500Y-58355827D01*
X-14414500Y-58357244D01*
X-14413654Y-58427284D01*
X-14407761Y-58464999D01*
X-14391788Y-58480395D01*
X-14360701Y-58483479D01*
X-14351000Y-58483500D01*
X-14287500Y-58483500D01*
X-14287500Y-58354148D01*
X-14286352Y-58316328D01*
X-13991359Y-58316328D01*
X-13967382Y-58385740D01*
X-13943541Y-58413616D01*
X-13907623Y-58443466D01*
X-13871889Y-58462829D01*
X-13826055Y-58474074D01*
X-13759834Y-58479567D01*
X-13662938Y-58481676D01*
X-13647208Y-58481829D01*
X-13462000Y-58483500D01*
X-13462000Y-57827333D01*
X-13615458Y-57827451D01*
X-13754181Y-57833658D01*
X-13854808Y-57852525D01*
X-13919865Y-57884793D01*
X-13949841Y-57925234D01*
X-13967952Y-57992225D01*
X-13958749Y-58041369D01*
X-13926180Y-58082820D01*
X-13882360Y-58126640D01*
X-13936763Y-58177059D01*
X-13981027Y-58242384D01*
X-13991359Y-58316328D01*
X-14286352Y-58316328D01*
X-14285573Y-58290692D01*
X-14276971Y-58238250D01*
X-14257463Y-58184721D01*
X-14222820Y-58118006D01*
X-14178339Y-58041939D01*
X-14131444Y-57963232D01*
X-14092819Y-57898117D01*
X-14067542Y-57855174D01*
X-14060673Y-57843208D01*
X-14072798Y-57832297D01*
X-14113780Y-57827358D01*
X-14117438Y-57827333D01*
X-14160180Y-57833214D01*
X-14193866Y-57857055D01*
X-14230178Y-57908151D01*
X-14240396Y-57925187D01*
X-14291356Y-58010744D01*
X-14326958Y-58061654D01*
X-14354053Y-58079311D01*
X-14379491Y-58065110D01*
X-14410125Y-58020442D01*
X-14441597Y-57966106D01*
X-14484959Y-57894127D01*
X-14517320Y-57852196D01*
X-14546686Y-57832532D01*
X-14581060Y-57827355D01*
X-14584372Y-57827333D01*
X-14628762Y-57830211D01*
X-14647333Y-57837136D01*
X-16462872Y-57837136D01*
X-16546880Y-57829327D01*
X-16636700Y-57842621D01*
X-16713057Y-57877436D01*
X-16763372Y-57931994D01*
X-16783212Y-57983369D01*
X-16770799Y-58010111D01*
X-16723499Y-58017833D01*
X-16723093Y-58017833D01*
X-16669850Y-58006163D01*
X-16647599Y-57975549D01*
X-16615627Y-57935519D01*
X-16561522Y-57916089D01*
X-16500004Y-57917028D01*
X-16445794Y-57938104D01*
X-16413612Y-57979086D01*
X-16413567Y-57979228D01*
X-16410928Y-58018370D01*
X-16434730Y-58049377D01*
X-16490210Y-58076040D01*
X-16582602Y-58102144D01*
X-16583874Y-58102450D01*
X-16689572Y-58140666D01*
X-16762645Y-58194408D01*
X-16800659Y-58259539D01*
X-16801180Y-58331925D01*
X-16906365Y-58331925D01*
X-16951075Y-58213213D01*
X-16998081Y-58089165D01*
X-17034340Y-57995806D01*
X-17062041Y-57928713D01*
X-17083373Y-57883459D01*
X-17100526Y-57855622D01*
X-17115688Y-57840775D01*
X-17131049Y-57834494D01*
X-17148799Y-57832355D01*
X-17158749Y-57831506D01*
X-17223695Y-57825096D01*
X-17343098Y-58144257D01*
X-17383413Y-58252612D01*
X-17417914Y-58346471D01*
X-17444103Y-58418947D01*
X-17459483Y-58463154D01*
X-17462500Y-58473459D01*
X-19812000Y-58473459D01*
X-19812000Y-57488667D01*
X-19707060Y-57488667D01*
X-15542072Y-57488704D01*
X-11377083Y-57488742D01*
X-11317125Y-57583649D01*
X-11171078Y-57779799D01*
X-10995036Y-57957558D01*
X-10796455Y-58111394D01*
X-10582789Y-58235773D01*
X-10361491Y-58325162D01*
X-10290938Y-58345306D01*
X-10121062Y-58384460D01*
X-9974724Y-58406936D01*
X-9836946Y-58413628D01*
X-9692751Y-58405427D01*
X-9562505Y-58388712D01*
X-9310037Y-58330680D01*
X-9067756Y-58236108D01*
X-8841487Y-58108686D01*
X-8637052Y-57952106D01*
X-8460278Y-57770059D01*
X-8350228Y-57620391D01*
X-8265583Y-57489037D01*
X-8048625Y-57488852D01*
X-7831666Y-57488667D01*
X-7831666Y-56102250D01*
X-7831696Y-55826026D01*
X-7831844Y-55589023D01*
X-7832205Y-55388127D01*
X-7832870Y-55220225D01*
X-7833931Y-55082203D01*
X-7835481Y-54970949D01*
X-7837612Y-54883350D01*
X-7840416Y-54816293D01*
X-7843985Y-54766663D01*
X-7848412Y-54731349D01*
X-7853789Y-54707237D01*
X-7860208Y-54691214D01*
X-7867761Y-54680167D01*
X-7874000Y-54673500D01*
X-7878611Y-54669237D01*
X-7884605Y-54665270D01*
X-7893462Y-54661589D01*
X-7906666Y-54658183D01*
X-7925698Y-54655041D01*
X-7952040Y-54652153D01*
X-7987175Y-54649507D01*
X-8032586Y-54647094D01*
X-8089753Y-54644902D01*
X-8160159Y-54642921D01*
X-8245287Y-54641140D01*
X-8346619Y-54639549D01*
X-8465636Y-54638137D01*
X-8603822Y-54636893D01*
X-8762657Y-54635807D01*
X-8943625Y-54634867D01*
X-9148207Y-54634064D01*
X-9377886Y-54633386D01*
X-9634143Y-54632823D01*
X-9918462Y-54632365D01*
X-10232324Y-54632000D01*
X-10577211Y-54631717D01*
X-10954606Y-54631507D01*
X-11365990Y-54631359D01*
X-11812846Y-54631261D01*
X-12296657Y-54631204D01*
X-12818903Y-54631176D01*
X-13381068Y-54631167D01*
X-13755988Y-54631167D01*
X-14344212Y-54631171D01*
X-14891586Y-54631193D01*
X-15399594Y-54631241D01*
X-15869719Y-54631326D01*
X-16303444Y-54631459D01*
X-16702253Y-54631648D01*
X-17067629Y-54631906D01*
X-17401057Y-54632240D01*
X-17704018Y-54632663D01*
X-17977997Y-54633184D01*
X-18224477Y-54633813D01*
X-18444942Y-54634561D01*
X-18640875Y-54635437D01*
X-18813759Y-54636453D01*
X-18965078Y-54637617D01*
X-19096316Y-54638940D01*
X-19208955Y-54640433D01*
X-19304480Y-54642106D01*
X-19384373Y-54643968D01*
X-19450119Y-54646031D01*
X-19503200Y-54648303D01*
X-19545100Y-54650796D01*
X-19577302Y-54653519D01*
X-19601290Y-54656484D01*
X-19618548Y-54659699D01*
X-19630559Y-54663175D01*
X-19638806Y-54666923D01*
X-19644772Y-54670952D01*
X-19645613Y-54671623D01*
X-19695583Y-54712079D01*
X-19701322Y-56100373D01*
X-19707060Y-57488667D01*
X-19812000Y-57488667D01*
X-19812000Y-54649077D01*
X-19688256Y-54525333D01*
X-7837439Y-54525333D01*
X-7782150Y-54580622D01*
G36*
X14407923Y-57595613D02*
G01*
X14449795Y-57600469D01*
X14465436Y-57611348D01*
X14462886Y-57630526D01*
X14462503Y-57631542D01*
X14450394Y-57661269D01*
X14424402Y-57723814D01*
X14387116Y-57812994D01*
X14341122Y-57922628D01*
X14289006Y-58046535D01*
X14265427Y-58102500D01*
X14204868Y-58247346D01*
X14159714Y-58358759D01*
X14128220Y-58442010D01*
X14108642Y-58502370D01*
X14099234Y-58545109D01*
X14098251Y-58575498D01*
X14102458Y-58594752D01*
X14148116Y-58668483D01*
X14219941Y-58719363D01*
X14300938Y-58737500D01*
X14344707Y-58739700D01*
X14365434Y-58753980D01*
X14371731Y-58791857D01*
X14372167Y-58832750D01*
X14372167Y-58928000D01*
X14229292Y-58927860D01*
X14130036Y-58922705D01*
X14060562Y-58905974D01*
X14026856Y-58888450D01*
X13974556Y-58843681D01*
X13924632Y-58785564D01*
X13918975Y-58777464D01*
X13902382Y-58745253D01*
X13873297Y-58680945D01*
X13834214Y-58590655D01*
X13787627Y-58480499D01*
X13736029Y-58356592D01*
X13681912Y-58225049D01*
X13627771Y-58091984D01*
X13576098Y-57963512D01*
X13529386Y-57845749D01*
X13490128Y-57744810D01*
X13460819Y-57666809D01*
X13443951Y-57617862D01*
X13440834Y-57604743D01*
X13460133Y-57599469D01*
X13510736Y-57597341D01*
X13581695Y-57598817D01*
X13581861Y-57598824D01*
X13722888Y-57605083D01*
X13783956Y-57785000D01*
X13820260Y-57894781D01*
X13858980Y-58016285D01*
X13892291Y-58124925D01*
X13895058Y-58134250D01*
X13918616Y-58206845D01*
X13938803Y-58256105D01*
X13952433Y-58274770D01*
X13955406Y-58271833D01*
X13965530Y-58241721D01*
X13986805Y-58179145D01*
X14016644Y-58091684D01*
X14052464Y-57986920D01*
X14076305Y-57917292D01*
X14186891Y-57594500D01*
X14331781Y-57594500D01*
X14407923Y-57595613D01*
G37*
X14407923Y-57595613D02*
X14449795Y-57600469D01*
X14465436Y-57611348D01*
X14462886Y-57630526D01*
X14462503Y-57631542D01*
X14450394Y-57661269D01*
X14424402Y-57723814D01*
X14387116Y-57812994D01*
X14341122Y-57922628D01*
X14289006Y-58046535D01*
X14265427Y-58102500D01*
X14204868Y-58247346D01*
X14159714Y-58358759D01*
X14128220Y-58442010D01*
X14108642Y-58502370D01*
X14099234Y-58545109D01*
X14098251Y-58575498D01*
X14102458Y-58594752D01*
X14148116Y-58668483D01*
X14219941Y-58719363D01*
X14300938Y-58737500D01*
X14344707Y-58739700D01*
X14365434Y-58753980D01*
X14371731Y-58791857D01*
X14372167Y-58832750D01*
X14372167Y-58928000D01*
X14229292Y-58927860D01*
X14130036Y-58922705D01*
X14060562Y-58905974D01*
X14026856Y-58888450D01*
X13974556Y-58843681D01*
X13924632Y-58785564D01*
X13918975Y-58777464D01*
X13902382Y-58745253D01*
X13873297Y-58680945D01*
X13834214Y-58590655D01*
X13787627Y-58480499D01*
X13736029Y-58356592D01*
X13681912Y-58225049D01*
X13627771Y-58091984D01*
X13576098Y-57963512D01*
X13529386Y-57845749D01*
X13490128Y-57744810D01*
X13460819Y-57666809D01*
X13443951Y-57617862D01*
X13440834Y-57604743D01*
X13460133Y-57599469D01*
X13510736Y-57597341D01*
X13581695Y-57598817D01*
X13581861Y-57598824D01*
X13722888Y-57605083D01*
X13783956Y-57785000D01*
X13820260Y-57894781D01*
X13858980Y-58016285D01*
X13892291Y-58124925D01*
X13895058Y-58134250D01*
X13918616Y-58206845D01*
X13938803Y-58256105D01*
X13952433Y-58274770D01*
X13955406Y-58271833D01*
X13965530Y-58241721D01*
X13986805Y-58179145D01*
X14016644Y-58091684D01*
X14052464Y-57986920D01*
X14076305Y-57917292D01*
X14186891Y-57594500D01*
X14331781Y-57594500D01*
X14407923Y-57595613D01*
G36*
X3204392Y-57603150D02*
G01*
X3283078Y-57640287D01*
X3333786Y-57685640D01*
X3355494Y-57713915D01*
X3364007Y-57709060D01*
X3365499Y-57666611D01*
X3365500Y-57662710D01*
X3365500Y-57594500D01*
X3619500Y-57594500D01*
X3619500Y-58928000D01*
X3339006Y-58928000D01*
X3357370Y-58448258D01*
X3313810Y-58498755D01*
X3250080Y-58544741D01*
X3162416Y-58572470D01*
X3066613Y-58578310D01*
X3008613Y-58568960D01*
X2906899Y-58522311D01*
X2830544Y-58443519D01*
X2779122Y-58331791D01*
X2752206Y-58186336D01*
X2747652Y-58083798D01*
X3029233Y-58083798D01*
X3030389Y-58120208D01*
X3035018Y-58208548D01*
X3042514Y-58265782D01*
X3056154Y-58303137D01*
X3079216Y-58331839D01*
X3096806Y-58347750D01*
X3147546Y-58386171D01*
X3186232Y-58396614D01*
X3229267Y-58382442D01*
X3239673Y-58377039D01*
X3294763Y-58324388D01*
X3332023Y-58237751D01*
X3349478Y-58122392D01*
X3350559Y-58081333D01*
X3340538Y-57965603D01*
X3312706Y-57873079D01*
X3270409Y-57807974D01*
X3216996Y-57774501D01*
X3155813Y-57776871D01*
X3122006Y-57793688D01*
X3075895Y-57835026D01*
X3046533Y-57891919D01*
X3031714Y-57972224D01*
X3029233Y-58083798D01*
X2747652Y-58083798D01*
X2747646Y-58083674D01*
X2759195Y-57915229D01*
X2795185Y-57781089D01*
X2855864Y-57680821D01*
X2941479Y-57613991D01*
X3033753Y-57583207D01*
X3115804Y-57582252D01*
X3204392Y-57603150D01*
G37*
X3204392Y-57603150D02*
X3283078Y-57640287D01*
X3333786Y-57685640D01*
X3355494Y-57713915D01*
X3364007Y-57709060D01*
X3365499Y-57666611D01*
X3365500Y-57662710D01*
X3365500Y-57594500D01*
X3619500Y-57594500D01*
X3619500Y-58928000D01*
X3339006Y-58928000D01*
X3357370Y-58448258D01*
X3313810Y-58498755D01*
X3250080Y-58544741D01*
X3162416Y-58572470D01*
X3066613Y-58578310D01*
X3008613Y-58568960D01*
X2906899Y-58522311D01*
X2830544Y-58443519D01*
X2779122Y-58331791D01*
X2752206Y-58186336D01*
X2747652Y-58083798D01*
X3029233Y-58083798D01*
X3030389Y-58120208D01*
X3035018Y-58208548D01*
X3042514Y-58265782D01*
X3056154Y-58303137D01*
X3079216Y-58331839D01*
X3096806Y-58347750D01*
X3147546Y-58386171D01*
X3186232Y-58396614D01*
X3229267Y-58382442D01*
X3239673Y-58377039D01*
X3294763Y-58324388D01*
X3332023Y-58237751D01*
X3349478Y-58122392D01*
X3350559Y-58081333D01*
X3340538Y-57965603D01*
X3312706Y-57873079D01*
X3270409Y-57807974D01*
X3216996Y-57774501D01*
X3155813Y-57776871D01*
X3122006Y-57793688D01*
X3075895Y-57835026D01*
X3046533Y-57891919D01*
X3031714Y-57972224D01*
X3029233Y-58083798D01*
X2747652Y-58083798D01*
X2747646Y-58083674D01*
X2759195Y-57915229D01*
X2795185Y-57781089D01*
X2855864Y-57680821D01*
X2941479Y-57613991D01*
X3033753Y-57583207D01*
X3115804Y-57582252D01*
X3204392Y-57603150D01*
%TD*%
M02*
