%TF.GenerationSoftware,KiCad,Pcbnew,5.1.10*%
%TF.CreationDate,2021-05-10T15:11:08+02:00*%
%TF.ProjectId,ripples,72697070-6c65-4732-9e6b-696361645f70,rev?*%
%TF.SameCoordinates,Original*%
%TF.FileFunction,Profile,NP*%
%FSLAX46Y46*%
G04 Gerber Fmt 4.6, Leading zero omitted, Abs format (unit mm)*
G04 Created by KiCad (PCBNEW 5.1.10) date 2021-05-10 15:11:08*
%MOMM*%
%LPD*%
G01*
G04 APERTURE LIST*
%TA.AperFunction,Profile*%
%ADD10C,0.100000*%
%TD*%
G04 APERTURE END LIST*
D10*
X10000901Y34298400D02*
X14801800Y34298400D01*
X14801800Y34298400D02*
X14801800Y43499500D01*
X14801800Y43499500D02*
X10000901Y43499500D01*
X10000901Y43499500D02*
X10000901Y34298400D01*
X10000901Y34298400D02*
X10000901Y34298400D01*
X-3097800Y38899800D02*
X-3117099Y38516400D01*
X-3117099Y38516400D02*
X-3173900Y38144000D01*
X-3173900Y38144000D02*
X-3266299Y37784700D01*
X-3266299Y37784700D02*
X-3392399Y37440100D01*
X-3392399Y37440100D02*
X-3550400Y37112300D01*
X-3550400Y37112300D02*
X-3738200Y36803100D01*
X-3738200Y36803100D02*
X-3954099Y36514500D01*
X-3954099Y36514500D02*
X-4196099Y36248200D01*
X-4196099Y36248200D02*
X-4462400Y36006100D01*
X-4462400Y36006100D02*
X-4751100Y35790200D01*
X-4751100Y35790200D02*
X-5060299Y35602400D01*
X-5060299Y35602400D02*
X-5388099Y35444500D01*
X-5388099Y35444500D02*
X-5732700Y35318400D01*
X-5732700Y35318400D02*
X-6092000Y35226000D01*
X-6092000Y35226000D02*
X-6464399Y35169200D01*
X-6464399Y35169200D02*
X-6847800Y35149800D01*
X-6847800Y35149800D02*
X-7218400Y35168200D01*
X-7218400Y35168200D02*
X-7582800Y35222500D01*
X-7582800Y35222500D02*
X-7938399Y35311900D01*
X-7938399Y35311900D02*
X-8282899Y35435300D01*
X-8282899Y35435300D02*
X-8613599Y35591600D01*
X-8613599Y35591600D02*
X-8928299Y35779800D01*
X-8928299Y35779800D02*
X-9224400Y35999000D01*
X-9224400Y35999000D02*
X-9499399Y36248200D01*
X-9499399Y36248200D02*
X-9748599Y36523200D01*
X-9748599Y36523200D02*
X-9967799Y36819300D01*
X-9967799Y36819300D02*
X-10156019Y37134000D01*
X-10156019Y37134000D02*
X-10312340Y37464700D01*
X-10312340Y37464700D02*
X-10435700Y37809200D01*
X-10435700Y37809200D02*
X-10525069Y38164800D01*
X-10525069Y38164800D02*
X-10579439Y38529200D01*
X-10579439Y38529200D02*
X-10597789Y38899800D01*
X-10597789Y38899800D02*
X-10579439Y39270400D01*
X-10579439Y39270400D02*
X-10525069Y39634800D01*
X-10525069Y39634800D02*
X-10435700Y39990400D01*
X-10435700Y39990400D02*
X-10312340Y40334900D01*
X-10312340Y40334900D02*
X-10156019Y40665600D01*
X-10156019Y40665600D02*
X-9967799Y40980300D01*
X-9967799Y40980300D02*
X-9748599Y41276400D01*
X-9748599Y41276400D02*
X-9499399Y41551500D01*
X-9499399Y41551500D02*
X-9224400Y41800600D01*
X-9224400Y41800600D02*
X-8928299Y42019800D01*
X-8928299Y42019800D02*
X-8613599Y42208000D01*
X-8613599Y42208000D02*
X-8282899Y42364400D01*
X-8282899Y42364400D02*
X-7938399Y42487700D01*
X-7938399Y42487700D02*
X-7582800Y42577100D01*
X-7582800Y42577100D02*
X-7218400Y42631500D01*
X-7218400Y42631500D02*
X-6847800Y42649800D01*
X-6847800Y42649800D02*
X-6464399Y42630400D01*
X-6464399Y42630400D02*
X-6092000Y42573600D01*
X-6092000Y42573600D02*
X-5732700Y42481200D01*
X-5732700Y42481200D02*
X-5388099Y42355100D01*
X-5388099Y42355100D02*
X-5060299Y42197200D01*
X-5060299Y42197200D02*
X-4751100Y42009400D01*
X-4751100Y42009400D02*
X-4462400Y41793500D01*
X-4462400Y41793500D02*
X-4196099Y41551500D01*
X-4196099Y41551500D02*
X-3954099Y41285200D01*
X-3954099Y41285200D02*
X-3738200Y40996500D01*
X-3738200Y40996500D02*
X-3550400Y40687300D01*
X-3550400Y40687300D02*
X-3392399Y40359500D01*
X-3392399Y40359500D02*
X-3266299Y40014900D01*
X-3266299Y40014900D02*
X-3173900Y39655600D01*
X-3173900Y39655600D02*
X-3117099Y39283200D01*
X-3117099Y39283200D02*
X-3097800Y38899800D01*
X-3097800Y38899800D02*
X-3097800Y38899800D01*
X14051901Y17299700D02*
X14032500Y16916300D01*
X14032500Y16916300D02*
X13975701Y16543900D01*
X13975701Y16543900D02*
X13883300Y16184500D01*
X13883300Y16184500D02*
X13757201Y15840000D01*
X13757201Y15840000D02*
X13599300Y15512200D01*
X13599300Y15512200D02*
X13411400Y15203000D01*
X13411400Y15203000D02*
X13195501Y14914300D01*
X13195501Y14914300D02*
X12953500Y14648000D01*
X12953500Y14648000D02*
X12687201Y14406000D01*
X12687201Y14406000D02*
X12398500Y14190100D01*
X12398500Y14190100D02*
X12089301Y14002300D01*
X12089301Y14002300D02*
X11761501Y13844400D01*
X11761501Y13844400D02*
X11417001Y13718300D01*
X11417001Y13718300D02*
X11057600Y13625900D01*
X11057600Y13625900D02*
X10685301Y13569000D01*
X10685301Y13569000D02*
X10301900Y13549700D01*
X10301900Y13549700D02*
X9931200Y13568000D01*
X9931200Y13568000D02*
X9566900Y13622400D01*
X9566900Y13622400D02*
X9211201Y13711800D01*
X9211201Y13711800D02*
X8866801Y13835100D01*
X8866801Y13835100D02*
X8536001Y13991400D01*
X8536001Y13991400D02*
X8221401Y14179700D01*
X8221401Y14179700D02*
X7925300Y14398900D01*
X7925300Y14398900D02*
X7650201Y14648000D01*
X7650201Y14648000D02*
X7401101Y14923100D01*
X7401101Y14923100D02*
X7181901Y15219200D01*
X7181901Y15219200D02*
X6993600Y15533800D01*
X6993600Y15533800D02*
X6837301Y15864600D01*
X6837301Y15864600D02*
X6714001Y16209000D01*
X6714001Y16209000D02*
X6624600Y16564700D01*
X6624600Y16564700D02*
X6570200Y16929000D01*
X6570200Y16929000D02*
X6551900Y17299700D01*
X6551900Y17299700D02*
X6570200Y17670300D01*
X6570200Y17670300D02*
X6624600Y18034700D01*
X6624600Y18034700D02*
X6714001Y18390300D01*
X6714001Y18390300D02*
X6837301Y18734700D01*
X6837301Y18734700D02*
X6993600Y19065500D01*
X6993600Y19065500D02*
X7181901Y19380200D01*
X7181901Y19380200D02*
X7401101Y19676300D01*
X7401101Y19676300D02*
X7650201Y19951300D01*
X7650201Y19951300D02*
X7925300Y20200400D01*
X7925300Y20200400D02*
X8221401Y20419600D01*
X8221401Y20419600D02*
X8536001Y20607900D01*
X8536001Y20607900D02*
X8866801Y20764200D01*
X8866801Y20764200D02*
X9211201Y20887600D01*
X9211201Y20887600D02*
X9566900Y20977000D01*
X9566900Y20977000D02*
X9931200Y21031300D01*
X9931200Y21031300D02*
X10301900Y21049700D01*
X10301900Y21049700D02*
X10685301Y21030300D01*
X10685301Y21030300D02*
X11057600Y20973500D01*
X11057600Y20973500D02*
X11417001Y20881100D01*
X11417001Y20881100D02*
X11761501Y20755000D01*
X11761501Y20755000D02*
X12089301Y20597100D01*
X12089301Y20597100D02*
X12398500Y20409200D01*
X12398500Y20409200D02*
X12687201Y20193400D01*
X12687201Y20193400D02*
X12953500Y19951300D01*
X12953500Y19951300D02*
X13195501Y19685000D01*
X13195501Y19685000D02*
X13411400Y19396300D01*
X13411400Y19396300D02*
X13599300Y19087100D01*
X13599300Y19087100D02*
X13757201Y18759300D01*
X13757201Y18759300D02*
X13883300Y18414800D01*
X13883300Y18414800D02*
X13975701Y18055400D01*
X13975701Y18055400D02*
X14032500Y17683100D01*
X14032500Y17683100D02*
X14051901Y17299700D01*
X14051901Y17299700D02*
X14051901Y17299700D01*
X-20149999Y64250000D02*
X20150000Y64250000D01*
X20150000Y64250000D02*
X20150000Y-64250000D01*
X20150000Y-64250000D02*
X-20149999Y-64250000D01*
X-20149999Y-64250000D02*
X-20149999Y64250000D01*
X-20149999Y64250000D02*
X-20149999Y64250000D01*
M02*
